<svg width="30" height="30" viewBox="0 0 30 30" fill="none" xmlns="http://www.w3.org/2000/svg">
<path fill-rule="evenodd" clip-rule="evenodd" d="M7.08725 3.3567C6.93738 3.2195 6.8305 3.04774 6.77783 2.85947C6.72517 2.6712 6.72866 2.47337 6.78793 2.28676C6.84721 2.10016 6.96009 1.93167 7.11471 1.79901C7.26933 1.66635 7.45998 1.57441 7.66663 1.53286L15.1515 0.0250195C15.3444 -0.013775 15.5448 -0.00736979 15.7343 0.0436458C15.9238 0.0946613 16.0963 0.188649 16.236 0.316964C16.3756 0.445278 16.4779 0.603799 16.5334 0.777945C16.5889 0.95209 16.5959 1.13627 16.5537 1.31354L14.9113 8.19188C14.8659 8.38133 14.766 8.55609 14.622 8.69787C14.4779 8.83966 14.295 8.94326 14.0925 8.99784C13.8899 9.05241 13.6751 9.05595 13.4706 9.00808C13.266 8.96022 13.0792 8.86271 12.9298 8.72576L7.08568 3.35525L7.08725 3.3567ZM17.6653 30C18.9562 30 20.1943 29.5287 21.1071 28.6899C22.02 27.851 22.5328 26.7133 22.5328 25.527C22.5328 24.3407 22.02 23.2029 21.1071 22.3641C20.1943 21.5252 18.9562 21.054 17.6653 21.054C16.3744 21.054 15.1363 21.5252 14.2235 22.3641C13.3107 23.2029 12.7979 24.3407 12.7979 25.527C12.7979 26.7133 13.3107 27.851 14.2235 28.6899C15.1363 29.5287 16.3744 30 17.6653 30ZM7.7891 8.07933C7.49466 7.80883 7.09535 7.65687 6.67901 7.65687C6.26266 7.65687 5.86336 7.80883 5.56891 8.07933L1.95287 11.4009C1.33374 11.9698 0.842611 12.6452 0.507536 13.3886C0.172461 14.1319 0 14.9286 0 15.7332C0 16.5378 0.172461 17.3346 0.507536 18.0779C0.842611 18.8212 1.33374 19.4967 1.95287 20.0656L1.95915 20.0699C3.21181 21.2181 4.90913 21.8626 6.67841 21.8618C8.4477 21.861 10.1443 21.215 11.3957 20.0656L20.8245 11.4009C22.2062 10.1312 24.4436 10.1312 25.8254 11.398C27.204 12.662 27.2055 14.7138 25.8301 15.9807L25.8269 15.9821L23.0478 18.5361C22.7532 18.8066 22.5876 19.1737 22.5874 19.5564C22.5873 19.9392 22.7526 20.3063 23.047 20.5771C23.3414 20.8478 23.7408 21 24.1573 21.0001C24.5738 21.0003 24.9733 20.8484 25.268 20.5778L28.0471 18.0239L28.0534 18.0181C29.3019 16.8678 30.0021 15.309 30 13.6844C29.9979 12.0598 29.2938 10.5024 28.0424 9.35487C26.7898 8.20664 25.0924 7.56218 23.3232 7.56299C21.5539 7.5638 19.8573 8.20982 18.6058 9.35919L9.17554 18.0239C7.79538 19.2936 5.55792 19.2936 4.17462 18.0239C3.5139 17.4162 3.14276 16.5923 3.14276 15.7332C3.14276 14.8742 3.5139 14.0503 4.17462 13.4426L7.7891 10.1196C8.08346 9.84902 8.24882 9.48208 8.24882 9.09947C8.24882 8.71686 8.08346 8.34992 7.7891 8.07933Z" fill="white"/>
</svg>
