<svg width="523" height="44" viewBox="0 0 523 44" fill="none" xmlns="http://www.w3.org/2000/svg">
<path d="M521.514 19.4742C522.292 19.1904 522.693 18.3293 522.409 17.551L517.783 4.86847C517.499 4.0902 516.638 3.68943 515.86 3.97332C515.081 4.25721 514.681 5.11826 514.965 5.89653L519.077 17.1699L507.803 21.2822C507.025 21.566 506.624 22.4271 506.908 23.2054C507.192 23.9836 508.053 24.3844 508.831 24.1005L521.514 19.4742ZM2.53808 16.6649C1.76479 16.3677 0.897006 16.7537 0.599832 17.527C0.302659 18.3003 0.688628 19.1681 1.46192 19.4652L2.53808 16.6649ZM521.633 16.7052C488.568 1.31506 451.945 -1.50204 412.614 1.64457C373.307 4.78932 331.125 13.9104 286.964 22.5037C198.538 39.7105 101.909 54.8528 2.53808 16.6649L1.46192 19.4652C101.707 57.989 199.103 42.6568 287.537 25.4485C331.806 16.8341 373.762 7.7625 412.853 4.63502C451.921 1.50941 487.959 4.34059 520.367 19.425L521.633 16.7052Z" fill="white"/>
</svg>
