<svg width="314" height="70" viewBox="0 0 314 70" fill="none" xmlns="http://www.w3.org/2000/svg">
<g filter="url(#filter0_d_2889_866)">
<rect x="10" y="10" width="294" height="50" rx="10" fill="white"/>
<path d="M27.04 42C26.9067 42 26.7933 41.96 26.7 41.88C26.6067 41.7867 26.56 41.6667 26.56 41.52V28.5C26.56 28.3533 26.6067 28.2333 26.7 28.14C26.7933 28.0467 26.9067 28 27.04 28H28.86C29.0067 28 29.12 28.0467 29.2 28.14C29.2933 28.2333 29.34 28.3533 29.34 28.5V33.66H31.08L34.34 28.36C34.4067 28.2533 34.4933 28.1667 34.6 28.1C34.72 28.0333 34.8733 28 35.06 28H37.04C37.1733 28 37.2733 28.04 37.34 28.12C37.42 28.2 37.46 28.3 37.46 28.42C37.46 28.4867 37.4333 28.5667 37.38 28.66L33.6 34.76L37.74 41.32C37.78 41.36 37.8 41.4333 37.8 41.54C37.8 41.66 37.7533 41.7667 37.66 41.86C37.58 41.9533 37.4733 42 37.34 42H35.28C35.1067 42 34.9733 41.96 34.88 41.88C34.8 41.8 34.7333 41.7267 34.68 41.66L31.18 36.16H29.34V41.52C29.34 41.6533 29.2933 41.7667 29.2 41.86C29.12 41.9533 29.0067 42 28.86 42H27.04ZM42.7384 42.2C42.0451 42.2 41.4184 42.0667 40.8584 41.8C40.2984 41.52 39.8518 41.1533 39.5184 40.7C39.1984 40.2333 39.0384 39.7133 39.0384 39.14C39.0384 38.2067 39.4118 37.4667 40.1584 36.92C40.9184 36.36 41.9184 35.9867 43.1584 35.8L45.8984 35.4V34.98C45.8984 34.42 45.7584 33.9867 45.4784 33.68C45.1984 33.3733 44.7184 33.22 44.0384 33.22C43.5584 33.22 43.1651 33.32 42.8584 33.52C42.5651 33.7067 42.3451 33.96 42.1984 34.28C42.0918 34.4533 41.9384 34.54 41.7384 34.54H40.1584C40.0118 34.54 39.8984 34.5 39.8184 34.42C39.7518 34.34 39.7184 34.2333 39.7184 34.1C39.7318 33.8867 39.8184 33.6267 39.9784 33.32C40.1384 33.0133 40.3918 32.72 40.7384 32.44C41.0851 32.1467 41.5318 31.9 42.0784 31.7C42.6251 31.5 43.2851 31.4 44.0584 31.4C44.8984 31.4 45.6051 31.5067 46.1784 31.72C46.7651 31.92 47.2318 32.1933 47.5784 32.54C47.9251 32.8867 48.1784 33.2933 48.3384 33.76C48.4984 34.2267 48.5784 34.72 48.5784 35.24V41.52C48.5784 41.6533 48.5318 41.7667 48.4384 41.86C48.3451 41.9533 48.2318 42 48.0984 42H46.4784C46.3318 42 46.2118 41.9533 46.1184 41.86C46.0384 41.7667 45.9984 41.6533 45.9984 41.52V40.74C45.8251 40.9933 45.5918 41.2333 45.2984 41.46C45.0051 41.6733 44.6451 41.8533 44.2184 42C43.8051 42.1333 43.3118 42.2 42.7384 42.2ZM43.4184 40.3C43.8851 40.3 44.3051 40.2 44.6784 40C45.0651 39.8 45.3651 39.4933 45.5784 39.08C45.8051 38.6533 45.9184 38.12 45.9184 37.48V37.06L43.9184 37.38C43.1318 37.5 42.5451 37.6933 42.1584 37.96C41.7718 38.2267 41.5784 38.5533 41.5784 38.94C41.5784 39.2333 41.6651 39.4867 41.8384 39.7C42.0251 39.9 42.2584 40.0533 42.5384 40.16C42.8184 40.2533 43.1118 40.3 43.4184 40.3ZM51.6242 42C51.4909 42 51.3776 41.9533 51.2842 41.86C51.1909 41.7667 51.1442 41.6533 51.1442 41.52V32.08C51.1442 31.9467 51.1909 31.8333 51.2842 31.74C51.3776 31.6467 51.4909 31.6 51.6242 31.6H53.2642C53.3976 31.6 53.5109 31.6467 53.6042 31.74C53.6976 31.8333 53.7442 31.9467 53.7442 32.08V35.66H55.1842L57.6242 31.92C57.6776 31.8267 57.7442 31.7533 57.8242 31.7C57.9176 31.6333 58.0376 31.6 58.1842 31.6H59.9642C60.0976 31.6 60.2042 31.6333 60.2842 31.7C60.3642 31.7667 60.4042 31.8533 60.4042 31.96C60.4042 32 60.3909 32.0467 60.3642 32.1C60.3509 32.14 60.3309 32.18 60.3042 32.22L57.4242 36.6L60.7242 41.38C60.7909 41.46 60.8242 41.5467 60.8242 41.64C60.8242 41.7467 60.7842 41.8333 60.7042 41.9C60.6242 41.9667 60.5242 42 60.4042 42H58.3842C58.2509 42 58.1376 41.9733 58.0442 41.92C57.9642 41.8667 57.8909 41.7933 57.8242 41.7L55.1842 37.78H53.7442V41.52C53.7442 41.6533 53.6976 41.7667 53.6042 41.86C53.5109 41.9533 53.3976 42 53.2642 42H51.6242ZM67.6203 42C67.487 42 67.3736 41.9533 67.2803 41.86C67.187 41.7667 67.1403 41.6533 67.1403 41.52V32.08C67.1403 31.9467 67.187 31.8333 67.2803 31.74C67.3736 31.6467 67.487 31.6 67.6203 31.6H76.1803C76.327 31.6 76.4403 31.6467 76.5203 31.74C76.6136 31.8333 76.6603 31.9467 76.6603 32.08V41.52C76.6603 41.6533 76.6136 41.7667 76.5203 41.86C76.4403 41.9533 76.327 42 76.1803 42H74.5203C74.387 42 74.2736 41.9533 74.1803 41.86C74.087 41.7667 74.0403 41.6533 74.0403 41.52V33.72H69.7603V41.52C69.7603 41.6533 69.7136 41.7667 69.6203 41.86C69.5403 41.9533 69.427 42 69.2803 42H67.6203ZM83.9669 42.2C82.9002 42.2 82.0002 42.0133 81.2669 41.64C80.5469 41.2667 79.9935 40.74 79.6069 40.06C79.2335 39.38 79.0202 38.5867 78.9669 37.68C78.9535 37.44 78.9469 37.1467 78.9469 36.8C78.9469 36.4533 78.9535 36.16 78.9669 35.92C79.0202 35 79.2402 34.2067 79.6269 33.54C80.0269 32.86 80.5869 32.3333 81.3069 31.96C82.0402 31.5867 82.9269 31.4 83.9669 31.4C85.0069 31.4 85.8869 31.5867 86.6069 31.96C87.3402 32.3333 87.9002 32.86 88.2869 33.54C88.6869 34.2067 88.9135 35 88.9669 35.92C88.9802 36.16 88.9869 36.4533 88.9869 36.8C88.9869 37.1467 88.9802 37.44 88.9669 37.68C88.9135 38.5867 88.6935 39.38 88.3069 40.06C87.9335 40.74 87.3802 41.2667 86.6469 41.64C85.9269 42.0133 85.0335 42.2 83.9669 42.2ZM83.9669 40.22C84.6735 40.22 85.2202 40 85.6069 39.56C85.9935 39.1067 86.2069 38.4467 86.2469 37.58C86.2602 37.38 86.2669 37.12 86.2669 36.8C86.2669 36.48 86.2602 36.22 86.2469 36.02C86.2069 35.1667 85.9935 34.5133 85.6069 34.06C85.2202 33.6067 84.6735 33.38 83.9669 33.38C83.2602 33.38 82.7135 33.6067 82.3269 34.06C81.9402 34.5133 81.7269 35.1667 81.6869 36.02C81.6735 36.22 81.6669 36.48 81.6669 36.8C81.6669 37.12 81.6735 37.38 81.6869 37.58C81.7269 38.4467 81.9402 39.1067 82.3269 39.56C82.7135 40 83.2602 40.22 83.9669 40.22ZM90.8828 42C90.7361 42 90.6161 41.9533 90.5228 41.86C90.4295 41.7667 90.3828 41.6467 90.3828 41.5V40.26C90.3828 39.9667 90.5361 39.8067 90.8428 39.78C91.2428 39.7533 91.5628 39.5667 91.8028 39.22C92.0428 38.8733 92.2161 38.34 92.3228 37.62C92.4295 36.8867 92.4828 35.94 92.4828 34.78V32.08C92.4828 31.9467 92.5295 31.8333 92.6228 31.74C92.7161 31.6467 92.8361 31.6 92.9828 31.6H100.083C100.216 31.6 100.329 31.6467 100.423 31.74C100.516 31.8333 100.563 31.9467 100.563 32.08V41.52C100.563 41.6533 100.516 41.7667 100.423 41.86C100.329 41.9533 100.216 42 100.083 42H98.4228C98.2761 42 98.1561 41.9533 98.0628 41.86C97.9828 41.7667 97.9428 41.6533 97.9428 41.52V33.72H95.0028V35.06C95.0028 36.34 94.9295 37.4267 94.7828 38.32C94.6495 39.2 94.4161 39.9133 94.0828 40.46C93.7628 40.9933 93.3361 41.3867 92.8028 41.64C92.2828 41.88 91.6428 42 90.8828 42ZM103.734 42C103.6 42 103.487 41.9533 103.394 41.86C103.3 41.7667 103.254 41.6533 103.254 41.52V32.08C103.254 31.9467 103.3 31.8333 103.394 31.74C103.487 31.6467 103.6 31.6 103.734 31.6H105.414C105.547 31.6 105.66 31.6467 105.754 31.74C105.847 31.8333 105.894 31.9467 105.894 32.08V34.9H107.954C109.314 34.9 110.334 35.22 111.014 35.86C111.694 36.5 112.034 37.38 112.034 38.5C112.034 39.66 111.667 40.5333 110.934 41.12C110.2 41.7067 109.154 42 107.794 42H103.734ZM105.854 40.1H107.734C108.387 40.1 108.867 39.98 109.174 39.74C109.494 39.5 109.654 39.0867 109.654 38.5C109.654 37.9267 109.5 37.5 109.194 37.22C108.9 36.94 108.414 36.8 107.734 36.8H105.854V40.1ZM117.859 42.2C117.006 42.2 116.286 42.1 115.699 41.9C115.126 41.7 114.666 41.4467 114.319 41.14C113.986 40.8333 113.739 40.5133 113.579 40.18C113.432 39.8333 113.346 39.52 113.319 39.24C113.319 39.12 113.359 39.0267 113.439 38.96C113.519 38.8933 113.606 38.86 113.699 38.86H115.339C115.472 38.86 115.572 38.8867 115.639 38.94C115.719 38.9933 115.786 39.08 115.839 39.2C115.972 39.6 116.219 39.88 116.579 40.04C116.952 40.2 117.412 40.28 117.959 40.28C118.332 40.28 118.666 40.2333 118.959 40.14C119.252 40.0333 119.479 39.88 119.639 39.68C119.799 39.4667 119.879 39.2067 119.879 38.9C119.879 38.46 119.752 38.1267 119.499 37.9C119.246 37.66 118.832 37.54 118.259 37.54H117.159C117.026 37.54 116.919 37.5 116.839 37.42C116.759 37.34 116.719 37.2333 116.719 37.1V36.26C116.719 36.14 116.759 36.04 116.839 35.96C116.919 35.8667 117.026 35.82 117.159 35.82H118.179C118.659 35.82 119.019 35.7333 119.259 35.56C119.499 35.3733 119.619 35.0867 119.619 34.7C119.619 34.4733 119.559 34.26 119.439 34.06C119.332 33.8467 119.152 33.6733 118.899 33.54C118.646 33.4067 118.292 33.34 117.839 33.34C117.212 33.34 116.766 33.44 116.499 33.64C116.232 33.84 116.039 34.14 115.919 34.54C115.866 34.66 115.799 34.7467 115.719 34.8C115.652 34.8533 115.546 34.88 115.399 34.88H113.819C113.712 34.88 113.619 34.8467 113.539 34.78C113.472 34.7133 113.439 34.62 113.439 34.5C113.466 34.14 113.559 33.78 113.719 33.42C113.892 33.0467 114.152 32.7067 114.499 32.4C114.859 32.0933 115.312 31.8533 115.859 31.68C116.406 31.4933 117.072 31.4 117.859 31.4C118.926 31.4 119.772 31.5467 120.399 31.84C121.026 32.1333 121.472 32.5067 121.739 32.96C122.019 33.4 122.159 33.86 122.159 34.34C122.159 34.8333 122.066 35.26 121.879 35.62C121.706 35.98 121.379 36.2733 120.899 36.5C121.499 36.7267 121.912 37.0733 122.139 37.54C122.366 38.0067 122.486 38.52 122.499 39.08C122.499 39.7467 122.306 40.3133 121.919 40.78C121.532 41.2333 120.992 41.5867 120.299 41.84C119.606 42.08 118.792 42.2 117.859 42.2ZM129.162 42.2C128.096 42.2 127.196 42.0133 126.462 41.64C125.742 41.2667 125.189 40.74 124.802 40.06C124.429 39.38 124.216 38.5867 124.162 37.68C124.149 37.44 124.142 37.1467 124.142 36.8C124.142 36.4533 124.149 36.16 124.162 35.92C124.216 35 124.436 34.2067 124.822 33.54C125.222 32.86 125.782 32.3333 126.502 31.96C127.236 31.5867 128.122 31.4 129.162 31.4C130.202 31.4 131.082 31.5867 131.802 31.96C132.536 32.3333 133.096 32.86 133.482 33.54C133.882 34.2067 134.109 35 134.162 35.92C134.176 36.16 134.182 36.4533 134.182 36.8C134.182 37.1467 134.176 37.44 134.162 37.68C134.109 38.5867 133.889 39.38 133.502 40.06C133.129 40.74 132.576 41.2667 131.842 41.64C131.122 42.0133 130.229 42.2 129.162 42.2ZM129.162 40.22C129.869 40.22 130.416 40 130.802 39.56C131.189 39.1067 131.402 38.4467 131.442 37.58C131.456 37.38 131.462 37.12 131.462 36.8C131.462 36.48 131.456 36.22 131.442 36.02C131.402 35.1667 131.189 34.5133 130.802 34.06C130.416 33.6067 129.869 33.38 129.162 33.38C128.456 33.38 127.909 33.6067 127.522 34.06C127.136 34.5133 126.922 35.1667 126.882 36.02C126.869 36.22 126.862 36.48 126.862 36.8C126.862 37.12 126.869 37.38 126.882 37.58C126.922 38.4467 127.136 39.1067 127.522 39.56C127.909 40 128.456 40.22 129.162 40.22ZM136.878 42C136.745 42 136.631 41.9533 136.538 41.86C136.445 41.7667 136.398 41.6533 136.398 41.52V32.08C136.398 31.9467 136.445 31.8333 136.538 31.74C136.631 31.6467 136.745 31.6 136.878 31.6H141.318C142.731 31.6 143.778 31.86 144.458 32.38C145.138 32.9 145.478 33.6 145.478 34.48C145.478 35.04 145.371 35.4733 145.158 35.78C144.945 36.0867 144.651 36.3533 144.278 36.58C144.745 36.7933 145.105 37.12 145.358 37.56C145.625 37.9867 145.758 38.46 145.758 38.98C145.758 39.94 145.398 40.6867 144.678 41.22C143.971 41.74 142.925 42 141.538 42H136.878ZM138.958 40.2H141.358C141.891 40.2 142.318 40.1 142.638 39.9C142.958 39.7 143.118 39.3867 143.118 38.96C143.118 38.52 142.971 38.2 142.678 38C142.385 37.8 141.945 37.7 141.358 37.7H138.958V40.2ZM138.958 35.84H141.278C141.811 35.84 142.231 35.7333 142.538 35.52C142.845 35.2933 142.998 34.9667 142.998 34.54C142.998 34.1133 142.838 33.82 142.518 33.66C142.211 33.4867 141.798 33.4 141.278 33.4H138.958V35.84ZM151.078 42.2C150.385 42.2 149.758 42.0667 149.198 41.8C148.638 41.52 148.192 41.1533 147.858 40.7C147.538 40.2333 147.378 39.7133 147.378 39.14C147.378 38.2067 147.752 37.4667 148.498 36.92C149.258 36.36 150.258 35.9867 151.498 35.8L154.238 35.4V34.98C154.238 34.42 154.098 33.9867 153.818 33.68C153.538 33.3733 153.058 33.22 152.378 33.22C151.898 33.22 151.505 33.32 151.198 33.52C150.905 33.7067 150.685 33.96 150.538 34.28C150.432 34.4533 150.278 34.54 150.078 34.54H148.498C148.352 34.54 148.238 34.5 148.158 34.42C148.092 34.34 148.058 34.2333 148.058 34.1C148.072 33.8867 148.158 33.6267 148.318 33.32C148.478 33.0133 148.732 32.72 149.078 32.44C149.425 32.1467 149.872 31.9 150.418 31.7C150.965 31.5 151.625 31.4 152.398 31.4C153.238 31.4 153.945 31.5067 154.518 31.72C155.105 31.92 155.572 32.1933 155.918 32.54C156.265 32.8867 156.518 33.2933 156.678 33.76C156.838 34.2267 156.918 34.72 156.918 35.24V41.52C156.918 41.6533 156.872 41.7667 156.778 41.86C156.685 41.9533 156.572 42 156.438 42H154.818C154.672 42 154.552 41.9533 154.458 41.86C154.378 41.7667 154.338 41.6533 154.338 41.52V40.74C154.165 40.9933 153.932 41.2333 153.638 41.46C153.345 41.6733 152.985 41.8533 152.558 42C152.145 42.1333 151.652 42.2 151.078 42.2ZM151.758 40.3C152.225 40.3 152.645 40.2 153.018 40C153.405 39.8 153.705 39.4933 153.918 39.08C154.145 38.6533 154.258 38.12 154.258 37.48V37.06L152.258 37.38C151.472 37.5 150.885 37.6933 150.498 37.96C150.112 38.2267 149.918 38.5533 149.918 38.94C149.918 39.2333 150.005 39.4867 150.178 39.7C150.365 39.9 150.598 40.0533 150.878 40.16C151.158 40.2533 151.452 40.3 151.758 40.3ZM162.664 42C162.517 42 162.397 41.9533 162.304 41.86C162.224 41.7667 162.184 41.6533 162.184 41.52V33.72H158.924C158.777 33.72 158.657 33.6733 158.564 33.58C158.484 33.4867 158.444 33.3733 158.444 33.24V32.08C158.444 31.9467 158.484 31.8333 158.564 31.74C158.657 31.6467 158.777 31.6 158.924 31.6H168.004C168.151 31.6 168.271 31.6467 168.364 31.74C168.457 31.8333 168.504 31.9467 168.504 32.08V33.24C168.504 33.3733 168.457 33.4867 168.364 33.58C168.271 33.6733 168.151 33.72 168.004 33.72H164.764V41.52C164.764 41.6533 164.717 41.7667 164.624 41.86C164.531 41.9533 164.417 42 164.284 42H162.664ZM170.57 42C170.436 42 170.323 41.9533 170.23 41.86C170.136 41.7667 170.09 41.6533 170.09 41.52V32.08C170.09 31.9467 170.136 31.8333 170.23 31.74C170.323 31.6467 170.436 31.6 170.57 31.6H172.25C172.383 31.6 172.496 31.6467 172.59 31.74C172.683 31.8333 172.73 31.9467 172.73 32.08V34.9H174.79C176.15 34.9 177.17 35.22 177.85 35.86C178.53 36.5 178.87 37.38 178.87 38.5C178.87 39.66 178.503 40.5333 177.77 41.12C177.036 41.7067 175.99 42 174.63 42H170.57ZM172.69 40.1H174.57C175.223 40.1 175.703 39.98 176.01 39.74C176.33 39.5 176.49 39.0867 176.49 38.5C176.49 37.9267 176.336 37.5 176.03 37.22C175.736 36.94 175.25 36.8 174.57 36.8H172.69V40.1ZM185.195 42.2C184.235 42.2 183.388 42.02 182.655 41.66C181.935 41.3 181.368 40.78 180.955 40.1C180.555 39.4067 180.335 38.5733 180.295 37.6C180.282 37.4 180.275 37.14 180.275 36.82C180.275 36.4867 180.282 36.2133 180.295 36C180.335 35.0267 180.555 34.2 180.955 33.52C181.368 32.8267 181.935 32.3 182.655 31.94C183.388 31.58 184.235 31.4 185.195 31.4C186.048 31.4 186.775 31.52 187.375 31.76C187.975 32 188.468 32.3 188.855 32.66C189.242 33.02 189.528 33.4 189.715 33.8C189.915 34.1867 190.022 34.54 190.035 34.86C190.048 35.0067 190.002 35.1267 189.895 35.22C189.802 35.3 189.688 35.34 189.555 35.34H187.795C187.662 35.34 187.555 35.3067 187.475 35.24C187.408 35.1733 187.342 35.0733 187.275 34.94C187.075 34.4067 186.808 34.0333 186.475 33.82C186.155 33.5933 185.742 33.48 185.235 33.48C184.568 33.48 184.035 33.6933 183.635 34.12C183.248 34.5333 183.042 35.1933 183.015 36.1C182.988 36.6067 182.988 37.0733 183.015 37.5C183.042 38.42 183.248 39.0867 183.635 39.5C184.035 39.9133 184.568 40.12 185.235 40.12C185.755 40.12 186.175 40.0133 186.495 39.8C186.815 39.5733 187.075 39.1933 187.275 38.66C187.342 38.5267 187.408 38.4267 187.475 38.36C187.555 38.2933 187.662 38.26 187.795 38.26H189.555C189.688 38.26 189.802 38.3067 189.895 38.4C190.002 38.48 190.048 38.5933 190.035 38.74C190.022 38.98 189.955 39.2533 189.835 39.56C189.728 39.8533 189.548 40.16 189.295 40.48C189.055 40.7867 188.748 41.0733 188.375 41.34C188.002 41.5933 187.548 41.8 187.015 41.96C186.495 42.12 185.888 42.2 185.195 42.2ZM198.721 42C198.574 42 198.454 41.9533 198.361 41.86C198.281 41.7667 198.241 41.6533 198.241 41.52V38.46H196.261V38.36C194.914 38.36 193.901 38.0533 193.221 37.44C192.554 36.8133 192.221 35.9933 192.221 34.98C192.221 33.86 192.574 33.02 193.281 32.46C193.987 31.8867 195.007 31.6 196.341 31.6H200.421C200.554 31.6 200.667 31.6467 200.761 31.74C200.854 31.8333 200.901 31.9467 200.901 32.08V41.52C200.901 41.6533 200.854 41.7667 200.761 41.86C200.667 41.9533 200.554 42 200.421 42H198.721ZM192.321 42C192.201 42 192.101 41.96 192.021 41.88C191.941 41.8 191.901 41.7067 191.901 41.6C191.901 41.56 191.907 41.5133 191.921 41.46C191.934 41.3933 191.967 41.3333 192.021 41.28L194.261 37.76L196.701 38.08L194.481 41.7C194.441 41.78 194.374 41.8533 194.281 41.92C194.187 41.9733 194.087 42 193.981 42H192.321ZM196.281 36.56H198.281V33.5H196.401C195.787 33.5 195.334 33.6133 195.041 33.84C194.747 34.0533 194.601 34.4333 194.601 34.98C194.601 35.4467 194.734 35.8267 195.001 36.12C195.281 36.4133 195.707 36.56 196.281 36.56ZM208.655 42C208.522 42 208.409 41.9533 208.315 41.86C208.222 41.7667 208.175 41.6533 208.175 41.52V32.08C208.175 31.9467 208.222 31.8333 208.315 31.74C208.409 31.6467 208.522 31.6 208.655 31.6H210.295C210.429 31.6 210.542 31.6467 210.635 31.74C210.729 31.8333 210.775 31.9467 210.775 32.08V35.66H212.215L214.655 31.92C214.709 31.8267 214.775 31.7533 214.855 31.7C214.949 31.6333 215.069 31.6 215.215 31.6H216.995C217.129 31.6 217.235 31.6333 217.315 31.7C217.395 31.7667 217.435 31.8533 217.435 31.96C217.435 32 217.422 32.0467 217.395 32.1C217.382 32.14 217.362 32.18 217.335 32.22L214.455 36.6L217.755 41.38C217.822 41.46 217.855 41.5467 217.855 41.64C217.855 41.7467 217.815 41.8333 217.735 41.9C217.655 41.9667 217.555 42 217.435 42H215.415C215.282 42 215.169 41.9733 215.075 41.92C214.995 41.8667 214.922 41.7933 214.855 41.7L212.215 37.78H210.775V41.52C210.775 41.6533 210.729 41.7667 210.635 41.86C210.542 41.9533 210.429 42 210.295 42H208.655ZM222.621 42.2C221.928 42.2 221.301 42.0667 220.741 41.8C220.181 41.52 219.735 41.1533 219.401 40.7C219.081 40.2333 218.921 39.7133 218.921 39.14C218.921 38.2067 219.295 37.4667 220.041 36.92C220.801 36.36 221.801 35.9867 223.041 35.8L225.781 35.4V34.98C225.781 34.42 225.641 33.9867 225.361 33.68C225.081 33.3733 224.601 33.22 223.921 33.22C223.441 33.22 223.048 33.32 222.741 33.52C222.448 33.7067 222.228 33.96 222.081 34.28C221.975 34.4533 221.821 34.54 221.621 34.54H220.041C219.895 34.54 219.781 34.5 219.701 34.42C219.635 34.34 219.601 34.2333 219.601 34.1C219.615 33.8867 219.701 33.6267 219.861 33.32C220.021 33.0133 220.275 32.72 220.621 32.44C220.968 32.1467 221.415 31.9 221.961 31.7C222.508 31.5 223.168 31.4 223.941 31.4C224.781 31.4 225.488 31.5067 226.061 31.72C226.648 31.92 227.115 32.1933 227.461 32.54C227.808 32.8867 228.061 33.2933 228.221 33.76C228.381 34.2267 228.461 34.72 228.461 35.24V41.52C228.461 41.6533 228.415 41.7667 228.321 41.86C228.228 41.9533 228.115 42 227.981 42H226.361C226.215 42 226.095 41.9533 226.001 41.86C225.921 41.7667 225.881 41.6533 225.881 41.52V40.74C225.708 40.9933 225.475 41.2333 225.181 41.46C224.888 41.6733 224.528 41.8533 224.101 42C223.688 42.1333 223.195 42.2 222.621 42.2ZM223.301 40.3C223.768 40.3 224.188 40.2 224.561 40C224.948 39.8 225.248 39.4933 225.461 39.08C225.688 38.6533 225.801 38.12 225.801 37.48V37.06L223.801 37.38C223.015 37.5 222.428 37.6933 222.041 37.96C221.655 38.2267 221.461 38.5533 221.461 38.94C221.461 39.2333 221.548 39.4867 221.721 39.7C221.908 39.9 222.141 40.0533 222.421 40.16C222.701 40.2533 222.995 40.3 223.301 40.3ZM231.527 45.8C231.394 45.8 231.28 45.7533 231.187 45.66C231.094 45.5667 231.047 45.4533 231.047 45.32V32.08C231.047 31.9467 231.094 31.8333 231.187 31.74C231.28 31.6467 231.394 31.6 231.527 31.6H233.107C233.254 31.6 233.367 31.6467 233.447 31.74C233.54 31.8333 233.587 31.9467 233.587 32.08V32.88C233.907 32.4533 234.327 32.1 234.847 31.82C235.367 31.54 236.014 31.4 236.787 31.4C237.494 31.4 238.107 31.5133 238.627 31.74C239.147 31.9667 239.58 32.2933 239.927 32.72C240.274 33.1333 240.54 33.6267 240.727 34.2C240.914 34.7733 241.02 35.4067 241.047 36.1C241.06 36.3267 241.067 36.56 241.067 36.8C241.067 37.04 241.06 37.28 241.047 37.52C241.034 38.1867 240.934 38.8067 240.747 39.38C240.56 39.94 240.287 40.4333 239.927 40.86C239.58 41.2733 239.147 41.6 238.627 41.84C238.107 42.08 237.494 42.2 236.787 42.2C236.067 42.2 235.454 42.0733 234.947 41.82C234.44 41.5533 234.027 41.2067 233.707 40.78V45.32C233.707 45.4533 233.66 45.5667 233.567 45.66C233.487 45.7533 233.374 45.8 233.227 45.8H231.527ZM236.047 40.06C236.62 40.06 237.067 39.94 237.387 39.7C237.707 39.4467 237.934 39.12 238.067 38.72C238.214 38.32 238.3 37.88 238.327 37.4C238.354 37 238.354 36.6 238.327 36.2C238.3 35.72 238.214 35.28 238.067 34.88C237.934 34.48 237.707 34.16 237.387 33.92C237.067 33.6667 236.62 33.54 236.047 33.54C235.5 33.54 235.054 33.6667 234.707 33.92C234.374 34.1733 234.127 34.5 233.967 34.9C233.82 35.2867 233.734 35.6867 233.707 36.1C233.694 36.34 233.687 36.5933 233.687 36.86C233.687 37.1267 233.694 37.3867 233.707 37.64C233.72 38.04 233.814 38.4267 233.987 38.8C234.16 39.16 234.414 39.46 234.747 39.7C235.08 39.94 235.514 40.06 236.047 40.06ZM246.492 42C246.346 42 246.226 41.9533 246.132 41.86C246.052 41.7667 246.012 41.6533 246.012 41.52V33.72H242.752C242.606 33.72 242.486 33.6733 242.392 33.58C242.312 33.4867 242.272 33.3733 242.272 33.24V32.08C242.272 31.9467 242.312 31.8333 242.392 31.74C242.486 31.6467 242.606 31.6 242.752 31.6H251.832C251.979 31.6 252.099 31.6467 252.192 31.74C252.286 31.8333 252.332 31.9467 252.332 32.08V33.24C252.332 33.3733 252.286 33.4867 252.192 33.58C252.099 33.6733 251.979 33.72 251.832 33.72H248.592V41.52C248.592 41.6533 248.546 41.7667 248.452 41.86C248.359 41.9533 248.246 42 248.112 42H246.492ZM258.518 42.2C257.451 42.2 256.551 42.0133 255.818 41.64C255.098 41.2667 254.544 40.74 254.158 40.06C253.784 39.38 253.571 38.5867 253.518 37.68C253.504 37.44 253.498 37.1467 253.498 36.8C253.498 36.4533 253.504 36.16 253.518 35.92C253.571 35 253.791 34.2067 254.178 33.54C254.578 32.86 255.138 32.3333 255.858 31.96C256.591 31.5867 257.478 31.4 258.518 31.4C259.558 31.4 260.438 31.5867 261.158 31.96C261.891 32.3333 262.451 32.86 262.838 33.54C263.238 34.2067 263.464 35 263.518 35.92C263.531 36.16 263.538 36.4533 263.538 36.8C263.538 37.1467 263.531 37.44 263.518 37.68C263.464 38.5867 263.244 39.38 262.858 40.06C262.484 40.74 261.931 41.2667 261.198 41.64C260.478 42.0133 259.584 42.2 258.518 42.2ZM258.518 40.22C259.224 40.22 259.771 40 260.158 39.56C260.544 39.1067 260.758 38.4467 260.798 37.58C260.811 37.38 260.818 37.12 260.818 36.8C260.818 36.48 260.811 36.22 260.798 36.02C260.758 35.1667 260.544 34.5133 260.158 34.06C259.771 33.6067 259.224 33.38 258.518 33.38C257.811 33.38 257.264 33.6067 256.878 34.06C256.491 34.5133 256.278 35.1667 256.238 36.02C256.224 36.22 256.218 36.48 256.218 36.8C256.218 37.12 256.224 37.38 256.238 37.58C256.278 38.4467 256.491 39.1067 256.878 39.56C257.264 40 257.811 40.22 258.518 40.22ZM266.214 42C266.094 42 265.987 41.9533 265.894 41.86C265.8 41.7667 265.754 41.66 265.754 41.54V32.08C265.754 31.9467 265.8 31.8333 265.894 31.74C265.987 31.6467 266.1 31.6 266.234 31.6H267.894C268.04 31.6 268.154 31.6467 268.234 31.74C268.327 31.8333 268.374 31.9467 268.374 32.08V39.98L267.674 39.48L273.174 31.92C273.24 31.8267 273.314 31.7533 273.394 31.7C273.474 31.6333 273.58 31.6 273.714 31.6H275.234C275.354 31.6 275.46 31.6467 275.554 31.74C275.647 31.82 275.694 31.92 275.694 32.04V41.52C275.694 41.6533 275.647 41.7667 275.554 41.86C275.46 41.9533 275.347 42 275.214 42H273.554C273.407 42 273.287 41.9533 273.194 41.86C273.114 41.7667 273.074 41.6533 273.074 41.52V33.98L273.814 34.08L268.274 41.68C268.22 41.76 268.147 41.8333 268.054 41.9C267.974 41.9667 267.867 42 267.734 42H266.214ZM270.834 30.24C270.034 30.24 269.394 30.1133 268.914 29.86C268.434 29.6067 268.087 29.28 267.874 28.88C267.674 28.4667 267.574 28.0267 267.574 27.56C267.574 27.4533 267.607 27.3667 267.674 27.3C267.74 27.22 267.834 27.18 267.954 27.18H269.094C269.214 27.18 269.307 27.22 269.374 27.3C269.44 27.3667 269.474 27.4533 269.474 27.56C269.474 27.8533 269.567 28.12 269.754 28.36C269.94 28.5867 270.3 28.7 270.834 28.7C271.394 28.7 271.76 28.5867 271.934 28.36C272.107 28.12 272.194 27.8533 272.194 27.56C272.194 27.4533 272.227 27.3667 272.294 27.3C272.36 27.22 272.454 27.18 272.574 27.18H273.734C273.854 27.18 273.947 27.22 274.014 27.3C274.08 27.3667 274.114 27.4533 274.114 27.56C274.114 28.0267 274.007 28.4667 273.794 28.88C273.58 29.28 273.234 29.6067 272.754 29.86C272.287 30.1133 271.647 30.24 270.834 30.24ZM281.655 38.24C281.548 38.24 281.455 38.2067 281.375 38.14C281.295 38.06 281.255 37.96 281.255 37.84C281.255 37.7333 281.255 37.6267 281.255 37.52C281.255 37.4133 281.255 37.3067 281.255 37.2C281.308 36.68 281.448 36.22 281.675 35.82C281.915 35.4067 282.188 35.0333 282.495 34.7C282.815 34.3533 283.128 34.0267 283.435 33.72C283.755 33.4133 284.021 33.1133 284.235 32.82C284.461 32.5133 284.595 32.2 284.635 31.88C284.675 31.4933 284.595 31.1667 284.395 30.9C284.208 30.6333 283.948 30.4333 283.615 30.3C283.295 30.1533 282.955 30.08 282.595 30.08C281.968 30.08 281.455 30.2333 281.055 30.54C280.655 30.8467 280.381 31.34 280.235 32.02C280.195 32.18 280.128 32.3 280.035 32.38C279.941 32.4467 279.815 32.48 279.655 32.48H277.955C277.835 32.48 277.728 32.44 277.635 32.36C277.555 32.2667 277.515 32.1467 277.515 32C277.528 31.4667 277.648 30.9533 277.875 30.46C278.115 29.9533 278.455 29.5 278.895 29.1C279.348 28.7 279.895 28.3867 280.535 28.16C281.175 27.92 281.908 27.8 282.735 27.8C283.641 27.8 284.401 27.92 285.015 28.16C285.641 28.3867 286.135 28.6867 286.495 29.06C286.868 29.4333 287.135 29.84 287.295 30.28C287.455 30.7067 287.528 31.1267 287.515 31.54C287.488 32.0467 287.375 32.5 287.175 32.9C286.975 33.3 286.728 33.6733 286.435 34.02C286.141 34.3533 285.841 34.6867 285.535 35.02C285.228 35.34 284.955 35.6667 284.715 36C284.488 36.3333 284.335 36.6867 284.255 37.06C284.228 37.18 284.208 37.3 284.195 37.42C284.181 37.5267 284.168 37.6333 284.155 37.74C284.101 37.9 284.035 38.0267 283.955 38.12C283.875 38.2 283.761 38.24 283.615 38.24H281.655ZM281.595 42C281.461 42 281.348 41.9533 281.255 41.86C281.161 41.7667 281.115 41.6533 281.115 41.52V39.78C281.115 39.6333 281.161 39.5133 281.255 39.42C281.348 39.3267 281.461 39.28 281.595 39.28H283.535C283.681 39.28 283.801 39.3267 283.895 39.42C283.988 39.5133 284.035 39.6333 284.035 39.78V41.52C284.035 41.6533 283.988 41.7667 283.895 41.86C283.801 41.9533 283.681 42 283.535 42H281.595Z" fill="#1E444B"/>
</g>
<defs>
<filter id="filter0_d_2889_866" x="0" y="0" width="314" height="70" filterUnits="userSpaceOnUse" color-interpolation-filters="sRGB">
<feFlood flood-opacity="0" result="BackgroundImageFix"/>
<feColorMatrix in="SourceAlpha" type="matrix" values="0 0 0 0 0 0 0 0 0 0 0 0 0 0 0 0 0 0 127 0" result="hardAlpha"/>
<feOffset/>
<feGaussianBlur stdDeviation="5"/>
<feComposite in2="hardAlpha" operator="out"/>
<feColorMatrix type="matrix" values="0 0 0 0 0 0 0 0 0 0 0 0 0 0 0 0 0 0 0.2 0"/>
<feBlend mode="normal" in2="BackgroundImageFix" result="effect1_dropShadow_2889_866"/>
<feBlend mode="normal" in="SourceGraphic" in2="effect1_dropShadow_2889_866" result="shape"/>
</filter>
</defs>
</svg>
