<svg width="120" height="50" viewBox="0 0 120 50" fill="none" xmlns="http://www.w3.org/2000/svg">
<path d="M105.221 14.9651C105.231 14.9651 105.244 14.9651 105.257 14.9651C105.604 14.9651 105.926 15.073 106.19 15.259L106.185 15.2556C106.378 15.4233 106.507 15.659 106.539 15.9246V15.9296C106.572 16.1321 106.59 16.3645 106.59 16.6019C106.59 16.7098 106.587 16.8161 106.579 16.9223V16.9074C106.205 20.84 104.585 30.3768 103.762 34.7792C103.413 36.6434 102.727 37.2676 102.063 37.3274C100.621 37.4618 99.5252 36.3745 98.1275 35.4582C95.9396 34.0222 94.7029 33.1292 92.5797 31.7297C90.1245 30.1145 91.7165 29.2231 93.1142 27.7722C93.4811 27.3904 99.8406 21.6052 99.9651 21.0807C99.9718 21.0491 99.9751 21.0143 99.9751 20.9778C99.9751 20.8483 99.927 20.7304 99.8489 20.6408C99.7626 20.5843 99.6547 20.5528 99.5418 20.5528C99.4671 20.5528 99.3958 20.5677 99.3293 20.5926L99.3327 20.591C99.1135 20.6408 95.6186 22.9504 88.8479 27.5199C88.1092 28.1026 87.1763 28.4711 86.1604 28.5143H86.1504C84.7112 28.34 83.4047 28.0196 82.1647 27.5631L82.2875 27.6029C80.7304 27.095 79.4937 26.8277 79.5999 25.9678C79.6564 25.5207 80.2728 25.0631 81.4492 24.595C88.6958 21.4376 93.5281 19.3565 95.9462 18.3516C98.6139 16.9356 101.707 15.7703 104.958 15.0149L105.219 14.9635L105.221 14.9651ZM94.9419 0C81.1604 0.0332005 70 11.2135 70 25C70 38.8064 81.1919 50 95 50C108.808 50 120 38.8081 120 25C120 11.2135 108.84 0.0332005 95.0614 0H95.0581C95.0194 0 94.9806 0 94.9419 0Z" fill="white"/>
<circle cx="25" cy="25" r="25" fill="white"/>
<path d="M9 16.016C9.25575 28.506 15.4895 36 26.4226 36H27.062V28.8582C31.0739 29.2586 34.111 32.205 35.3256 36H41C40.4181 33.8436 39.3862 31.8351 37.9728 30.1072C36.5594 28.3795 34.7964 26.9715 32.8002 25.9759C34.5891 24.8847 36.1341 23.4354 37.3386 21.719C38.5432 20.0025 39.3816 18.0557 39.8012 16H34.6543C33.5355 19.9712 30.2108 23.5739 27.062 23.9102V16.016H21.899V29.8511C18.7023 29.0503 14.6743 25.1753 14.4985 16.016H9Z" fill="#1E444B"/>
</svg>
