<svg width="174" height="72" viewBox="0 0 174 72" fill="none" xmlns="http://www.w3.org/2000/svg">
<path d="M137.727 36.0368C137.727 36.0368 134.293 45.5707 133.836 54.847C133.481 62.0619 134.614 67.9884 134.614 67.9884C134.614 67.9884 135.392 67.9997 136.689 67.5629C137.986 67.126 138.764 66.5322 138.764 66.5322C138.764 66.5322 140.061 61.3787 141.876 56.2252C143.001 53.0334 147.186 42.5685 147.186 42.5685C147.186 42.5685 147.074 52.2598 146.026 58.0289C145.529 60.7679 143.692 65.2438 143.692 65.2438C143.692 65.2438 145.29 65.1226 147.186 64.4708C149.434 63.6977 150.435 62.4094 150.435 62.4094C150.435 62.4094 149.312 57.8336 149.312 52.8754C149.312 46.496 152.251 34.4907 152.251 34.4907C152.251 34.4907 151.339 34.2886 150.128 34.4907C148.918 34.6929 147.535 35.3536 147.535 35.3536C147.535 35.3536 144.853 41.1702 143.173 45.4029C141.818 48.819 136.43 63.1824 136.43 63.1824C136.43 63.1824 137.884 50.7657 138.505 47.3744C139.542 41.7056 142.395 35.3536 142.395 35.3536C142.395 35.3536 141.098 35.1765 139.801 35.3536C138.505 35.5306 137.727 36.0368 137.727 36.0368Z" fill="#397998"/>
<path d="M154.585 34.2336C154.585 34.2336 155.461 33.9408 157.179 33.7323C158.897 33.5237 160.032 33.7323 160.032 33.7323C160.032 33.7323 158.237 36.0373 158.735 39.1294C159.233 42.2215 160.81 43.7676 160.81 43.7676C160.81 43.7676 163.428 40.6891 164.441 38.6141C165.431 36.5873 164.96 33.4606 164.96 33.4606C164.96 33.4606 166.592 33.2029 168.591 33.2029C172.222 33.2029 173 34.2336 173 34.2336C173 34.2336 171.703 34.8134 168.591 37.3257C164.441 40.6755 163.404 45.5713 163.404 45.5713C163.404 45.5713 163.404 46.4915 165.478 47.8904C167.323 49.134 171.703 47.375 171.703 47.375C171.703 47.375 170.474 49.9517 168.591 52.0131C167.283 53.4444 163.404 55.8782 163.404 55.8782C163.404 55.8782 165.219 53.5592 163.404 50.9824C162.149 49.2023 160.032 47.8904 160.032 47.8904C160.032 47.8904 157.061 49.4364 156.141 53.5592C155.221 57.682 160.032 57.682 160.032 57.682C160.032 57.682 158.887 58.8293 156.66 60.001C155.13 60.8057 152.51 61.5471 152.51 61.5471C152.51 61.5471 151.665 56.7034 152.51 52.7862C153.288 49.1787 157.179 45.0559 157.179 45.0559C157.179 45.0559 155.98 43.4169 155.104 41.1908C153.75 37.7517 154.585 34.2336 154.585 34.2336Z" fill="#397998"/>
<path fill-rule="evenodd" clip-rule="evenodd" d="M118.015 38.0986C118.015 38.0986 119.312 43.2521 118.793 52.5284C118.159 63.8684 115.94 70.5656 115.94 70.5656C115.94 70.5656 121.474 70.1414 124.499 69.7925C127.559 69.4396 132.28 68.5042 132.28 68.5042C132.28 68.5042 131.513 59.9221 131.783 54.6163C132.136 47.6921 135.392 36.2949 135.392 36.2949C135.392 36.2949 129.379 36.4606 126.055 36.8103C122.703 37.1629 118.015 38.0986 118.015 38.0986ZM129.686 41.4484C129.978 39.9024 122.424 40.089 122.424 41.9637C122.424 43.8385 122.365 48.6457 121.905 52.5284C121.32 57.4664 120.868 62.5777 120.349 65.9274C120.113 67.4504 127.871 67.0492 127.871 65.1544C127.871 61.547 127.825 58.2296 128.389 51.4977C128.908 45.3135 128.908 45.5712 129.686 41.4484Z" fill="#397998"/>
<path d="M148.576 5.03292C148.576 5.03292 149.139 8.9811 150.695 12.5885C152.251 16.196 155.043 18.7727 155.043 18.7727C155.043 18.7727 152.251 21.3495 152.251 25.4722C152.251 28.0419 153.548 31.1291 153.548 31.1291H159.169C159.169 31.1291 156.141 28.7646 156.141 25.2146C156.141 21.8648 158.216 20.0611 158.216 20.0611C158.216 20.0611 158.735 22.8955 161.588 26.2453C164.441 29.595 167.308 31.1291 167.308 31.1291H173C173 31.1291 169.408 28.822 165.738 25.4722C162.068 22.1225 162.068 20.0611 162.068 20.0611C162.068 20.0611 163.012 18.4057 164.7 17.742C166.011 17.2267 170.406 17.9997 170.406 17.9997C170.406 17.9997 168.85 16.196 166.516 14.1346C164.182 12.0732 161.588 11.0425 161.588 11.0425C161.588 11.0425 163.663 14.9076 161.588 16.196C159.501 17.4916 157.698 17.742 157.698 17.742C157.698 17.742 154.996 15.025 154.326 13.3616C152.251 8.20807 156.401 8.20807 156.401 8.20807C156.401 8.20807 154.657 7.11855 152.51 6.14668C151.233 5.56838 148.576 5.03292 148.576 5.03292Z" fill="#397998"/>
<path d="M124.758 1.76669C124.758 1.76669 126.823 5.20503 128.389 8.72389C129.946 12.2189 132.021 16.9451 134.095 24.442C135.296 28.7787 136.17 32.6876 136.17 32.6876C136.17 32.6876 136.689 32.9453 138.245 32.9453C139.801 32.9453 141.098 32.4299 141.098 32.4299L143.173 9.49692C143.173 9.49692 144.729 22.6383 145.507 27.0188C145.984 29.6992 146.286 31.9146 146.286 31.9146C146.286 31.9146 147.064 32.2581 148.62 32.1722C150.176 32.0863 151.213 31.6569 151.213 31.6569C151.213 31.6569 150.335 28.6397 148.62 21.8653C147.511 17.4848 146.026 4.60111 146.026 4.60111C146.026 4.60111 144.989 4.11605 143.173 3.82809C141.617 3.58126 140.642 3.74712 140.642 3.74712C140.642 3.74712 139.801 13.1044 139.283 16.4541C138.764 19.8039 138.245 24.442 138.245 24.442C138.245 24.442 135.588 15.0806 134.355 11.5583C132.28 5.6318 129.686 2.20679 129.686 2.20679C129.686 2.20679 128.055 1.85263 127.093 1.76669C126.13 1.68076 124.758 1.76669 124.758 1.76669Z" fill="#397998"/>
<path fill-rule="evenodd" clip-rule="evenodd" d="M106.862 2.797C106.862 2.797 109.083 6.36398 111.531 11.4732C113.315 15.1985 116.199 20.8342 117.756 26.7607C118.886 31.0648 119.052 34.4909 119.052 34.4909C119.052 34.4909 122.683 34.3972 127.352 33.9756C133.058 33.4602 133.836 32.9449 133.836 32.9449C133.836 32.9449 131.567 22.3814 129.686 17.2268C126.96 9.75418 121.646 1.25096 121.646 1.25096C121.646 1.25096 119.571 0.686297 114.643 1.25096C109.715 1.81563 106.862 2.797 106.862 2.797ZM118.534 17.9998C116.968 14.3936 113.227 7.41352 113.346 6.14677C113.466 4.88001 118.773 4.36467 119.83 5.63142C120.888 6.89817 123.202 10.7849 125.796 17.2268C127.663 21.8649 128.908 27.5337 128.908 29.3374C128.908 31.1412 123.721 31.6565 122.943 29.8528C122.165 28.0491 120.995 23.6686 118.534 17.9998Z" fill="#397998"/>
<path fill-rule="evenodd" clip-rule="evenodd" d="M83.779 39.1287C83.779 39.1287 80.601 43.2514 78.0729 50.2086C76.5141 54.4985 75.7386 58.508 74.1825 61.804C73.3222 63.626 72.3988 62.2021 72.1076 63.0924C71.688 64.3751 71.3295 64.6384 71.3295 64.6384C71.3295 64.6384 72.6263 65.1974 73.4044 65.4114C74.706 65.7694 75.998 66.304 75.998 66.304L76.5168 64.123L92.0786 68.1035L91.8192 69.5342C91.8192 69.5342 92.6505 69.8984 93.8941 70.0496C95.1219 70.1988 96.2284 70.3072 96.2284 70.3072C96.2284 70.3072 96.2155 69.3717 96.2284 68.1035C96.1977 67.1129 95.2563 68.0654 94.9315 66.6998C94.4128 64.5188 94.574 59.9694 95.4503 55.1045C96.4704 49.4404 100.378 38.6133 100.378 38.6133C100.378 38.6133 96.7408 38.6133 93.3754 38.6133C89.2255 38.6133 83.779 39.1287 83.779 39.1287ZM85.5945 43.2515C84.9003 43.9381 83.388 46.6915 81.9634 50.2086C80.4944 53.8352 79.475 59.0573 79.3697 60.0003C79.1623 61.8578 90.3402 63.9834 90.5224 61.2886C90.6116 59.9683 91.0725 56.1551 91.8192 52.7854C92.595 49.2845 93.9547 45.0552 94.4128 43.2515C94.871 41.4477 87.0045 41.8568 85.5945 43.2515Z" fill="#397998"/>
<path d="M76.2573 15.4225C75.7386 16.9685 75.002 20.0011 76.776 25.7294C77.8135 29.0792 80.6665 34.0953 85.0756 35.2634C90.9261 36.8133 101.675 35.521 101.675 35.521L98.8219 31.1406C98.8219 31.1406 94.3797 31.7848 92.5972 31.9136C90.8148 32.0424 88.4474 32.1713 86.3725 31.1406C84.2976 30.1099 82.2227 29.3369 80.4071 22.895C78.3361 15.5468 83.2601 12.8457 85.335 12.3304C89.2255 11.3641 90.7816 11.5574 90.7816 11.5574L88.9661 7.43457C88.9661 7.43457 84.1512 8.03476 81.1852 9.75364C78.0729 11.5574 76.776 13.8764 76.2573 15.4225Z" fill="#397998"/>
<path fill-rule="evenodd" clip-rule="evenodd" d="M94.6721 15.6827C96.86 21.3776 97.6256 22.9866 99.0813 25.9882C100.807 29.5469 104.269 35.2644 104.269 35.2644C104.269 35.2644 106.343 35.5047 110.234 35.2644C114.407 35.0067 116.459 34.4914 116.459 34.4914C116.459 34.4914 116.332 27.731 114.643 23.6691C112.954 19.6072 111.531 17.2272 109.715 15.9389C107.9 14.6505 105.825 15.4235 105.825 15.4235C105.825 15.4235 107.418 11.5584 106.862 9.49701C106.307 7.43562 106.084 6.14725 102.972 4.6012C101.39 3.81543 98.0947 3.91216 96.2283 4.34353C93.4101 4.99489 91.3003 6.40377 91.3003 6.40377C91.3003 6.40377 93.9406 13.7787 94.6721 15.6827ZM99.0813 16.7119C97.9754 15.8445 95.9483 9.65434 95.9341 8.46632C95.92 7.2783 99.3406 6.40377 101.156 7.17795C102.972 7.95212 104.528 11.5569 103.231 13.8775C102.527 15.1371 100.187 17.5793 99.0813 16.7119ZM105.968 31.3993C104.272 29.8606 101.156 23.1441 101.156 21.35C101.156 19.1854 106.499 18.9182 107.9 19.804C110.753 21.6077 112.985 29.409 112.309 30.884C111.803 31.9857 107.611 32.89 105.968 31.3993Z" fill="#397998"/>
<path fill-rule="evenodd" clip-rule="evenodd" d="M98.0437 57.1661C97.6235 62.8722 98.0437 69.0191 98.0437 69.0191C98.0437 69.0191 101.175 70.3704 105.047 70.8229C109.456 71.3382 112.568 70.5652 112.568 70.5652C112.568 70.5652 114.124 69.2768 115.162 63.8657C116.199 58.4545 115.421 56.3931 113.606 53.8164C111.79 51.2396 110.234 51.2396 110.234 51.2396C110.234 51.2396 113.309 50.2087 115.162 47.632C117.014 45.0552 116.977 40.9324 115.162 38.6134C114.01 37.1428 109.456 37.5999 107.64 37.8404C103.75 38.3557 103.281 39.1379 103.281 39.1379C103.281 39.1379 98.8218 46.6015 98.0437 57.1661ZM103.281 48.1473C103.75 46.3436 105.047 42.994 106.084 42.221C107.121 41.448 111.463 40.5938 112.568 42.221C113.673 43.8482 113.087 45.8282 110.753 47.632C109.608 48.5165 102.812 49.951 103.281 48.1473ZM101.675 64.8963C101.087 62.6905 101.783 55.4826 102.453 53.8164C103.281 51.755 109.456 53.301 110.753 56.6508C112.249 60.5159 110.828 65.5659 109.456 66.4424C108.431 67.0971 102.244 67.0333 101.675 64.8963Z" fill="#397998"/>
<path fill-rule="evenodd" clip-rule="evenodd" d="M30.7372 7.6997C30.7372 7.6997 31.4389 19.0184 31.256 23.9264C30.9966 30.8836 30.1123 35 29.3127 40.3354C28.0497 48.7626 23.2157 60.0075 23.2157 60.0075C23.2157 60.0075 23.4751 60.2652 25.2906 60.5229C27.1061 60.7806 28.1436 60.7806 28.1436 60.7806C28.1436 60.7806 30.7787 55.6271 32.034 50.4736C33.2894 45.3201 34.1828 40.2733 34.6277 38.8783C35.0726 37.4833 45.1337 38.8805 45.0022 40.4243C44.8707 41.9681 44.4835 46.8662 42.1492 53.0503C39.815 59.2345 37.7371 62.1422 37.7371 62.1422C37.7371 62.1422 39.023 62.5775 40.984 62.5775C42.3089 62.5775 44.0964 62.1422 44.0964 62.1422C44.0964 62.1422 48.7479 50.2161 49.9301 41.7127C50.3932 38.382 50.9771 33.4705 51.227 30.1173C51.7978 22.4569 50.5284 11.8157 50.5284 11.8157C50.5284 11.8157 48.2462 10.8362 41.5028 9.23895C35.3357 7.77822 30.7372 7.6997 30.7372 7.6997ZM45.521 33.2094C45.2445 34.4059 35.529 34 35.6651 32.4364C35.8013 30.8729 36.0561 29.8529 36.0561 23.9264C36.0561 17.9999 36.0561 14.9864 36.0561 13.3685C36.0561 11.7507 43.3167 13.7766 43.9659 14.9864C44.6151 16.1961 46.5584 18.2643 46.5584 23.9264C46.5584 27.9205 45.7975 32.013 45.521 33.2094Z" fill="#397998"/>
<path d="M16.9528 8.98142C16.9528 8.98142 9.43121 12.8465 5.80012 18C2.16903 23.1535 1.60961 27.5879 1.13177 31.9414C0.653929 36.2949 1.4223 41.4251 4.31697 46.3875C7.21164 51.35 10.9874 54.3321 10.9874 54.3321L13.1004 49.9582C13.1004 49.9582 8.27604 44.7076 6.87572 40.682C5.80012 37.5899 4.86815 33.9825 5.80012 33.4671C6.73209 32.9518 8.4319 34.8023 13.8785 35.7862C19.5845 36.8169 21.7492 35.876 22.1782 36.8169C22.6071 37.7577 21.737 43.2994 21.1407 45.3201C19.481 50.9442 16.4722 56.9154 16.4722 56.9154C16.4722 56.9154 16.9909 57.4308 18.5471 58.2038C20.1033 58.9768 21.1407 59.2345 21.1407 59.2345C21.1407 59.2345 22.519 56.154 23.1775 54.3321C24.532 50.5843 25.3114 48.4446 26.2898 44.5404C27.3828 40.1791 27.9114 36.6433 28.3648 32.1721C28.7688 28.187 28.9216 25.3549 28.9216 21.3498L28.3648 7.95733C28.3648 7.95733 27.8842 7.6999 25.5499 7.6997C23.6115 7.69953 22.6969 7.95733 22.6969 7.95733C22.6969 7.95733 24.2531 16.1724 24.2531 20.5834C24.2531 24.7426 24.0524 30.0667 23.2156 30.7283C22.3788 31.39 19.1299 32.4364 14.3973 31.4057C10.1038 30.4707 7.54832 28.829 6.87572 27.7983C6.20311 26.7676 8.17253 21.8718 11.2849 18.7797C14.3973 15.6876 18.0284 13.8839 18.0284 13.8839L16.9528 8.98142Z" fill="#397998"/>
<path d="M28.3648 7.95733C28.3648 7.95733 28.9216 15.4929 28.9216 21.3498M28.3648 7.95733L28.9216 21.3498M28.3648 7.95733C28.3648 7.95733 27.8842 7.6999 25.5499 7.6997C23.6115 7.69953 22.6969 7.95733 22.6969 7.95733C22.6969 7.95733 24.2531 16.1724 24.2531 20.5834C24.2531 24.7426 24.0524 30.0667 23.2156 30.7283C22.3788 31.39 19.1299 32.4364 14.3973 31.4057C10.1038 30.4707 7.54832 28.829 6.87572 27.7983C6.20311 26.7676 8.17253 21.8718 11.2849 18.7797C14.3973 15.6876 18.0284 13.8839 18.0284 13.8839L16.9528 8.98142C16.9528 8.98142 9.43121 12.8465 5.80012 18C2.16903 23.1535 1.60961 27.5879 1.13177 31.9414C0.653929 36.2949 1.4223 41.4251 4.31697 46.3875C7.21164 51.35 10.9874 54.3321 10.9874 54.3321L13.1004 49.9582C13.1004 49.9582 8.27604 44.7076 6.87572 40.682C5.80012 37.5899 4.86815 33.9825 5.80012 33.4671C6.73209 32.9518 8.4319 34.8023 13.8785 35.7862C19.5845 36.8169 21.7492 35.876 22.1782 36.8169C22.6071 37.7577 21.737 43.2994 21.1407 45.3201C19.481 50.9442 16.4722 56.9154 16.4722 56.9154C16.4722 56.9154 16.9909 57.4308 18.5471 58.2038C20.1033 58.9768 21.1407 59.2345 21.1407 59.2345C21.1407 59.2345 22.519 56.154 23.1775 54.3321C24.532 50.5843 25.3114 48.4446 26.2898 44.5404C27.3828 40.1791 27.9114 36.6433 28.3648 32.1721C28.7688 28.187 28.9216 25.3549 28.9216 21.3498M137.727 36.0368C137.727 36.0368 134.293 45.5707 133.836 54.847C133.481 62.0619 134.614 67.9884 134.614 67.9884C134.614 67.9884 135.392 67.9997 136.689 67.5629C137.986 67.126 138.764 66.5322 138.764 66.5322C138.764 66.5322 140.061 61.3787 141.876 56.2252C143.001 53.0334 147.186 42.5685 147.186 42.5685C147.186 42.5685 147.074 52.2598 146.026 58.0289C145.529 60.7679 143.692 65.2438 143.692 65.2438C143.692 65.2438 145.29 65.1226 147.186 64.4708C149.434 63.6977 150.435 62.4094 150.435 62.4094C150.435 62.4094 149.312 57.8336 149.312 52.8754C149.312 46.496 152.251 34.4907 152.251 34.4907C152.251 34.4907 151.339 34.2886 150.128 34.4907C148.918 34.6929 147.535 35.3536 147.535 35.3536C147.535 35.3536 144.853 41.1702 143.173 45.4029C141.818 48.819 136.43 63.1824 136.43 63.1824C136.43 63.1824 137.884 50.7657 138.505 47.3744C139.542 41.7056 142.395 35.3536 142.395 35.3536C142.395 35.3536 141.098 35.1765 139.801 35.3536C138.505 35.5306 137.727 36.0368 137.727 36.0368ZM154.585 34.2336C154.585 34.2336 153.75 37.7517 155.104 41.1908C155.98 43.4169 157.179 45.0559 157.179 45.0559C157.179 45.0559 153.288 49.1787 152.51 52.7862C151.665 56.7034 152.51 61.5471 152.51 61.5471C152.51 61.5471 155.13 60.8057 156.66 60.001C158.887 58.8293 160.032 57.682 160.032 57.682C160.032 57.682 155.221 57.682 156.141 53.5592C157.061 49.4364 160.032 47.8904 160.032 47.8904C160.032 47.8904 162.149 49.2023 163.404 50.9824C165.219 53.5592 163.404 55.8782 163.404 55.8782C163.404 55.8782 167.283 53.4444 168.591 52.0131C170.474 49.9517 171.703 47.375 171.703 47.375C171.703 47.375 167.323 49.134 165.478 47.8904C163.404 46.4915 163.404 45.5713 163.404 45.5713C163.404 45.5713 164.441 40.6755 168.591 37.3257C171.703 34.8134 173 34.2336 173 34.2336C173 34.2336 172.222 33.2029 168.591 33.2029C166.592 33.2029 164.96 33.4606 164.96 33.4606C164.96 33.4606 165.431 36.5873 164.441 38.6141C163.428 40.6891 160.81 43.7676 160.81 43.7676C160.81 43.7676 159.233 42.2215 158.735 39.1294C158.237 36.0373 160.032 33.7323 160.032 33.7323C160.032 33.7323 158.897 33.5237 157.179 33.7323C155.461 33.9408 154.585 34.2336 154.585 34.2336ZM118.015 38.0986C118.015 38.0986 119.312 43.2521 118.793 52.5284C118.159 63.8684 115.94 70.5656 115.94 70.5656C115.94 70.5656 121.474 70.1414 124.499 69.7925C127.559 69.4396 132.28 68.5042 132.28 68.5042C132.28 68.5042 131.513 59.9221 131.783 54.6163C132.136 47.6921 135.392 36.2949 135.392 36.2949C135.392 36.2949 129.379 36.4606 126.055 36.8103C122.703 37.1629 118.015 38.0986 118.015 38.0986ZM122.424 41.9637C122.424 40.089 129.978 39.9024 129.686 41.4484C128.908 45.5712 128.908 45.3135 128.389 51.4977C127.825 58.2296 127.871 61.547 127.871 65.1544C127.871 67.0492 120.113 67.4504 120.349 65.9274C120.868 62.5777 121.32 57.4664 121.905 52.5284C122.365 48.6457 122.424 43.8385 122.424 41.9637ZM148.576 5.03292C148.576 5.03292 149.139 8.9811 150.695 12.5885C152.251 16.196 155.043 18.7727 155.043 18.7727C155.043 18.7727 152.251 21.3495 152.251 25.4722C152.251 28.0419 153.548 31.1291 153.548 31.1291H159.169C159.169 31.1291 156.141 28.7646 156.141 25.2146C156.141 21.8648 158.216 20.0611 158.216 20.0611C158.216 20.0611 158.735 22.8955 161.588 26.2453C164.441 29.595 167.308 31.1291 167.308 31.1291H173C173 31.1291 169.408 28.822 165.738 25.4722C162.068 22.1225 162.068 20.0611 162.068 20.0611C162.068 20.0611 163.012 18.4057 164.7 17.742C166.011 17.2267 170.406 17.9997 170.406 17.9997C170.406 17.9997 168.85 16.196 166.516 14.1346C164.182 12.0732 161.588 11.0425 161.588 11.0425C161.588 11.0425 163.663 14.9076 161.588 16.196C159.501 17.4916 157.698 17.742 157.698 17.742C157.698 17.742 154.996 15.025 154.326 13.3616C152.251 8.20807 156.401 8.20807 156.401 8.20807C156.401 8.20807 154.657 7.11855 152.51 6.14668C151.233 5.56838 148.576 5.03292 148.576 5.03292ZM124.758 1.76669C124.758 1.76669 126.823 5.20503 128.389 8.72389C129.946 12.2189 132.021 16.9451 134.095 24.442C135.296 28.7787 136.17 32.6876 136.17 32.6876C136.17 32.6876 136.689 32.9453 138.245 32.9453C139.801 32.9453 141.098 32.4299 141.098 32.4299L143.173 9.49692C143.173 9.49692 144.729 22.6383 145.507 27.0188C145.984 29.6992 146.286 31.9146 146.286 31.9146C146.286 31.9146 147.064 32.2581 148.62 32.1722C150.176 32.0863 151.213 31.6569 151.213 31.6569C151.213 31.6569 150.335 28.6397 148.62 21.8653C147.511 17.4848 146.026 4.60111 146.026 4.60111C146.026 4.60111 144.989 4.11605 143.173 3.82809C141.617 3.58126 140.642 3.74712 140.642 3.74712C140.642 3.74712 139.801 13.1044 139.283 16.4541C138.764 19.8039 138.245 24.442 138.245 24.442C138.245 24.442 135.588 15.0806 134.355 11.5583C132.28 5.6318 129.686 2.20679 129.686 2.20679C129.686 2.20679 128.055 1.85263 127.093 1.76669C126.13 1.68076 124.758 1.76669 124.758 1.76669ZM106.862 2.797C106.862 2.797 109.083 6.36398 111.531 11.4732C113.315 15.1985 116.199 20.8342 117.756 26.7607C118.886 31.0648 119.052 34.4909 119.052 34.4909C119.052 34.4909 122.683 34.3972 127.352 33.9756C133.058 33.4602 133.836 32.9449 133.836 32.9449C133.836 32.9449 131.567 22.3814 129.686 17.2268C126.96 9.75418 121.646 1.25096 121.646 1.25096C121.646 1.25096 119.571 0.686297 114.643 1.25096C109.715 1.81563 106.862 2.797 106.862 2.797ZM113.346 6.14677C113.227 7.41352 116.968 14.3936 118.534 17.9998C120.995 23.6686 122.165 28.0491 122.943 29.8528C123.721 31.6565 128.908 31.1412 128.908 29.3374C128.908 27.5337 127.663 21.8649 125.796 17.2268C123.202 10.7849 120.888 6.89817 119.83 5.63142C118.773 4.36467 113.466 4.88001 113.346 6.14677ZM83.779 39.1287C83.779 39.1287 80.601 43.2514 78.0729 50.2086C76.5141 54.4985 75.7387 58.508 74.1825 61.804C73.3222 63.626 72.3988 62.2021 72.1076 63.0924C71.688 64.3751 71.3295 64.6384 71.3295 64.6384C71.3295 64.6384 72.6263 65.1974 73.4044 65.4114C74.706 65.7694 75.998 66.304 75.998 66.304L76.5168 64.123L92.0786 68.1035L91.8192 69.5342C91.8192 69.5342 92.6505 69.8984 93.8941 70.0496C95.1219 70.1988 96.2284 70.3072 96.2284 70.3072C96.2284 70.3072 96.2155 69.3717 96.2284 68.1035C96.1977 67.1129 95.2563 68.0654 94.9315 66.6998C94.4128 64.5188 94.574 59.9694 95.4503 55.1045C96.4704 49.4404 100.378 38.6133 100.378 38.6133C100.378 38.6133 96.7408 38.6133 93.3754 38.6133C89.2255 38.6133 83.779 39.1287 83.779 39.1287ZM79.3697 60.0003C79.1623 61.8578 90.3402 63.9834 90.5224 61.2886C90.6116 59.9683 91.0725 56.1551 91.8192 52.7854C92.595 49.2845 93.9547 45.0552 94.4128 43.2515C94.871 41.4477 87.0045 41.8568 85.5945 43.2515C84.9003 43.9381 83.388 46.6915 81.9634 50.2086C80.4944 53.8352 79.475 59.0573 79.3697 60.0003ZM76.2573 15.4225C75.7386 16.9685 75.002 20.0011 76.776 25.7294C77.8135 29.0792 80.6665 34.0953 85.0756 35.2634C90.9261 36.8133 101.675 35.521 101.675 35.521L98.8219 31.1406C98.8219 31.1406 94.3797 31.7848 92.5972 31.9136C90.8148 32.0424 88.4474 32.1713 86.3725 31.1406C84.2976 30.1099 82.2227 29.3369 80.4071 22.895C78.3361 15.5468 83.2601 12.8457 85.335 12.3304C89.2255 11.3641 90.7816 11.5574 90.7816 11.5574L88.9661 7.43457C88.9661 7.43457 84.1512 8.03476 81.1852 9.75364C78.0729 11.5574 76.776 13.8764 76.2573 15.4225ZM91.3003 6.40377C91.3003 6.40377 93.4101 4.99489 96.2283 4.34353C98.0947 3.91216 101.39 3.81543 102.972 4.6012C106.084 6.14725 106.307 7.43562 106.862 9.49701C107.418 11.5584 105.825 15.4235 105.825 15.4235C105.825 15.4235 107.9 14.6505 109.715 15.9389C111.531 17.2272 112.954 19.6072 114.643 23.6691C116.332 27.731 116.459 34.4914 116.459 34.4914C116.459 34.4914 114.407 35.0067 110.234 35.2644C106.343 35.5047 104.269 35.2644 104.269 35.2644C104.269 35.2644 100.807 29.5469 99.0813 25.9882C97.6256 22.9866 96.86 21.3776 94.6721 15.6827C93.9406 13.7787 91.3003 6.40377 91.3003 6.40377ZM95.9341 8.46632C95.9483 9.65434 97.9754 15.8445 99.0813 16.7119C100.187 17.5793 102.527 15.1371 103.231 13.8775C104.528 11.5569 102.972 7.95212 101.156 7.17795C99.3406 6.40377 95.92 7.2783 95.9341 8.46632ZM101.156 21.35C101.156 23.1441 104.272 29.8606 105.968 31.3993C107.611 32.89 111.803 31.9857 112.309 30.884C112.985 29.409 110.753 21.6077 107.9 19.804C106.499 18.9182 101.156 19.1854 101.156 21.35ZM103.281 39.1379C103.281 39.1379 103.75 38.3557 107.64 37.8404C109.456 37.5999 114.01 37.1428 115.162 38.6134C116.977 40.9324 117.014 45.0552 115.162 47.632C113.309 50.2087 110.234 51.2396 110.234 51.2396C110.234 51.2396 111.79 51.2396 113.606 53.8164C115.421 56.3931 116.199 58.4545 115.162 63.8657C114.124 69.2768 112.568 70.5652 112.568 70.5652C112.568 70.5652 109.456 71.3382 105.047 70.8229C101.175 70.3704 98.0437 69.0191 98.0437 69.0191C98.0437 69.0191 97.6235 62.8722 98.0437 57.1661C98.8218 46.6015 103.281 39.1379 103.281 39.1379ZM106.084 42.221C105.047 42.9941 103.75 46.3436 103.281 48.1473C102.812 49.951 109.608 48.5165 110.753 47.632C113.087 45.8282 113.673 43.8482 112.568 42.221C111.463 40.5938 107.121 41.448 106.084 42.221ZM102.453 53.8164C101.783 55.4826 101.087 62.6905 101.675 64.8963C102.244 67.0333 108.431 67.0971 109.456 66.4424C110.828 65.5659 112.249 60.5159 110.753 56.6508C109.456 53.301 103.281 51.755 102.453 53.8164ZM30.7372 7.6997C30.7372 7.6997 31.4389 19.0184 31.256 23.9264C30.9966 30.8836 30.1123 35 29.3127 40.3354C28.0497 48.7626 23.2157 60.0075 23.2157 60.0075C23.2157 60.0075 23.4751 60.2652 25.2906 60.5229C27.1061 60.7806 28.1436 60.7806 28.1436 60.7806C28.1436 60.7806 30.7787 55.6271 32.034 50.4736C33.2894 45.3201 34.1828 40.2733 34.6277 38.8783C35.0726 37.4833 45.1337 38.8805 45.0022 40.4243C44.8707 41.9681 44.4835 46.8662 42.1492 53.0503C39.815 59.2345 37.7371 62.1422 37.7371 62.1422C37.7371 62.1422 39.023 62.5775 40.984 62.5775C42.3089 62.5775 44.0964 62.1422 44.0964 62.1422C44.0964 62.1422 48.7479 50.2161 49.9301 41.7127C50.3932 38.382 50.9771 33.4705 51.227 30.1173C51.7978 22.4569 50.5284 11.8157 50.5284 11.8157C50.5284 11.8157 48.2462 10.8362 41.5028 9.23895C35.3357 7.77822 30.7372 7.6997 30.7372 7.6997ZM36.0561 13.3685C36.0561 11.7507 43.3167 13.7766 43.9659 14.9864C44.6151 16.1961 46.5584 18.2643 46.5584 23.9264C46.5584 27.9205 45.7975 32.013 45.521 33.2094C45.2445 34.4059 35.529 34 35.6651 32.4364C35.8013 30.8729 36.0561 29.8529 36.0561 23.9264C36.0561 17.9999 36.0561 14.9864 36.0561 13.3685Z" stroke="#397998" stroke-linecap="round" stroke-linejoin="round"/>
</svg>
