<svg width="14" height="14" viewBox="0 0 14 14" fill="none" xmlns="http://www.w3.org/2000/svg">
<path fill-rule="evenodd" clip-rule="evenodd" d="M2.45622 2.41958C2.3744 2.37166 2.30881 2.30377 2.26634 2.22302C2.22386 2.14228 2.20607 2.05167 2.21484 1.96072C2.22361 1.86978 2.25861 1.78184 2.31616 1.70617C2.37372 1.63049 2.4517 1.56987 2.54191 1.53066L5.80934 0.10948C5.89355 0.0728827 5.98562 0.0561724 6.07708 0.060886C6.16855 0.0655996 6.25646 0.0915858 6.33274 0.136454C6.40901 0.181322 6.47121 0.243632 6.5136 0.317651C6.55599 0.39167 6.57721 0.475022 6.57531 0.56004L6.49973 3.8593C6.4976 3.95018 6.46912 4.03971 6.41729 4.11851C6.36545 4.19732 6.29217 4.2625 6.20509 4.30724C6.11802 4.35199 6.02036 4.37464 5.92234 4.37284C5.82432 4.37104 5.72954 4.34484 5.64792 4.297L2.45536 2.41908L2.45622 2.41958ZM9.89259 13.5399C10.4816 13.4134 11.0003 13.0771 11.3347 12.605C11.669 12.1328 11.7915 11.5635 11.6753 11.0222C11.5591 10.4809 11.2137 10.012 10.715 9.71872C10.2163 9.42539 9.60527 9.33165 9.01626 9.4581C8.42725 9.58456 7.90853 9.92086 7.5742 10.393C7.23988 10.8652 7.11735 11.4345 7.23356 11.9758C7.34977 12.5171 7.6952 12.986 8.19387 13.2793C8.69253 13.5726 9.30358 13.6664 9.89259 13.5399ZM3.23907 4.50563C3.07823 4.41105 2.88115 4.38083 2.69119 4.42161C2.50122 4.4624 2.33392 4.57085 2.22607 4.72311L0.901552 6.59287C0.67479 6.91309 0.516866 7.26937 0.436798 7.64136C0.356731 8.01335 0.356087 8.39376 0.434904 8.76088C0.51372 9.12799 0.670454 9.47461 0.896155 9.78096C1.12186 10.0873 1.4121 10.3474 1.75032 10.5463L1.75361 10.5476C2.43764 10.9488 3.27521 11.0766 4.0824 10.9029C4.88959 10.7293 5.60042 10.2683 6.05881 9.62129L9.51208 4.74424C10.0181 4.02954 11.039 3.81036 11.7936 4.25305C12.5464 4.69472 12.7481 5.63075 12.2446 6.34352L12.2433 6.34449L11.2255 7.78202C11.1175 7.93433 11.0779 8.11801 11.1154 8.29267C11.1528 8.46733 11.2642 8.61865 11.425 8.71334C11.5859 8.80803 11.783 8.83834 11.9731 8.79761C12.1631 8.75687 12.3306 8.64841 12.4385 8.49611L13.4563 7.05858L13.4586 7.05533C13.9156 6.40821 14.0824 5.62836 13.9223 4.88731C13.7622 4.14625 13.2884 3.50466 12.605 3.10364C11.921 2.70245 11.0834 2.57466 10.2762 2.74835C9.46902 2.92203 8.75819 3.38299 8.29979 4.03L4.84581 8.9072C4.34047 9.62175 3.31958 9.84093 2.56404 9.39708C2.20305 9.18453 1.953 8.84497 1.86885 8.45302C1.7847 8.06107 1.87333 7.64879 2.11527 7.3068L3.43893 5.43654C3.54673 5.28425 3.58624 5.10062 3.54876 4.92605C3.51128 4.75148 3.39989 4.60025 3.23907 4.50563Z" fill="#1E444B"/>
</svg>
