<svg width="1550" height="264" viewBox="0 0 1550 264" fill="none" xmlns="http://www.w3.org/2000/svg">
<path d="M57 17.0002L8.39665 2.86109C5.19739 1.93039 2 4.33019 2 7.66206V36.0002L57 17.0002Z" fill="white"/>
<path d="M1548 103C1548 100.239 1545.76 98.0002 1543 98.0002H1492.5L1503.4 108.902C1505.38 110.879 1505.35 114.093 1503.34 116.035L1492.5 126.5H1548V103Z" fill="white"/>
<path d="M1548 126.5V204.5C1548 207.262 1545.76 209.5 1543 209.5H1539.14C1537.77 209.5 1536.47 208.942 1535.52 207.956L1516.48 188.044C1515.53 187.058 1514.23 186.5 1512.86 186.5H1501.66C1500.28 186.5 1498.96 185.93 1498.02 184.925L1453.07 137.103C1452.69 136.704 1452.38 136.246 1452.16 135.747L1437.39 103.263C1436.13 100.488 1432.7 99.4782 1430.14 101.127L1426.33 103.574C1423.61 105.321 1419.97 104.07 1418.91 101.02L1408.17 70.3485C1407.47 68.3431 1405.58 67.0002 1403.45 67.0002H1391.88C1390.67 67.0002 1389.5 66.5623 1388.59 65.7674L1368.4 48.1462C1365.64 45.7449 1361.33 47.0075 1360.31 50.5133L1355.63 66.5674C1355.54 66.8554 1355.43 67.1352 1355.3 67.4035L1350.27 77.4504C1349.24 79.5293 1346.9 80.6178 1344.64 80.0772L1327.5 75.978C1326.22 75.6719 1324.87 75.8828 1323.74 76.5649L1311.41 84.0417C1309.91 84.9473 1308.05 85.0072 1306.5 84.1997L1278.72 69.7191C1275.98 68.2942 1272.62 69.6595 1271.66 72.5877L1259.38 109.82C1258.84 111.484 1257.46 112.739 1255.75 113.129L1225.28 120.094C1224.13 120.356 1223.11 121.016 1222.4 121.957L1204.82 145.258C1203.24 147.363 1200.29 147.873 1198.08 146.424L1188.17 139.899C1185.51 138.15 1181.91 139.298 1180.76 142.264L1176.96 152.03C1176.36 153.575 1175.03 154.722 1173.42 155.092L1136.87 163.458C1135.37 163.801 1134.12 164.809 1133.46 166.195L1122.85 188.637C1122.03 190.385 1120.27 191.5 1118.33 191.5H1103.49C1102.21 191.5 1100.98 191.988 1100.06 192.863L1060.39 230.271C1058.7 231.868 1056.13 232.085 1054.19 230.793L1036.71 219.139C1035.61 218.409 1034.28 218.14 1032.98 218.39L1022.18 220.481C1020.51 220.805 1018.79 220.256 1017.61 219.025L1011.22 212.327C1009.87 210.91 1007.81 210.413 1005.96 211.057L988.66 217.075C987.009 217.649 985.177 217.319 983.83 216.204L958.072 194.887C957.371 194.307 956.841 193.546 956.54 192.687L948.698 170.279C947.76 167.6 944.212 167.051 942.509 169.322V169.322C940.91 171.453 937.622 171.13 936.47 168.729L934.871 165.399C933.797 163.16 931.242 162.05 928.872 162.79L927.706 163.154C926.028 163.679 924.197 163.283 922.885 162.112L915.062 155.127C912.877 153.176 909.49 153.513 907.732 155.857L906.795 157.106C905.028 159.463 901.615 159.789 899.434 157.808L856.852 119.136C855.417 117.833 853.357 117.476 851.567 118.222L841.423 122.449C838.757 123.56 835.707 122.187 834.77 119.455L832.467 112.739C831.448 109.764 827.968 108.458 825.243 110.027L799.91 124.613C798.411 125.476 796.574 125.503 795.05 124.685L712.825 80.5531C710.631 79.3755 707.904 79.9919 706.43 81.999L623.13 195.42C621.63 197.462 618.839 198.059 616.635 196.81L612.965 194.73C609.632 192.842 605.5 195.249 605.5 199.081V213C605.5 215.762 603.261 218 600.5 218H590.472C588.146 218 586.128 219.604 585.602 221.87L582.326 235.982C581.382 240.045 576.171 241.235 573.558 237.983L561.249 222.666C559.296 220.236 555.62 220.166 553.576 222.52L521.623 259.327C519.683 261.561 516.239 261.632 514.209 259.48L502.02 246.552C501.675 246.186 501.277 245.875 500.84 245.628L472.498 229.628C471.23 228.912 469.712 228.785 468.342 229.28L436.366 240.826C435.167 241.259 433.849 241.218 432.68 240.711L406.639 229.427C405.283 228.84 403.737 228.882 402.415 229.543L393.095 234.203C391.49 235.005 389.579 234.886 388.086 233.891L383.292 230.695C381.363 229.409 378.802 229.618 377.107 231.2L376.445 231.818C374.317 233.805 370.948 233.56 369.129 231.287L361.487 221.734C359.816 219.645 356.798 219.242 354.637 220.817L340.435 231.173C337.585 233.251 333.538 231.805 332.65 228.392L325.974 202.741C325.4 200.538 323.411 199 321.135 199H308.894C306.845 199 305.003 197.75 304.247 195.846L279.37 133.225C278.027 129.843 273.636 128.983 271.116 131.608L270.656 132.088C267.956 134.901 263.218 133.678 262.217 129.91L254.168 99.6315C254.056 99.2125 254 98.7807 254 98.347V83.5002C254 80.7388 251.761 78.5002 249 78.5002H226.613C225.564 78.5002 224.542 78.1706 223.691 77.5579L203.047 62.6938C201.242 61.3942 198.795 61.4432 197.044 62.814L182.136 74.481C180.05 76.1133 177 74.6272 177 71.9787V71.9787C177 69.6567 174.591 68.1189 172.484 69.0967L165.786 72.2068C164.077 73.0002 162.067 72.7656 160.587 71.5999L128.069 45.9917C125.501 43.9701 121.717 44.914 120.399 47.9044L87.3146 123.016C86.5157 124.83 84.7208 126 82.7388 126H59.2153C57.8046 126 56.4595 126.596 55.5117 127.641L42.0093 142.528C39.7608 145.008 35.7588 144.621 34.027 141.756L29.4514 134.189C27.3618 130.733 22.2491 131.052 20.6055 134.741L11.5672 155.027C9.37039 159.958 2 158.39 2 152.992V36.0002M1548 126.5V103C1548 100.239 1545.76 98.0002 1543 98.0002H1492.5L1503.4 108.902C1505.38 110.879 1505.35 114.093 1503.34 116.035L1492.5 126.5H1548ZM2 36.0002V7.66206C2 4.33019 5.19739 1.93039 8.39665 2.86109L57 17.0002L2 36.0002Z" stroke="white" stroke-width="4" stroke-linecap="round" stroke-linejoin="round"/>
</svg>
