<svg width="40" height="40" viewBox="0 0 40 40" fill="none" xmlns="http://www.w3.org/2000/svg">
<path d="M36.9426 39.0639C37.5302 39.6479 38.4799 39.645 39.0639 39.0574C39.6479 38.4698 39.645 37.5201 39.0574 36.9361L36.9426 39.0639ZM30.9785 17.1463C30.9785 24.6744 24.8359 30.7927 17.2393 30.7927V33.7927C26.4754 33.7927 33.9785 26.3485 33.9785 17.1463H30.9785ZM17.2393 30.7927C9.64262 30.7927 3.5 24.6744 3.5 17.1463H0.5C0.5 26.3485 8.00309 33.7927 17.2393 33.7927V30.7927ZM3.5 17.1463C3.5 9.61831 9.64262 3.5 17.2393 3.5V0.5C8.00309 0.5 0.5 7.94418 0.5 17.1463H3.5ZM17.2393 3.5C24.8359 3.5 30.9785 9.61831 30.9785 17.1463H33.9785C33.9785 7.94418 26.4754 0.5 17.2393 0.5V3.5ZM26.7831 28.9663L36.9426 39.0639L39.0574 36.9361L28.8979 26.8385L26.7831 28.9663Z" fill="#397998"/>
</svg>
