<svg width="60" height="24" viewBox="0 0 60 24" fill="none" xmlns="http://www.w3.org/2000/svg">
<path d="M5.93578 11.9198L8.50241 15.1189L12.1925 14.7955L10.3174 18.0857L11.8387 21.9031L7.85995 20.8822L4.65086 23.4463L4.47723 19.3396L1.41077 17.1102L4.90849 15.8905L5.93578 11.9198Z" fill="#F0A54E"/>
<path d="M17.3165 9.4764L19.8831 12.6756L23.5733 12.3521L21.6981 15.6424L23.2194 19.4597L19.2407 18.4388L16.0316 21.0029L15.858 16.8962L12.7915 14.6669L16.2892 13.4472L17.3165 9.4764Z" fill="#F0A54E"/>
<path d="M28.6974 7.03304L31.264 10.2322L34.9541 9.90876L33.0789 13.199L34.6003 17.0164L30.6215 15.9955L27.4124 18.5596L27.2388 14.4528L24.1724 12.2235L27.6701 11.0038L28.6974 7.03304Z" fill="#F0A54E"/>
<path d="M51.8618 2.05965L54.4285 5.25884L58.1186 4.93537L56.2434 8.22562L57.7648 12.043L53.786 11.0221L50.5769 13.5862L50.4033 9.47946L47.3368 7.25014L50.8345 6.03043L51.8618 2.05965Z" fill="white"/>
<mask id="mask0_2820_541" style="mask-type:alpha" maskUnits="userSpaceOnUse" x="35" y="4" width="12" height="13">
<path d="M40.1857 4.56649L42.7524 7.76567L46.4425 7.4422L44.5673 10.7325L46.0887 14.5498L42.1099 13.5289L38.9008 16.093L38.7272 11.9863L35.6607 9.75697L39.1585 8.53726L40.1857 4.56649Z" fill="#F2F2F2"/>
</mask>
<g mask="url(#mask0_2820_541)">
<path d="M40.1857 4.56649L42.7524 7.76567L46.4425 7.4422L44.5673 10.7325L46.0887 14.5498L42.1099 13.5289L38.9008 16.093L38.7272 11.9863L35.6607 9.75697L39.1585 8.53726L40.1857 4.56649Z" fill="#F0A54E"/>
<rect x="39.2151" y="0.0456543" width="5.51373" height="10.4172" transform="rotate(-12.1171 39.2151 0.0456543)" fill="#F0A54E"/>
</g>
</svg>
