<?xml version="1.0" standalone="no"?>
  <!DOCTYPE svg PUBLIC "-//W3C//DTD SVG 1.1//EN" "http://www.w3.org/Graphics/SVG/1.1/DTD/svg11.dtd" >
  <svg>
  <metadata>
  Created by font-carrier
  </metadata>
  <defs>
  <font id="Rubik-MediumItalic" horiz-adv-x="1221" vert-adv-y="1221" >
    <font-face
      
      font-family="Rubik Medium"
      
      font-weight="400"
      
      font-stretch="normal"
      
      units-per-em="1000"
      
      ascent="935"
      
      descent="-250"
      
    />
      <missing-glyph />

      

      
      <glyph glyph-name="unib8" unicode="&#xb8;" d="M183 27L127-56Q134-52 143.50-49Q153-46 164-46Q197-46 213-72.50Q229-99 221-135Q213-171 188-195.50Q163-220 114-220Q96-220 78-215Q60-210 48-202.50Q36-195 32-186Q28-177 38-169L54-156Q64-149 69-149Q74-149 79.50-152.50Q85-156 93-160Q101-164 116-164Q154-164 160-132Q166-102 129-102Q121-102 113-105Q105-108 98-110Q91-112 85-112Q79-112 74-106L62-88Q57-80 57-74.50Q57-69 67-55L122 27L183 27Z"  horiz-adv-x="254" vert-adv-y="1000"  />

      
      <glyph glyph-name="uni02C6" unicode="&#x02C6;" d="M252 745Q263 745 270 741Q277 737 285 726L355 624Q362 614 355.50 604.50Q349 595 338 595L302 595Q292 595 286.50 597.50Q281 600 273 606L211 653L125 606Q115 600 108.50 597.50Q102 595 92 595L42 595Q31 595 29 605Q27 615 37 624L151 726Q163 737 172 741Q181 745 192 745L252 745Z"  horiz-adv-x="360" vert-adv-y="1000"  />

      
      <glyph glyph-name="uniF6C3" unicode="&#xF6C3;" d="M83-89Q88-75 101-62.50Q114-50 134-50L215-50Q228-50 231.50-60Q235-70 230-79L145-218Q139-228 127-239Q115-250 95-250L49-250Q37-250 33-242.50Q29-235 32-226L83-89Z"  horiz-adv-x="234" vert-adv-y="1000"  />

      
      <glyph glyph-name="unia8" unicode="&#xa8;" d="M165 737Q176 737 182 729Q188 721 186 710L168 622Q166 611 156 603Q146 595 135 595L52 595Q41 595 35 603Q29 611 31 622L49 710Q51 721 61 729Q71 737 82 737L165 737M372 737Q383 737 389 729Q395 721 393 710L375 622Q373 611 363 603Q353 595 342 595L259 595Q248 595 242 603Q236 611 238 622L256 710Q258 721 268 729Q278 737 289 737L372 737Z"  horiz-adv-x="394" vert-adv-y="1000"  />

      
      <glyph glyph-name="uni02D9" unicode="&#x02D9;" d="M171 742Q182 742 188 734Q194 726 192 715L173 622Q171 611 161 603Q151 595 140 595L52 595Q41 595 35 603Q29 611 31 622L50 715Q53 726 62.50 734Q72 742 83 742L171 742Z"  horiz-adv-x="193" vert-adv-y="1000"  />

      
      <glyph glyph-name="uni02DD" unicode="&#x02DD;" d="M105 726Q112 736 121 740.50Q130 745 146 745L239 745Q253 745 254.50 733Q256 721 246 713L128 609Q112 595 91 595L43 595Q32 595 31 603.50Q30 612 35 620L105 726M306 726Q313 736 322 740.50Q331 745 347 745L440 745Q454 745 455.50 733Q457 721 447 713L329 609Q313 595 292 595L244 595Q233 595 232 603.50Q231 612 236 620L306 726Z"  horiz-adv-x="456" vert-adv-y="1000"  />

      
      <glyph glyph-name="uni60" unicode="&#x60;" d="M245 624Q251 614 245 604.50Q239 595 228 595L173 595Q157 595 149.50 600Q142 605 135 612L36 710Q26 720 32.50 732.50Q39 745 54 745L149 745Q160 745 167 742.50Q174 740 182 726L245 624Z"  horiz-adv-x="248" vert-adv-y="1000"  />

      
      <glyph glyph-name="uniaf" unicode="&#xaf;" d="M52 595Q41 595 35 603Q29 611 31 622L45 688Q47 699 56.50 707Q66 715 77 715L336 715Q347 715 353.50 707Q360 699 358 688L344 622Q342 611 332 603Q322 595 311 595L52 595Z"  horiz-adv-x="359" vert-adv-y="1000"  />

      
      <glyph glyph-name="uni02DB" unicode="&#x02DB;" d="M153-220Q126-220 101.50-207.50Q77-195 59.50-172.50Q42-150 34-120Q26-90 34-54Q49 18 96 55Q143 92 219 92L238 92Q260 92 255 70L245 22Q240 0 219 0L204 0Q178 0 158.50-16.50Q139-33 132-64Q125-95 137.50-111.50Q150-128 176-128L191-128Q212-128 209-150L198-198Q196-208 189-214Q182-220 172-220L153-220Z"  horiz-adv-x="256" vert-adv-y="1000"  />

      
      <glyph glyph-name="uni02DA" unicode="&#x02DA;" d="M93 675Q90 662 96 653.50Q102 645 115 645Q128 645 139 653.50Q150 662 153 675Q156 688 150 696.50Q144 705 131 705Q118 705 107 696.50Q96 688 93 675M33 675Q42 713 70.50 736.50Q99 760 141 760Q158 760 173 753.50Q188 747 198.50 736Q209 725 213 709.50Q217 694 213 675Q204 637 175.50 613.50Q147 590 105 590Q88 590 73 596Q58 602 47.50 613.50Q37 625 32.50 640.50Q28 656 33 675Z"  horiz-adv-x="216" vert-adv-y="1000"  />

      
      <glyph glyph-name="uni02DC" unicode="&#x02DC;" d="M259 590Q237 590 223 595.50Q209 601 198.50 607Q188 613 178 618.50Q168 624 154 624Q142 624 136 619.50Q130 615 125 609.50Q120 604 115.50 599.50Q111 595 102 595L46 595Q37 595 33 600.50Q29 606 31 614Q35 633 46 653.50Q57 674 73.50 691Q90 708 112 719Q134 730 161 730Q183 730 196.50 724.50Q210 719 220.50 713Q231 707 241 701.50Q251 696 265 696Q277 696 283.50 700.50Q290 705 294.50 710.50Q299 716 304 720.50Q309 725 318 725L374 725Q383 725 387 719.50Q391 714 389 706Q385 687 374 666.50Q363 646 346.50 629Q330 612 308 601Q286 590 259 590Z"  horiz-adv-x="390" vert-adv-y="1000"  />

      
      <glyph glyph-name="uniF6C9" unicode="&#xF6C9;" d="M146 881Q160 894 168 897Q176 900 187 900L287 900Q301 900 302.50 887.50Q304 875 294 868L150 767Q140 760 130 755Q120 750 104 750L44 750Q31 750 30.50 760.50Q30 771 39 779L146 881Z"  horiz-adv-x="303" vert-adv-y="1000"  />

      
      <glyph glyph-name="uniF6CA" unicode="&#xF6CA;" d="M137 750Q126 750 119 754Q112 758 104 769L34 871Q27 881 33 890.50Q39 900 51 900L86 900Q96 900 101.50 897.50Q107 895 115 889L185 842L272 889Q282 894 288.50 897Q295 900 305 900L353 900Q367 900 368.50 889Q370 878 359 869L247 769Q235 758 226 754Q217 750 206 750L137 750Z"  horiz-adv-x="369" vert-adv-y="1000"  />

      
      <glyph glyph-name="uniF6CB" unicode="&#xF6CB;" d="M165 892Q176 892 182 884Q188 876 186 865L168 777Q166 766 156 758Q146 750 135 750L52 750Q41 750 35 758Q29 766 31 777L49 865Q51 876 61 884Q71 892 82 892L165 892M402 892Q413 892 419 884Q425 876 423 865L405 777Q403 766 393 758Q383 750 372 750L289 750Q278 750 272 758Q266 766 268 777L286 865Q288 876 298 884Q308 892 319 892L402 892Z"  horiz-adv-x="424" vert-adv-y="1000"  />

      
      <glyph glyph-name="uniF6CF" unicode="&#xF6CF;" d="M106 881Q113 891 122 895.50Q131 900 147 900L245 900Q260 900 262 889Q264 878 254 870L134 764Q118 750 97 750L44 750Q33 750 31 757.50Q29 765 35 774L106 881M312 881Q319 891 328 895.50Q337 900 353 900L451 900Q466 900 468 889Q470 878 460 870L340 764Q324 750 303 750L250 750Q239 750 237 757.50Q235 765 241 774L312 881Z"  horiz-adv-x="469" vert-adv-y="1000"  />

      
      <glyph glyph-name="uniF6CE" unicode="&#xF6CE;" d="M249 779Q255 769 249 759.50Q243 750 232 750L172 750Q156 750 148.50 755Q141 760 134 767L36 864Q27 873 32 886.50Q37 900 53 900L153 900Q164 900 171 897.50Q178 895 186 881L249 779Z"  horiz-adv-x="252" vert-adv-y="1000"  />

      
      <glyph glyph-name="uniF6D0" unicode="&#xF6D0;" d="M52 750Q41 750 34.50 758Q28 766 31 777L45 843Q47 854 56.50 862Q66 870 77 870L356 870Q367 870 373.50 862Q380 854 378 843L364 777Q362 766 352 758Q342 750 331 750L52 750Z"  horiz-adv-x="379" vert-adv-y="1000"  />

      
      <glyph glyph-name="uni41" unicode="&#x41;" d="M494 700Q510 700 516 691.50Q522 683 525 666L636 34Q638 20 627.50 10Q617 0 603 0L536 0Q516 0 510 8.50Q504 17 502 25L482 136L166 136L100 25Q95 17 85.50 8.50Q76 0 56 0L-24 0Q-38 0-44 11.50Q-50 23-43 34L336 666Q346 683 355.50 691.50Q365 700 381 700L494 700M461 261L412 546L241 261L461 261Z"  horiz-adv-x="704" vert-adv-y="1000"  />

      
      <glyph glyph-name="unic1" unicode="&#xc1;" d="M494 700Q510 700 516 691.50Q522 683 525 666L636 34Q638 20 627.50 10Q617 0 603 0L536 0Q516 0 510 8.50Q504 17 502 25L482 136L166 136L100 25Q95 17 85.50 8.50Q76 0 56 0L-24 0Q-38 0-44 11.50Q-50 23-43 34L336 666Q346 683 355.50 691.50Q365 700 381 700L494 700M461 261L412 546L241 261L461 261M519 881Q533 894 541 897Q549 900 560 900L660 900Q674 900 675.50 887.50Q677 875 667 868L523 767Q513 760 503 755Q493 750 477 750L417 750Q404 750 403.50 760.50Q403 771 412 779L519 881Z"  horiz-adv-x="704" vert-adv-y="1000"  />

      
      <glyph glyph-name="uni0102" unicode="&#x0102;" d="M494 700Q510 700 516 691.50Q522 683 525 666L636 34Q638 20 627.50 10Q617 0 603 0L536 0Q516 0 510 8.50Q504 17 502 25L482 136L166 136L100 25Q95 17 85.50 8.50Q76 0 56 0L-24 0Q-38 0-44 11.50Q-50 23-43 34L336 666Q346 683 355.50 691.50Q365 700 381 700L494 700M461 261L412 546L241 261L461 261M445 745Q406 745 379.50 757.50Q353 770 337 789.50Q321 809 315.50 833Q310 857 315 881Q317 889 323 894.50Q329 900 338 900L395 900Q404 900 407.50 894.50Q411 889 410 881Q407 859 416.50 845Q426 831 453 831Q480 831 496.50 845Q513 859 518 881Q520 889 526 894.50Q532 900 541 900L598 900Q607 900 611 894.50Q615 889 613 881Q608 857 598.50 833Q589 809 570 789.50Q551 770 521 757.50Q491 745 445 745Z"  horiz-adv-x="704" vert-adv-y="1000"  />

      
      <glyph glyph-name="unic2" unicode="&#xc2;" d="M494 700Q510 700 516 691.50Q522 683 525 666L636 34Q638 20 627.50 10Q617 0 603 0L536 0Q516 0 510 8.50Q504 17 502 25L482 136L166 136L100 25Q95 17 85.50 8.50Q76 0 56 0L-24 0Q-38 0-44 11.50Q-50 23-43 34L336 666Q346 683 355.50 691.50Q365 700 381 700L494 700M461 261L412 546L241 261L461 261M500 900Q511 900 518 896Q525 892 533 881L603 779Q610 769 604 759.50Q598 750 586 750L551 750Q541 750 535.50 752.50Q530 755 522 761L452 808L365 761Q355 756 348.50 753Q342 750 332 750L284 750Q270 750 268.50 761Q267 772 278 781L390 881Q402 892 411 896Q420 900 431 900L500 900Z"  horiz-adv-x="704" vert-adv-y="1000"  />

      
      <glyph glyph-name="unic0" unicode="&#xc0;" d="M494 700Q510 700 516 691.50Q522 683 525 666L636 34Q638 20 627.50 10Q617 0 603 0L536 0Q516 0 510 8.50Q504 17 502 25L482 136L166 136L100 25Q95 17 85.50 8.50Q76 0 56 0L-24 0Q-38 0-44 11.50Q-50 23-43 34L336 666Q346 683 355.50 691.50Q365 700 381 700L494 700M461 261L412 546L241 261L461 261M504 779Q510 769 504 759.50Q498 750 487 750L427 750Q411 750 403.50 755Q396 760 389 767L291 864Q282 873 287 886.50Q292 900 308 900L408 900Q419 900 426 897.50Q433 895 441 881L504 779Z"  horiz-adv-x="704" vert-adv-y="1000"  />

      
      <glyph glyph-name="unic4" unicode="&#xc4;" d="M494 700Q510 700 516 691.50Q522 683 525 666L636 34Q638 20 627.50 10Q617 0 603 0L536 0Q516 0 510 8.50Q504 17 502 25L482 136L166 136L100 25Q95 17 85.50 8.50Q76 0 56 0L-24 0Q-38 0-44 11.50Q-50 23-43 34L336 666Q346 683 355.50 691.50Q365 700 381 700L494 700M461 261L412 546L241 261L461 261M398 892Q409 892 415 884Q421 876 419 865L401 777Q399 766 389 758Q379 750 368 750L285 750Q274 750 268 758Q262 766 264 777L282 865Q284 876 294 884Q304 892 315 892L398 892M635 892Q646 892 652 884Q658 876 656 865L638 777Q636 766 626 758Q616 750 605 750L522 750Q511 750 505 758Q499 766 501 777L519 865Q521 876 531 884Q541 892 552 892L635 892Z"  horiz-adv-x="704" vert-adv-y="1000"  />

      
      <glyph glyph-name="uni0100" unicode="&#x0100;" d="M494 700Q510 700 516 691.50Q522 683 525 666L636 34Q638 20 627.50 10Q617 0 603 0L536 0Q516 0 510 8.50Q504 17 502 25L482 136L166 136L100 25Q95 17 85.50 8.50Q76 0 56 0L-24 0Q-38 0-44 11.50Q-50 23-43 34L336 666Q346 683 355.50 691.50Q365 700 381 700L494 700M461 261L412 546L241 261L461 261M306 750Q295 750 288.50 758Q282 766 285 777L299 843Q301 854 310.50 862Q320 870 331 870L610 870Q621 870 627.50 862Q634 854 632 843L618 777Q616 766 606 758Q596 750 585 750L306 750Z"  horiz-adv-x="704" vert-adv-y="1000"  />

      
      <glyph glyph-name="uni0104" unicode="&#x0104;" d="M494 700Q510 700 516 691.50Q522 683 525 666L636 34Q638 20 627.50 10Q617 0 603 0L588 0Q562 0 542.50-16.50Q523-33 516-64Q509-95 521.50-111.50Q534-128 560-128L575-128Q596-128 593-150L582-198Q580-208 573-214Q566-220 556-220L537-220Q510-220 485.50-207.50Q461-195 443.50-172.50Q426-150 418-120Q410-90 418-54Q434 28 495 64L482 136L166 136L100 25Q95 17 85.50 8.50Q76 0 56 0L-24 0Q-38 0-44 11.50Q-50 23-43 34L336 666Q346 683 355.50 691.50Q365 700 381 700L494 700M461 261L412 546L241 261L461 261Z"  horiz-adv-x="704" vert-adv-y="1000"  />

      
      <glyph glyph-name="unic5" unicode="&#xc5;" d="M494 700Q510 700 516 691.50Q522 683 525 666L636 34Q638 20 627.50 10Q617 0 603 0L536 0Q516 0 510 8.50Q504 17 502 25L482 136L166 136L100 25Q95 17 85.50 8.50Q76 0 56 0L-24 0Q-38 0-44 11.50Q-50 23-43 34L336 666Q346 683 355.50 691.50Q365 700 381 700L494 700M461 261L412 546L241 261L461 261M431 825Q428 812 434 803.50Q440 795 453 795Q466 795 477 803.50Q488 812 491 825Q494 838 488 846.50Q482 855 469 855Q456 855 445 846.50Q434 838 431 825M371 825Q380 863 408.50 886.50Q437 910 479 910Q496 910 511 903.50Q526 897 536.50 886Q547 875 551 859.50Q555 844 551 825Q542 787 513.50 763.50Q485 740 443 740Q426 740 411 746Q396 752 385.50 763.50Q375 775 370.50 790.50Q366 806 371 825Z"  horiz-adv-x="704" vert-adv-y="1000"  />

      
      <glyph glyph-name="unic3" unicode="&#xc3;" d="M494 700Q510 700 516 691.50Q522 683 525 666L636 34Q638 20 627.50 10Q617 0 603 0L536 0Q516 0 510 8.50Q504 17 502 25L482 136L166 136L100 25Q95 17 85.50 8.50Q76 0 56 0L-24 0Q-38 0-44 11.50Q-50 23-43 34L336 666Q346 683 355.50 691.50Q365 700 381 700L494 700M461 261L412 546L241 261L461 261M524 745Q502 745 486.50 750.50Q471 756 458.50 762Q446 768 434.50 773.50Q423 779 409 779Q397 779 391 774.50Q385 770 380 764.50Q375 759 370.50 754.50Q366 750 357 750L301 750Q292 750 288 755.50Q284 761 286 769Q290 788 301 808.50Q312 829 328.50 846Q345 863 367 874Q389 885 416 885Q438 885 453 879.50Q468 874 480.50 868Q493 862 504.50 856.50Q516 851 530 851Q542 851 548.50 855.50Q555 860 559.50 865.50Q564 871 569 875.50Q574 880 583 880L639 880Q648 880 652 874.50Q656 869 654 861Q650 842 639 821.50Q628 801 611.50 784Q595 767 573 756Q551 745 524 745Z"  horiz-adv-x="704" vert-adv-y="1000"  />

      
      <glyph glyph-name="unic6" unicode="&#xc6;" d="M902 125Q913 125 919.50 117Q926 109 923 98L908 27Q906 16 896.50 8Q887 0 876 0L437 0Q426 0 419.50 8Q413 16 415 27L438 136L177 136L89 25Q83 17 72.50 8.50Q62 0 45 0L-34 0Q-45 0-51.50 8Q-58 16-56 27Q-55 32-49 39L453 667Q461 678 473 689Q485 700 505 700L1016 700Q1027 700 1033.50 692Q1040 684 1038 673L1022 602Q1020 591 1010.50 583Q1001 575 990 575L667 575L633 416L934 416Q945 416 951 408Q957 400 955 389L940 318Q938 307 928 299Q918 291 907 291L606 291L571 125L902 125M465 261L532 576L278 261L465 261Z"  horiz-adv-x="1011" vert-adv-y="1000"  />

      
      <glyph glyph-name="uni01FC" unicode="&#x01FC;" d="M694 881Q708 894 716 897Q724 900 735 900L835 900Q849 900 850.50 887.50Q852 875 842 868L698 767Q688 760 678 755Q668 750 652 750L592 750Q579 750 578.50 760.50Q578 771 587 779L694 881M902 125Q913 125 919.50 117Q926 109 923 98L908 27Q906 16 896.50 8Q887 0 876 0L437 0Q426 0 419.50 8Q413 16 415 27L438 136L177 136L89 25Q83 17 72.50 8.50Q62 0 45 0L-34 0Q-45 0-51.50 8Q-58 16-56 27Q-55 32-49 39L453 667Q461 678 473 689Q485 700 505 700L1016 700Q1027 700 1033.50 692Q1040 684 1038 673L1022 602Q1020 591 1010.50 583Q1001 575 990 575L667 575L633 416L934 416Q945 416 951 408Q957 400 955 389L940 318Q938 307 928 299Q918 291 907 291L606 291L571 125L902 125M465 261L532 576L278 261L465 261Z"  horiz-adv-x="1011" vert-adv-y="1000"  />

      
      <glyph glyph-name="uni42" unicode="&#x42;" d="M43 0Q32 0 25.50 8Q19 16 21 27L159 673Q161 684 170.50 692Q180 700 191 700L476 700Q540 700 580 679.50Q620 659 642 628.50Q664 598 669 562.50Q674 527 668 497Q662 467 649 443.50Q636 420 621 403.50Q606 387 592.50 376Q579 365 571 361Q584 350 595.50 335.50Q607 321 614.50 301.50Q622 282 624 258Q626 234 620 204Q612 166 593 129.50Q574 93 542.50 64.50Q511 36 466 18Q421 0 361 0L43 0M533 498Q541 536 521.50 555.50Q502 575 450 575L273 575L240 421L417 421Q518 421 533 498M177 125L362 125Q417 125 447.50 148.50Q478 172 486 210Q494 248 472.50 272Q451 296 398 296L213 296L177 125Z"  horiz-adv-x="687" vert-adv-y="1000"  />

      
      <glyph glyph-name="uni43" unicode="&#x43;" d="M492 222Q497 235 506.50 241.50Q516 248 526 248L607 248Q618 248 625 240.50Q632 233 628 221Q617 180 593.50 139Q570 98 530 65Q490 32 431 11Q372-10 291-10Q226-10 176 10.50Q126 31 94 67.50Q62 104 49.50 155Q37 206 46 266Q52 304 61.50 350Q71 396 82 434Q98 494 126.50 545Q155 596 197 632.50Q239 669 295 689.50Q351 710 424 710Q498 710 550 689Q602 668 633.50 635Q665 602 677 560.50Q689 519 683 479Q681 467 671.50 459.50Q662 452 651 452L570 452Q560 452 552 458.50Q544 465 545 478Q546 498 539.50 517Q533 536 517 551Q501 566 474 575.50Q447 585 408 585Q369 585 337.50 573Q306 561 282 541Q258 521 242 493Q226 465 217 434Q206 396 196.50 350Q187 304 181 266Q176 234 180.50 206.50Q185 179 200.50 159Q216 139 242.50 127Q269 115 308 115Q347 115 378 124.50Q409 134 431.50 149Q454 164 469 183Q484 202 492 222Z"  horiz-adv-x="682" vert-adv-y="1000"  />

      
      <glyph glyph-name="uni0106" unicode="&#x0106;" d="M492 222Q497 235 506.50 241.50Q516 248 526 248L607 248Q618 248 625 240.50Q632 233 628 221Q617 180 593.50 139Q570 98 530 65Q490 32 431 11Q372-10 291-10Q226-10 176 10.50Q126 31 94 67.50Q62 104 49.50 155Q37 206 46 266Q52 304 61.50 350Q71 396 82 434Q98 494 126.50 545Q155 596 197 632.50Q239 669 295 689.50Q351 710 424 710Q498 710 550 689Q602 668 633.50 635Q665 602 677 560.50Q689 519 683 479Q681 467 671.50 459.50Q662 452 651 452L570 452Q560 452 552 458.50Q544 465 545 478Q546 498 539.50 517Q533 536 517 551Q501 566 474 575.50Q447 585 408 585Q369 585 337.50 573Q306 561 282 541Q258 521 242 493Q226 465 217 434Q206 396 196.50 350Q187 304 181 266Q176 234 180.50 206.50Q185 179 200.50 159Q216 139 242.50 127Q269 115 308 115Q347 115 378 124.50Q409 134 431.50 149Q454 164 469 183Q484 202 492 222M506 881Q520 894 528 897Q536 900 547 900L647 900Q661 900 662.50 887.50Q664 875 654 868L510 767Q500 760 490 755Q480 750 464 750L404 750Q391 750 390.50 760.50Q390 771 399 779L506 881Z"  horiz-adv-x="682" vert-adv-y="1000"  />

      
      <glyph glyph-name="uni010C" unicode="&#x010C;" d="M492 222Q497 235 506.50 241.50Q516 248 526 248L607 248Q618 248 625 240.50Q632 233 628 221Q617 180 593.50 139Q570 98 530 65Q490 32 431 11Q372-10 291-10Q226-10 176 10.50Q126 31 94 67.50Q62 104 49.50 155Q37 206 46 266Q52 304 61.50 350Q71 396 82 434Q98 494 126.50 545Q155 596 197 632.50Q239 669 295 689.50Q351 710 424 710Q498 710 550 689Q602 668 633.50 635Q665 602 677 560.50Q689 519 683 479Q681 467 671.50 459.50Q662 452 651 452L570 452Q560 452 552 458.50Q544 465 545 478Q546 498 539.50 517Q533 536 517 551Q501 566 474 575.50Q447 585 408 585Q369 585 337.50 573Q306 561 282 541Q258 521 242 493Q226 465 217 434Q206 396 196.50 350Q187 304 181 266Q176 234 180.50 206.50Q185 179 200.50 159Q216 139 242.50 127Q269 115 308 115Q347 115 378 124.50Q409 134 431.50 149Q454 164 469 183Q484 202 492 222M414 750Q403 750 396 754Q389 758 381 769L311 871Q304 881 310 890.50Q316 900 328 900L363 900Q373 900 378.50 897.50Q384 895 392 889L462 842L549 889Q559 894 565.50 897Q572 900 582 900L630 900Q644 900 645.50 889Q647 878 636 869L524 769Q512 758 503 754Q494 750 483 750L414 750Z"  horiz-adv-x="682" vert-adv-y="1000"  />

      
      <glyph glyph-name="unic7" unicode="&#xc7;" d="M492 222Q497 235 506.50 241.50Q516 248 526 248L607 248Q618 248 625 240.50Q632 233 628 221Q617 180 593.50 139Q570 98 530 65Q490 32 431 11Q372-10 291-10L289-10L258-56Q265-52 274.50-49Q284-46 295-46Q328-46 344-72.50Q360-99 352-135Q344-171 319-195.50Q294-220 245-220Q227-220 209-215Q191-210 179-202.50Q167-195 163-186Q159-177 169-169L185-156Q195-149 200-149Q205-149 210.50-152.50Q216-156 224-160Q232-164 247-164Q285-164 291-132Q297-102 260-102Q252-102 244-105Q236-108 229-110Q222-112 216-112Q210-112 205-106L193-88Q188-80 188-74.50Q188-69 198-55L231-5Q180 4 142 27.50Q104 51 80 86Q56 121 47 167Q38 213 46 266Q52 304 61.50 350Q71 396 82 434Q98 494 126.50 545Q155 596 197 632.50Q239 669 295 689.50Q351 710 424 710Q498 710 550 689Q602 668 633.50 635Q665 602 677 560.50Q689 519 683 479Q681 467 671.50 459.50Q662 452 651 452L570 452Q560 452 552 458.50Q544 465 545 478Q546 498 539.50 517Q533 536 517 551Q501 566 474 575.50Q447 585 408 585Q369 585 337.50 573Q306 561 282 541Q258 521 242 493Q226 465 217 434Q206 396 196.50 350Q187 304 181 266Q176 234 180.50 206.50Q185 179 200.50 159Q216 139 242.50 127Q269 115 308 115Q347 115 378 124.50Q409 134 431.50 149Q454 164 469 183Q484 202 492 222Z"  horiz-adv-x="682" vert-adv-y="1000"  />

      
      <glyph glyph-name="uni0108" unicode="&#x0108;" d="M492 222Q497 235 506.50 241.50Q516 248 526 248L607 248Q618 248 625 240.50Q632 233 628 221Q617 180 593.50 139Q570 98 530 65Q490 32 431 11Q372-10 291-10Q226-10 176 10.50Q126 31 94 67.50Q62 104 49.50 155Q37 206 46 266Q52 304 61.50 350Q71 396 82 434Q98 494 126.50 545Q155 596 197 632.50Q239 669 295 689.50Q351 710 424 710Q498 710 550 689Q602 668 633.50 635Q665 602 677 560.50Q689 519 683 479Q681 467 671.50 459.50Q662 452 651 452L570 452Q560 452 552 458.50Q544 465 545 478Q546 498 539.50 517Q533 536 517 551Q501 566 474 575.50Q447 585 408 585Q369 585 337.50 573Q306 561 282 541Q258 521 242 493Q226 465 217 434Q206 396 196.50 350Q187 304 181 266Q176 234 180.50 206.50Q185 179 200.50 159Q216 139 242.50 127Q269 115 308 115Q347 115 378 124.50Q409 134 431.50 149Q454 164 469 183Q484 202 492 222M505 900Q516 900 523 896Q530 892 538 881L608 779Q615 769 609 759.50Q603 750 591 750L556 750Q546 750 540.50 752.50Q535 755 527 761L457 808L370 761Q360 756 353.50 753Q347 750 337 750L289 750Q275 750 273.50 761Q272 772 283 781L395 881Q407 892 416 896Q425 900 436 900L505 900Z"  horiz-adv-x="682" vert-adv-y="1000"  />

      
      <glyph glyph-name="uni010A" unicode="&#x010A;" d="M492 222Q497 235 506.50 241.50Q516 248 526 248L607 248Q618 248 625 240.50Q632 233 628 221Q617 180 593.50 139Q570 98 530 65Q490 32 431 11Q372-10 291-10Q226-10 176 10.50Q126 31 94 67.50Q62 104 49.50 155Q37 206 46 266Q52 304 61.50 350Q71 396 82 434Q98 494 126.50 545Q155 596 197 632.50Q239 669 295 689.50Q351 710 424 710Q498 710 550 689Q602 668 633.50 635Q665 602 677 560.50Q689 519 683 479Q681 467 671.50 459.50Q662 452 651 452L570 452Q560 452 552 458.50Q544 465 545 478Q546 498 539.50 517Q533 536 517 551Q501 566 474 575.50Q447 585 408 585Q369 585 337.50 573Q306 561 282 541Q258 521 242 493Q226 465 217 434Q206 396 196.50 350Q187 304 181 266Q176 234 180.50 206.50Q185 179 200.50 159Q216 139 242.50 127Q269 115 308 115Q347 115 378 124.50Q409 134 431.50 149Q454 164 469 183Q484 202 492 222M522 897Q533 897 539 889Q545 881 543 870L524 777Q522 766 512 758Q502 750 491 750L403 750Q392 750 385.50 758Q379 766 382 777L401 870Q403 881 413 889Q423 897 434 897L522 897Z"  horiz-adv-x="682" vert-adv-y="1000"  />

      
      <glyph glyph-name="uni44" unicode="&#x44;" d="M438 700Q512 700 562.50 680.50Q613 661 642 625Q671 589 680 538Q689 487 679 424Q673 386 665.50 350Q658 314 647 276Q630 213 599.50 162Q569 111 525.50 75Q482 39 424.50 19.50Q367 0 295 0L43 0Q32 0 25.50 8Q19 16 21 27L159 673Q161 684 170.50 692Q180 700 191 700L438 700M544 424Q549 456 544.50 483.50Q540 511 523.50 531.50Q507 552 478.50 563.50Q450 575 407 575L273 575L177 125L316 125Q357 125 389.50 136.50Q422 148 446.50 168Q471 188 487 216Q503 244 512 276Q523 314 530.50 350Q538 386 544 424Z"  horiz-adv-x="704" vert-adv-y="1000"  />

      
      <glyph glyph-name="uni010E" unicode="&#x010E;" d="M438 700Q512 700 562.50 680.50Q613 661 642 625Q671 589 680 538Q689 487 679 424Q673 386 665.50 350Q658 314 647 276Q630 213 599.50 162Q569 111 525.50 75Q482 39 424.50 19.50Q367 0 295 0L43 0Q32 0 25.50 8Q19 16 21 27L159 673Q161 684 170.50 692Q180 700 191 700L438 700M544 424Q549 456 544.50 483.50Q540 511 523.50 531.50Q507 552 478.50 563.50Q450 575 407 575L273 575L177 125L316 125Q357 125 389.50 136.50Q422 148 446.50 168Q471 188 487 216Q503 244 512 276Q523 314 530.50 350Q538 386 544 424M378 750Q367 750 360 754Q353 758 345 769L275 871Q268 881 274 890.50Q280 900 292 900L327 900Q337 900 342.50 897.50Q348 895 356 889L426 842L513 889Q523 894 529.50 897Q536 900 546 900L594 900Q608 900 609.50 889Q611 878 600 869L488 769Q476 758 467 754Q458 750 447 750L378 750Z"  horiz-adv-x="704" vert-adv-y="1000"  />

      
      <glyph glyph-name="uni0110" unicode="&#x0110;" d="M459 700Q533 700 583.50 680.50Q634 661 663 625Q692 589 701 538Q710 487 700 424Q694 386 686.50 350Q679 314 668 276Q651 213 620.50 162Q590 111 546.50 75Q503 39 445.50 19.50Q388 0 316 0L64 0Q53 0 46.50 8Q40 16 42 27L99 296L46 296Q35 296 29 304Q23 312 25 323L39 386Q41 397 50.50 405Q60 413 71 413L124 413L180 673Q182 684 191.50 692Q201 700 212 700L459 700M565 424Q570 456 565.50 483.50Q561 511 544.50 531.50Q528 552 499.50 563.50Q471 575 428 575L294 575L259 413L366 413Q377 413 383.50 405Q390 397 388 386L374 323Q372 312 362 304Q352 296 341 296L234 296L198 125L337 125Q378 125 410.50 136.50Q443 148 467.50 168Q492 188 508 216Q524 244 533 276Q544 314 551.50 350Q559 386 565 424Z"  horiz-adv-x="725" vert-adv-y="1000"  />

      
      <glyph glyph-name="uni45" unicode="&#x45;" d="M508 125Q519 125 525.50 117Q532 109 529 98L514 27Q512 16 502.50 8Q493 0 482 0L43 0Q32 0 25.50 8Q19 16 21 27L159 673Q161 684 170.50 692Q180 700 191 700L622 700Q633 700 639.50 692Q646 684 644 673L628 602Q626 591 616.50 583Q607 575 596 575L273 575L239 416L540 416Q551 416 557 408Q563 400 561 389L546 318Q544 307 534 299Q524 291 513 291L212 291L177 125L508 125Z"  horiz-adv-x="617" vert-adv-y="1000"  />

      
      <glyph glyph-name="unic9" unicode="&#xc9;" d="M508 125Q519 125 525.50 117Q532 109 529 98L514 27Q512 16 502.50 8Q493 0 482 0L43 0Q32 0 25.50 8Q19 16 21 27L159 673Q161 684 170.50 692Q180 700 191 700L622 700Q633 700 639.50 692Q646 684 644 673L628 602Q626 591 616.50 583Q607 575 596 575L273 575L239 416L540 416Q551 416 557 408Q563 400 561 389L546 318Q544 307 534 299Q524 291 513 291L212 291L177 125L508 125M469 881Q483 894 491 897Q499 900 510 900L610 900Q624 900 625.50 887.50Q627 875 617 868L473 767Q463 760 453 755Q443 750 427 750L367 750Q354 750 353.50 760.50Q353 771 362 779L469 881Z"  horiz-adv-x="617" vert-adv-y="1000"  />

      
      <glyph glyph-name="uni0114" unicode="&#x0114;" d="M508 125Q519 125 525.50 117Q532 109 529 98L514 27Q512 16 502.50 8Q493 0 482 0L43 0Q32 0 25.50 8Q19 16 21 27L159 673Q161 684 170.50 692Q180 700 191 700L622 700Q633 700 639.50 692Q646 684 644 673L628 602Q626 591 616.50 583Q607 575 596 575L273 575L239 416L540 416Q551 416 557 408Q563 400 561 389L546 318Q544 307 534 299Q524 291 513 291L212 291L177 125L508 125M416 745Q377 745 350.50 757.50Q324 770 308 789.50Q292 809 286.50 833Q281 857 286 881Q288 889 294 894.50Q300 900 309 900L366 900Q375 900 378.50 894.50Q382 889 381 881Q378 859 387.50 845Q397 831 424 831Q451 831 467.50 845Q484 859 489 881Q491 889 497 894.50Q503 900 512 900L569 900Q578 900 582 894.50Q586 889 584 881Q579 857 569.50 833Q560 809 541 789.50Q522 770 492 757.50Q462 745 416 745Z"  horiz-adv-x="617" vert-adv-y="1000"  />

      
      <glyph glyph-name="uni011A" unicode="&#x011A;" d="M508 125Q519 125 525.50 117Q532 109 529 98L514 27Q512 16 502.50 8Q493 0 482 0L43 0Q32 0 25.50 8Q19 16 21 27L159 673Q161 684 170.50 692Q180 700 191 700L622 700Q633 700 639.50 692Q646 684 644 673L628 602Q626 591 616.50 583Q607 575 596 575L273 575L239 416L540 416Q551 416 557 408Q563 400 561 389L546 318Q544 307 534 299Q524 291 513 291L212 291L177 125L508 125M379 750Q368 750 361 754Q354 758 346 769L276 871Q269 881 275 890.50Q281 900 293 900L328 900Q338 900 343.50 897.50Q349 895 357 889L427 842L514 889Q524 894 530.50 897Q537 900 547 900L595 900Q609 900 610.50 889Q612 878 601 869L489 769Q477 758 468 754Q459 750 448 750L379 750Z"  horiz-adv-x="617" vert-adv-y="1000"  />

      
      <glyph glyph-name="unica" unicode="&#xca;" d="M508 125Q519 125 525.50 117Q532 109 529 98L514 27Q512 16 502.50 8Q493 0 482 0L43 0Q32 0 25.50 8Q19 16 21 27L159 673Q161 684 170.50 692Q180 700 191 700L622 700Q633 700 639.50 692Q646 684 644 673L628 602Q626 591 616.50 583Q607 575 596 575L273 575L239 416L540 416Q551 416 557 408Q563 400 561 389L546 318Q544 307 534 299Q524 291 513 291L212 291L177 125L508 125M470 900Q481 900 488 896Q495 892 503 881L573 779Q580 769 574 759.50Q568 750 556 750L521 750Q511 750 505.50 752.50Q500 755 492 761L422 808L335 761Q325 756 318.50 753Q312 750 302 750L254 750Q240 750 238.50 761Q237 772 248 781L360 881Q372 892 381 896Q390 900 401 900L470 900Z"  horiz-adv-x="617" vert-adv-y="1000"  />

      
      <glyph glyph-name="unicb" unicode="&#xcb;" d="M508 125Q519 125 525.50 117Q532 109 529 98L514 27Q512 16 502.50 8Q493 0 482 0L43 0Q32 0 25.50 8Q19 16 21 27L159 673Q161 684 170.50 692Q180 700 191 700L622 700Q633 700 639.50 692Q646 684 644 673L628 602Q626 591 616.50 583Q607 575 596 575L273 575L239 416L540 416Q551 416 557 408Q563 400 561 389L546 318Q544 307 534 299Q524 291 513 291L212 291L177 125L508 125M370 892Q381 892 387 884Q393 876 391 865L373 777Q371 766 361 758Q351 750 340 750L257 750Q246 750 240 758Q234 766 236 777L254 865Q256 876 266 884Q276 892 287 892L370 892M607 892Q618 892 624 884Q630 876 628 865L610 777Q608 766 598 758Q588 750 577 750L494 750Q483 750 477 758Q471 766 473 777L491 865Q493 876 503 884Q513 892 524 892L607 892Z"  horiz-adv-x="617" vert-adv-y="1000"  />

      
      <glyph glyph-name="uni0116" unicode="&#x0116;" d="M508 125Q519 125 525.50 117Q532 109 529 98L514 27Q512 16 502.50 8Q493 0 482 0L43 0Q32 0 25.50 8Q19 16 21 27L159 673Q161 684 170.50 692Q180 700 191 700L622 700Q633 700 639.50 692Q646 684 644 673L628 602Q626 591 616.50 583Q607 575 596 575L273 575L239 416L540 416Q551 416 557 408Q563 400 561 389L546 318Q544 307 534 299Q524 291 513 291L212 291L177 125L508 125M493 897Q504 897 510 889Q516 881 514 870L495 777Q493 766 483 758Q473 750 462 750L374 750Q363 750 356.50 758Q350 766 353 777L372 870Q374 881 384 889Q394 897 405 897L493 897Z"  horiz-adv-x="617" vert-adv-y="1000"  />

      
      <glyph glyph-name="unic8" unicode="&#xc8;" d="M508 125Q519 125 525.50 117Q532 109 529 98L514 27Q512 16 502.50 8Q493 0 482 0L43 0Q32 0 25.50 8Q19 16 21 27L159 673Q161 684 170.50 692Q180 700 191 700L622 700Q633 700 639.50 692Q646 684 644 673L628 602Q626 591 616.50 583Q607 575 596 575L273 575L239 416L540 416Q551 416 557 408Q563 400 561 389L546 318Q544 307 534 299Q524 291 513 291L212 291L177 125L508 125M478 779Q484 769 478 759.50Q472 750 461 750L401 750Q385 750 377.50 755Q370 760 363 767L265 864Q256 873 261 886.50Q266 900 282 900L382 900Q393 900 400 897.50Q407 895 415 881L478 779Z"  horiz-adv-x="617" vert-adv-y="1000"  />

      
      <glyph glyph-name="uni0112" unicode="&#x0112;" d="M508 125Q519 125 525.50 117Q532 109 529 98L514 27Q512 16 502.50 8Q493 0 482 0L43 0Q32 0 25.50 8Q19 16 21 27L159 673Q161 684 170.50 692Q180 700 191 700L622 700Q633 700 639.50 692Q646 684 644 673L628 602Q626 591 616.50 583Q607 575 596 575L273 575L239 416L540 416Q551 416 557 408Q563 400 561 389L546 318Q544 307 534 299Q524 291 513 291L212 291L177 125L508 125M279 750Q268 750 261.50 758Q255 766 258 777L272 843Q274 854 283.50 862Q293 870 304 870L583 870Q594 870 600.50 862Q607 854 605 843L591 777Q589 766 579 758Q569 750 558 750L279 750Z"  horiz-adv-x="617" vert-adv-y="1000"  />

      
      <glyph glyph-name="uni0118" unicode="&#x0118;" d="M421-220Q394-220 369.50-207.50Q345-195 327.50-172.50Q310-150 302-120Q294-90 302-54Q308-24 320 0L43 0Q32 0 25.50 8Q19 16 21 27L159 673Q161 684 170.50 692Q180 700 191 700L622 700Q633 700 639.50 692Q646 684 644 673L628 602Q626 591 616.50 583Q607 575 596 575L273 575L239 416L540 416Q551 416 557 408Q563 400 561 389L546 318Q544 307 534 299Q524 291 513 291L212 291L177 125L508 125Q519 125 525.50 117Q532 109 529 98L514 27Q512 16 502.50 8Q493 0 482 0L472 0Q446 0 426.50-16.50Q407-33 400-64Q393-95 405.50-111.50Q418-128 444-128L459-128Q480-128 477-150L466-198Q464-208 457-214Q450-220 440-220L421-220Z"  horiz-adv-x="617" vert-adv-y="1000"  />

      
      <glyph glyph-name="uni46" unicode="&#x46;" d="M618 700Q629 700 635.50 692Q642 684 640 673L624 602Q622 591 612.50 583Q603 575 592 575L273 575L231 381L530 381Q541 381 547.50 373Q554 365 552 354L537 283Q534 272 524.50 264Q515 256 504 256L205 256L156 27Q154 16 144.50 8Q135 0 124 0L43 0Q32 0 25.50 8Q19 16 21 27L159 673Q161 684 170.50 692Q180 700 191 700L618 700Z"  horiz-adv-x="599" vert-adv-y="1000"  />

      
      <glyph glyph-name="uni47" unicode="&#x47;" d="M83 441Q98 501 125.50 550.50Q153 600 195.50 635.50Q238 671 296.50 690.50Q355 710 433 710Q516 710 569 687.50Q622 665 651.50 633.50Q681 602 690.50 568.50Q700 535 697 512Q695 500 685.50 492.50Q676 485 665 485L584 485Q573 485 567.50 490.50Q562 496 560 502Q559 506 553.50 519.50Q548 533 533 547.50Q518 562 490 573.50Q462 585 417 585Q380 585 347.50 574.50Q315 564 288.50 544.50Q262 525 244 497.50Q226 470 217 436Q208 398 198.50 354.50Q189 311 183 273Q168 190 205 152.50Q242 115 317 115Q354 115 386.50 123Q419 131 445.50 149Q472 167 491 196.50Q510 226 519 269L520 277L398 277Q387 277 381 285Q375 293 377 304L392 375Q394 386 404 394Q414 402 425 402L655 402Q666 402 672 394Q678 386 676 375L653 265Q640 205 614.50 154.50Q589 104 547 67.50Q505 31 444 10.50Q383-10 300-10Q232-10 179.50 10Q127 30 93.50 66Q60 102 47 152.50Q34 203 45 263Q48 282 53 305Q58 328 63 352Q68 376 73 399Q78 422 83 441Z"  horiz-adv-x="707" vert-adv-y="1000"  />

      
      <glyph glyph-name="uni011E" unicode="&#x011E;" d="M83 441Q98 501 125.50 550.50Q153 600 195.50 635.50Q238 671 296.50 690.50Q355 710 433 710Q516 710 569 687.50Q622 665 651.50 633.50Q681 602 690.50 568.50Q700 535 697 512Q695 500 685.50 492.50Q676 485 665 485L584 485Q573 485 567.50 490.50Q562 496 560 502Q559 506 553.50 519.50Q548 533 533 547.50Q518 562 490 573.50Q462 585 417 585Q380 585 347.50 574.50Q315 564 288.50 544.50Q262 525 244 497.50Q226 470 217 436Q208 398 198.50 354.50Q189 311 183 273Q168 190 205 152.50Q242 115 317 115Q354 115 386.50 123Q419 131 445.50 149Q472 167 491 196.50Q510 226 519 269L520 277L398 277Q387 277 381 285Q375 293 377 304L392 375Q394 386 404 394Q414 402 425 402L655 402Q666 402 672 394Q678 386 676 375L653 265Q640 205 614.50 154.50Q589 104 547 67.50Q505 31 444 10.50Q383-10 300-10Q232-10 179.50 10Q127 30 93.50 66Q60 102 47 152.50Q34 203 45 263Q48 282 53 305Q58 328 63 352Q68 376 73 399Q78 422 83 441M443 745Q404 745 377.50 757.50Q351 770 335 789.50Q319 809 313.50 833Q308 857 313 881Q315 889 321 894.50Q327 900 336 900L393 900Q402 900 405.50 894.50Q409 889 408 881Q405 859 414.50 845Q424 831 451 831Q478 831 494.50 845Q511 859 516 881Q518 889 524 894.50Q530 900 539 900L596 900Q605 900 609 894.50Q613 889 611 881Q606 857 596.50 833Q587 809 568 789.50Q549 770 519 757.50Q489 745 443 745Z"  horiz-adv-x="707" vert-adv-y="1000"  />

      
      <glyph glyph-name="uni011C" unicode="&#x011C;" d="M83 441Q98 501 125.50 550.50Q153 600 195.50 635.50Q238 671 296.50 690.50Q355 710 433 710Q516 710 569 687.50Q622 665 651.50 633.50Q681 602 690.50 568.50Q700 535 697 512Q695 500 685.50 492.50Q676 485 665 485L584 485Q573 485 567.50 490.50Q562 496 560 502Q559 506 553.50 519.50Q548 533 533 547.50Q518 562 490 573.50Q462 585 417 585Q380 585 347.50 574.50Q315 564 288.50 544.50Q262 525 244 497.50Q226 470 217 436Q208 398 198.50 354.50Q189 311 183 273Q168 190 205 152.50Q242 115 317 115Q354 115 386.50 123Q419 131 445.50 149Q472 167 491 196.50Q510 226 519 269L520 277L398 277Q387 277 381 285Q375 293 377 304L392 375Q394 386 404 394Q414 402 425 402L655 402Q666 402 672 394Q678 386 676 375L653 265Q640 205 614.50 154.50Q589 104 547 67.50Q505 31 444 10.50Q383-10 300-10Q232-10 179.50 10Q127 30 93.50 66Q60 102 47 152.50Q34 203 45 263Q48 282 53 305Q58 328 63 352Q68 376 73 399Q78 422 83 441M498 900Q509 900 516 896Q523 892 531 881L601 779Q608 769 602 759.50Q596 750 584 750L549 750Q539 750 533.50 752.50Q528 755 520 761L450 808L363 761Q353 756 346.50 753Q340 750 330 750L282 750Q268 750 266.50 761Q265 772 276 781L388 881Q400 892 409 896Q418 900 429 900L498 900Z"  horiz-adv-x="707" vert-adv-y="1000"  />

      
      <glyph glyph-name="uni0122" unicode="&#x0122;" d="M83 441Q98 501 125.50 550.50Q153 600 195.50 635.50Q238 671 296.50 690.50Q355 710 433 710Q516 710 569 687.50Q622 665 651.50 633.50Q681 602 690.50 568.50Q700 535 697 512Q695 500 685.50 492.50Q676 485 665 485L584 485Q573 485 567.50 490.50Q562 496 560 502Q559 506 553.50 519.50Q548 533 533 547.50Q518 562 490 573.50Q462 585 417 585Q380 585 347.50 574.50Q315 564 288.50 544.50Q262 525 244 497.50Q226 470 217 436Q208 398 198.50 354.50Q189 311 183 273Q168 190 205 152.50Q242 115 317 115Q354 115 386.50 123Q419 131 445.50 149Q472 167 491 196.50Q510 226 519 269L520 277L398 277Q387 277 381 285Q375 293 377 304L392 375Q394 386 404 394Q414 402 425 402L655 402Q666 402 672 394Q678 386 676 375L653 265Q640 205 614.50 154.50Q589 104 547 67.50Q505 31 444 10.50Q383-10 300-10Q232-10 179.50 10Q127 30 93.50 66Q60 102 47 152.50Q34 203 45 263Q48 282 53 305Q58 328 63 352Q68 376 73 399Q78 422 83 441M191-89Q196-75 209-62.50Q222-50 242-50L329-50Q342-50 345.50-60Q349-70 343-81L259-218Q253-228 241-239Q229-250 209-250L157-250Q145-250 141-242Q137-234 140-226L191-89Z"  horiz-adv-x="707" vert-adv-y="1000"  />

      
      <glyph glyph-name="uni0120" unicode="&#x0120;" d="M83 441Q98 501 125.50 550.50Q153 600 195.50 635.50Q238 671 296.50 690.50Q355 710 433 710Q516 710 569 687.50Q622 665 651.50 633.50Q681 602 690.50 568.50Q700 535 697 512Q695 500 685.50 492.50Q676 485 665 485L584 485Q573 485 567.50 490.50Q562 496 560 502Q559 506 553.50 519.50Q548 533 533 547.50Q518 562 490 573.50Q462 585 417 585Q380 585 347.50 574.50Q315 564 288.50 544.50Q262 525 244 497.50Q226 470 217 436Q208 398 198.50 354.50Q189 311 183 273Q168 190 205 152.50Q242 115 317 115Q354 115 386.50 123Q419 131 445.50 149Q472 167 491 196.50Q510 226 519 269L520 277L398 277Q387 277 381 285Q375 293 377 304L392 375Q394 386 404 394Q414 402 425 402L655 402Q666 402 672 394Q678 386 676 375L653 265Q640 205 614.50 154.50Q589 104 547 67.50Q505 31 444 10.50Q383-10 300-10Q232-10 179.50 10Q127 30 93.50 66Q60 102 47 152.50Q34 203 45 263Q48 282 53 305Q58 328 63 352Q68 376 73 399Q78 422 83 441M512 897Q523 897 529 889Q535 881 533 870L514 777Q512 766 502 758Q492 750 481 750L393 750Q382 750 375.50 758Q369 766 372 777L391 870Q393 881 403 889Q413 897 424 897L512 897Z"  horiz-adv-x="707" vert-adv-y="1000"  />

      
      <glyph glyph-name="uni48" unicode="&#x48;" d="M709 700Q720 700 726.50 692Q733 684 731 673L593 27Q591 16 581.50 8Q572 0 561 0L480 0Q469 0 462.50 8Q456 16 458 27L514 291L212 291L156 27Q154 16 144.50 8Q135 0 124 0L43 0Q32 0 25.50 7.50Q19 15 21 27L159 673Q161 684 170.50 692Q180 700 191 700L272 700Q283 700 289.50 692Q296 684 294 673L239 416L541 416L596 673Q598 684 607.50 692Q617 700 628 700L709 700Z"  horiz-adv-x="730" vert-adv-y="1000"  />

      
      <glyph glyph-name="uni0126" unicode="&#x0126;" d="M709 700Q720 700 726.50 692Q733 684 731 673L593 27Q591 16 581.50 8Q572 0 561 0L480 0Q469 0 462.50 8Q456 16 458 27L514 291L212 291L156 27Q154 16 144.50 8Q135 0 124 0L43 0Q32 0 25.50 7.50Q19 15 21 27L159 673Q161 684 170.50 692Q180 700 191 700L272 700Q283 700 289.50 692Q296 684 294 673L282 620L584 620L596 673Q598 684 607.50 692Q617 700 628 700L709 700M541 416L558 495L256 495L239 416L541 416Z"  horiz-adv-x="730" vert-adv-y="1000"  />

      
      <glyph glyph-name="uni0124" unicode="&#x0124;" d="M709 700Q720 700 726.50 692Q733 684 731 673L593 27Q591 16 581.50 8Q572 0 561 0L480 0Q469 0 462.50 8Q456 16 458 27L514 291L212 291L156 27Q154 16 144.50 8Q135 0 124 0L43 0Q32 0 25.50 7.50Q19 15 21 27L159 673Q161 684 170.50 692Q180 700 191 700L272 700Q283 700 289.50 692Q296 684 294 673L239 416L541 416L596 673Q598 684 607.50 692Q617 700 628 700L709 700M506 900Q517 900 524 896Q531 892 539 881L609 779Q616 769 610 759.50Q604 750 592 750L557 750Q547 750 541.50 752.50Q536 755 528 761L458 808L371 761Q361 756 354.50 753Q348 750 338 750L290 750Q276 750 274.50 761Q273 772 284 781L396 881Q408 892 417 896Q426 900 437 900L506 900Z"  horiz-adv-x="730" vert-adv-y="1000"  />

      
      <glyph glyph-name="uni49" unicode="&#x49;" d="M43 0Q32 0 25.50 8Q19 16 21 27L159 673Q161 684 170.50 692Q180 700 191 700L272 700Q283 700 289.50 692Q296 684 294 673L156 27Q154 16 144.50 8Q135 0 124 0L43 0Z"  horiz-adv-x="293" vert-adv-y="1000"  />

      
      <glyph glyph-name="unicd" unicode="&#xcd;" d="M43 0Q32 0 25.50 8Q19 16 21 27L159 673Q161 684 170.50 692Q180 700 191 700L272 700Q283 700 289.50 692Q296 684 294 673L156 27Q154 16 144.50 8Q135 0 124 0L43 0M307 881Q321 894 329 897Q337 900 348 900L448 900Q462 900 463.50 887.50Q465 875 455 868L311 767Q301 760 291 755Q281 750 265 750L205 750Q192 750 191.50 760.50Q191 771 200 779L307 881Z"  horiz-adv-x="293" vert-adv-y="1000"  />

      
      <glyph glyph-name="uni012C" unicode="&#x012C;" d="M43 0Q32 0 25.50 8Q19 16 21 27L159 673Q161 684 170.50 692Q180 700 191 700L272 700Q283 700 289.50 692Q296 684 294 673L156 27Q154 16 144.50 8Q135 0 124 0L43 0M249 745Q210 745 183.50 757.50Q157 770 141 789.50Q125 809 119.50 833Q114 857 119 881Q121 889 127 894.50Q133 900 142 900L199 900Q208 900 211.50 894.50Q215 889 214 881Q211 859 220.50 845Q230 831 257 831Q284 831 300.50 845Q317 859 322 881Q324 889 330 894.50Q336 900 345 900L402 900Q411 900 415 894.50Q419 889 417 881Q412 857 402.50 833Q393 809 374 789.50Q355 770 325 757.50Q295 745 249 745Z"  horiz-adv-x="293" vert-adv-y="1000"  />

      
      <glyph glyph-name="unice" unicode="&#xce;" d="M43 0Q32 0 25.50 8Q19 16 21 27L159 673Q161 684 170.50 692Q180 700 191 700L272 700Q283 700 289.50 692Q296 684 294 673L156 27Q154 16 144.50 8Q135 0 124 0L43 0M303 900Q314 900 321 896Q328 892 336 881L406 779Q413 769 407 759.50Q401 750 389 750L354 750Q344 750 338.50 752.50Q333 755 325 761L255 808L168 761Q158 756 151.50 753Q145 750 135 750L87 750Q73 750 71.50 761Q70 772 81 781L193 881Q205 892 214 896Q223 900 234 900L303 900Z"  horiz-adv-x="293" vert-adv-y="1000"  />

      
      <glyph glyph-name="unicf" unicode="&#xcf;" d="M43 0Q32 0 25.50 8Q19 16 21 27L159 673Q161 684 170.50 692Q180 700 191 700L272 700Q283 700 289.50 692Q296 684 294 673L156 27Q154 16 144.50 8Q135 0 124 0L43 0M195 892Q206 892 212 884Q218 876 216 865L198 777Q196 766 186 758Q176 750 165 750L82 750Q71 750 65 758Q59 766 61 777L79 865Q81 876 91 884Q101 892 112 892L195 892M432 892Q443 892 449 884Q455 876 453 865L435 777Q433 766 423 758Q413 750 402 750L319 750Q308 750 302 758Q296 766 298 777L316 865Q318 876 328 884Q338 892 349 892L432 892Z"  horiz-adv-x="293" vert-adv-y="1000"  />

      
      <glyph glyph-name="uni0130" unicode="&#x0130;" d="M43 0Q32 0 25.50 8Q19 16 21 27L159 673Q161 684 170.50 692Q180 700 191 700L272 700Q283 700 289.50 692Q296 684 294 673L156 27Q154 16 144.50 8Q135 0 124 0L43 0M318 897Q329 897 335 889Q341 881 339 870L320 777Q318 766 308 758Q298 750 287 750L199 750Q188 750 181.50 758Q175 766 178 777L197 870Q199 881 209 889Q219 897 230 897L318 897Z"  horiz-adv-x="293" vert-adv-y="1000"  />

      
      <glyph glyph-name="unicc" unicode="&#xcc;" d="M43 0Q32 0 25.50 8Q19 16 21 27L159 673Q161 684 170.50 692Q180 700 191 700L272 700Q283 700 289.50 692Q296 684 294 673L156 27Q154 16 144.50 8Q135 0 124 0L43 0M303 779Q309 769 303 759.50Q297 750 286 750L226 750Q210 750 202.50 755Q195 760 188 767L90 864Q81 873 86 886.50Q91 900 107 900L207 900Q218 900 225 897.50Q232 895 240 881L303 779Z"  horiz-adv-x="293" vert-adv-y="1000"  />

      
      <glyph glyph-name="uni012A" unicode="&#x012A;" d="M43 0Q32 0 25.50 8Q19 16 21 27L159 673Q161 684 170.50 692Q180 700 191 700L272 700Q283 700 289.50 692Q296 684 294 673L156 27Q154 16 144.50 8Q135 0 124 0L43 0M103 750Q92 750 85.50 758Q79 766 82 777L96 843Q98 854 107.50 862Q117 870 128 870L407 870Q418 870 424.50 862Q431 854 429 843L415 777Q413 766 403 758Q393 750 382 750L103 750Z"  horiz-adv-x="293" vert-adv-y="1000"  />

      
      <glyph glyph-name="uni012E" unicode="&#x012E;" d="M118 0Q94 0 75.50-17.50Q57-35 51-64Q44-95 56.50-111.50Q69-128 95-128L110-128Q131-128 128-150L117-198Q115-208 108-214Q101-220 91-220L72-220Q45-220 20.50-207.50Q-4-195-21.50-172.50Q-39-150-47-120Q-55-90-47-54Q-28 34 39 70L168 673Q170 684 179.50 692Q189 700 200 700L281 700Q292 700 298.50 692Q305 684 303 673L165 27Q163 16 153.50 8Q144 0 133 0L118 0Z"  horiz-adv-x="302" vert-adv-y="1000"  />

      
      <glyph glyph-name="uni0128" unicode="&#x0128;" d="M43 0Q32 0 25.50 8Q19 16 21 27L159 673Q161 684 170.50 692Q180 700 191 700L272 700Q283 700 289.50 692Q296 684 294 673L156 27Q154 16 144.50 8Q135 0 124 0L43 0M310 745Q288 745 272.50 750.50Q257 756 244.50 762Q232 768 220.50 773.50Q209 779 195 779Q183 779 177 774.50Q171 770 166 764.50Q161 759 156.50 754.50Q152 750 143 750L87 750Q78 750 74 755.50Q70 761 72 769Q76 788 87 808.50Q98 829 114.50 846Q131 863 153 874Q175 885 202 885Q224 885 239 879.50Q254 874 266.50 868Q279 862 290.50 856.50Q302 851 316 851Q328 851 334.50 855.50Q341 860 345.50 865.50Q350 871 355 875.50Q360 880 369 880L425 880Q434 880 438 874.50Q442 869 440 861Q436 842 425 821.50Q414 801 397.50 784Q381 767 359 756Q337 745 310 745Z"  horiz-adv-x="293" vert-adv-y="1000"  />

      
      <glyph glyph-name="uni4a" unicode="&#x4a;" d="M502 575L174 575Q163 575 156.50 583Q150 591 152 602L168 673Q170 684 179.50 692Q189 700 200 700L636 700Q647 700 653.50 692Q660 684 658 673L568 250Q554 186 529.50 137.50Q505 89 466 56Q427 23 372.50 6.50Q318-10 244-10Q180-10 132 7.50Q84 25 53 55Q22 85 9 125Q-4 165 3 211Q5 223 15 230.50Q25 238 36 238L117 238Q125 238 133 233Q141 228 140 219Q140 199 146 180Q152 161 166 146.50Q180 132 203 123.50Q226 115 261 115Q330 115 375 151Q420 187 434 256L502 575Z"  horiz-adv-x="652" vert-adv-y="1000"  />

      
      <glyph glyph-name="uni0134" unicode="&#x0134;" d="M502 575L174 575Q163 575 156.50 583Q150 591 152 602L168 673Q170 684 179.50 692Q189 700 200 700L636 700Q647 700 653.50 692Q660 684 658 673L568 250Q554 186 529.50 137.50Q505 89 466 56Q427 23 372.50 6.50Q318-10 244-10Q180-10 132 7.50Q84 25 53 55Q22 85 9 125Q-4 165 3 211Q5 223 15 230.50Q25 238 36 238L117 238Q125 238 133 233Q141 228 140 219Q140 199 146 180Q152 161 166 146.50Q180 132 203 123.50Q226 115 261 115Q330 115 375 151Q420 187 434 256L502 575M482 900Q493 900 500 896Q507 892 515 881L585 779Q592 769 586 759.50Q580 750 568 750L533 750Q523 750 517.50 752.50Q512 755 504 761L434 808L347 761Q337 756 330.50 753Q324 750 314 750L266 750Q252 750 250.50 761Q249 772 260 781L372 881Q384 892 393 896Q402 900 413 900L482 900Z"  horiz-adv-x="652" vert-adv-y="1000"  />

      
      <glyph glyph-name="uni4b" unicode="&#x4b;" d="M547 42Q553 33 551 27Q549 16 539.50 8Q530 0 519 0L440 0Q420 0 410 10Q400 20 398 23L214 296L156 27Q154 16 144.50 8Q135 0 124 0L43 0Q32 0 25.50 8Q19 16 21 27L159 673Q161 684 170.50 692Q180 700 191 700L272 700Q283 700 289.50 692Q296 684 294 673L246 443L508 678Q519 688 530 694Q541 700 557 700L660 700Q671 700 677.50 692Q684 684 682 673Q680 666 672 658L335 356L547 42Z"  horiz-adv-x="624" vert-adv-y="1000"  />

      
      <glyph glyph-name="uni0136" unicode="&#x0136;" d="M547 42Q553 33 551 27Q549 16 539.50 8Q530 0 519 0L440 0Q420 0 410 10Q400 20 398 23L214 296L156 27Q154 16 144.50 8Q135 0 124 0L43 0Q32 0 25.50 8Q19 16 21 27L159 673Q161 684 170.50 692Q180 700 191 700L272 700Q283 700 289.50 692Q296 684 294 673L246 443L508 678Q519 688 530 694Q541 700 557 700L660 700Q671 700 677.50 692Q684 684 682 673Q680 666 672 658L335 356L547 42M161-89Q166-75 179-62.50Q192-50 212-50L299-50Q312-50 315.50-60Q319-70 313-81L229-218Q223-228 211-239Q199-250 179-250L127-250Q115-250 111-242Q107-234 110-226L161-89Z"  horiz-adv-x="624" vert-adv-y="1000"  />

      
      <glyph glyph-name="uni4c" unicode="&#x4c;" d="M507 125Q518 125 524.50 117Q531 109 528 98L513 27Q511 16 501.50 8Q492 0 481 0L43 0Q32 0 25.50 8Q19 16 21 27L159 673Q161 684 170.50 692Q180 700 191 700L272 700Q283 700 289.50 692Q296 684 294 673L177 125L507 125Z"  horiz-adv-x="584" vert-adv-y="1000"  />

      
      <glyph glyph-name="uni0139" unicode="&#x0139;" d="M507 125Q518 125 524.50 117Q531 109 528 98L513 27Q511 16 501.50 8Q492 0 481 0L43 0Q32 0 25.50 8Q19 16 21 27L159 673Q161 684 170.50 692Q180 700 191 700L272 700Q283 700 289.50 692Q296 684 294 673L177 125L507 125M301 881Q315 894 323 897Q331 900 342 900L442 900Q456 900 457.50 887.50Q459 875 449 868L305 767Q295 760 285 755Q275 750 259 750L199 750Q186 750 185.50 760.50Q185 771 194 779L301 881Z"  horiz-adv-x="584" vert-adv-y="1000"  />

      
      <glyph glyph-name="uni013D" unicode="&#x013D;" d="M507 125Q518 125 524.50 117Q531 109 528 98L513 27Q511 16 501.50 8Q492 0 481 0L43 0Q32 0 25.50 8Q19 16 21 27L159 673Q161 684 170.50 692Q180 700 191 700L272 700Q283 700 289.50 692Q296 684 294 673L177 125L507 125M394 671Q399 685 412 697.50Q425 710 445 710L532 710Q545 710 548.50 700Q552 690 546 679L462 542Q456 532 444 521Q432 510 412 510L360 510Q348 510 344 518Q340 526 343 534L394 671Z"  horiz-adv-x="584" vert-adv-y="1000"  />

      
      <glyph glyph-name="uni013B" unicode="&#x013B;" d="M507 125Q518 125 524.50 117Q531 109 528 98L513 27Q511 16 501.50 8Q492 0 481 0L43 0Q32 0 25.50 8Q19 16 21 27L159 673Q161 684 170.50 692Q180 700 191 700L272 700Q283 700 289.50 692Q296 684 294 673L177 125L507 125M168-89Q173-75 186-62.50Q199-50 219-50L306-50Q319-50 322.50-60Q326-70 320-81L236-218Q230-228 218-239Q206-250 186-250L134-250Q122-250 118-242Q114-234 117-226L168-89Z"  horiz-adv-x="584" vert-adv-y="1000"  />

      
      <glyph glyph-name="uni013F" unicode="&#x013F;" d="M507 125Q518 125 524.50 117Q531 109 528 98L513 27Q511 16 501.50 8Q492 0 481 0L43 0Q32 0 25.50 8Q19 16 21 27L159 673Q161 684 170.50 692Q180 700 191 700L272 700Q283 700 289.50 692Q296 684 294 673L177 125L507 125M465 434Q476 434 482 426Q488 418 486 407L465 309Q463 298 453.50 290Q444 282 433 282L340 282Q329 282 322.50 290Q316 298 318 309L339 407Q341 418 351 426Q361 434 372 434L465 434Z"  horiz-adv-x="584" vert-adv-y="1000"  />

      
      <glyph glyph-name="uni0141" unicode="&#x0141;" d="M517 125Q528 125 534.50 117Q541 109 538 98L523 27Q521 16 511.50 8Q502 0 491 0L53 0Q42 0 35.50 8Q29 16 31 27L79 251L38 236Q29 233 26 233Q17 233 12 239Q7 245 9 254L20 302Q23 316 29 323Q35 330 49 335L101 354L169 673Q171 684 180.50 692Q190 700 201 700L282 700Q293 700 299.50 692Q306 684 304 673L247 407L405 464Q414 467 417 467Q426 467 430.50 461Q435 455 433 446L423 398Q418 373 394 365L225 304L187 125L517 125Z"  horiz-adv-x="593" vert-adv-y="1000"  />

      
      <glyph glyph-name="uni4d" unicode="&#x4d;" d="M406 342L664 673Q669 678 680.50 689Q692 700 712 700L793 700Q804 700 810.50 692Q817 684 815 673L677 27Q675 16 665.50 8Q656 0 645 0L564 0Q553 0 546.50 8Q540 16 542 27L625 418L451 193Q444 184 433 176Q422 168 408 168L348 168Q334 168 327 176.50Q320 185 317 193L239 418L156 27Q154 16 144.50 8Q135 0 124 0L43 0Q32 0 25.50 8Q19 16 21 27L159 673Q161 684 170.50 692Q180 700 191 700L254 700Q274 700 282 689.50Q290 679 292 673L406 342Z"  horiz-adv-x="814" vert-adv-y="1000"  />

      
      <glyph glyph-name="uni4e" unicode="&#x4e;" d="M482 0Q465 0 457.50 9.50Q450 19 447 24L247 451L156 27Q154 16 144.50 8Q135 0 124 0L43 0Q32 0 25.50 8Q19 16 21 27L159 673Q161 684 170.50 692Q180 700 191 700L249 700Q266 700 273.50 691Q281 682 283 677L486 248L575 673Q577 684 586.50 692Q596 700 607 700L688 700Q699 700 705.50 692Q712 684 710 673L573 27Q571 16 561.50 8Q552 0 541 0L482 0Z"  horiz-adv-x="709" vert-adv-y="1000"  />

      
      <glyph glyph-name="uni0143" unicode="&#x0143;" d="M482 0Q465 0 457.50 9.50Q450 19 447 24L247 451L156 27Q154 16 144.50 8Q135 0 124 0L43 0Q32 0 25.50 8Q19 16 21 27L159 673Q161 684 170.50 692Q180 700 191 700L249 700Q266 700 273.50 691Q281 682 283 677L486 248L575 673Q577 684 586.50 692Q596 700 607 700L688 700Q699 700 705.50 692Q712 684 710 673L573 27Q571 16 561.50 8Q552 0 541 0L482 0M501 881Q515 894 523 897Q531 900 542 900L642 900Q656 900 657.50 887.50Q659 875 649 868L505 767Q495 760 485 755Q475 750 459 750L399 750Q386 750 385.50 760.50Q385 771 394 779L501 881Z"  horiz-adv-x="709" vert-adv-y="1000"  />

      
      <glyph glyph-name="uni0147" unicode="&#x0147;" d="M482 0Q465 0 457.50 9.50Q450 19 447 24L247 451L156 27Q154 16 144.50 8Q135 0 124 0L43 0Q32 0 25.50 8Q19 16 21 27L159 673Q161 684 170.50 692Q180 700 191 700L249 700Q266 700 273.50 691Q281 682 283 677L486 248L575 673Q577 684 586.50 692Q596 700 607 700L688 700Q699 700 705.50 692Q712 684 710 673L573 27Q571 16 561.50 8Q552 0 541 0L482 0M405 750Q394 750 387 754Q380 758 372 769L302 871Q295 881 301 890.50Q307 900 319 900L354 900Q364 900 369.50 897.50Q375 895 383 889L453 842L540 889Q550 894 556.50 897Q563 900 573 900L621 900Q635 900 636.50 889Q638 878 627 869L515 769Q503 758 494 754Q485 750 474 750L405 750Z"  horiz-adv-x="709" vert-adv-y="1000"  />

      
      <glyph glyph-name="uni0145" unicode="&#x0145;" d="M482 0Q465 0 457.50 9.50Q450 19 447 24L247 451L156 27Q154 16 144.50 8Q135 0 124 0L43 0Q32 0 25.50 8Q19 16 21 27L159 673Q161 684 170.50 692Q180 700 191 700L249 700Q266 700 273.50 691Q281 682 283 677L486 248L575 673Q577 684 586.50 692Q596 700 607 700L688 700Q699 700 705.50 692Q712 684 710 673L573 27Q571 16 561.50 8Q552 0 541 0L482 0M192-89Q197-75 210-62.50Q223-50 243-50L330-50Q343-50 346.50-60Q350-70 344-81L260-218Q254-228 242-239Q230-250 210-250L158-250Q146-250 142-242Q138-234 141-226L192-89Z"  horiz-adv-x="709" vert-adv-y="1000"  />

      
      <glyph glyph-name="unid1" unicode="&#xd1;" d="M482 0Q465 0 457.50 9.50Q450 19 447 24L247 451L156 27Q154 16 144.50 8Q135 0 124 0L43 0Q32 0 25.50 8Q19 16 21 27L159 673Q161 684 170.50 692Q180 700 191 700L249 700Q266 700 273.50 691Q281 682 283 677L486 248L575 673Q577 684 586.50 692Q596 700 607 700L688 700Q699 700 705.50 692Q712 684 710 673L573 27Q571 16 561.50 8Q552 0 541 0L482 0M514 745Q492 745 476.50 750.50Q461 756 448.50 762Q436 768 424.50 773.50Q413 779 399 779Q387 779 381 774.50Q375 770 370 764.50Q365 759 360.50 754.50Q356 750 347 750L291 750Q282 750 278 755.50Q274 761 276 769Q280 788 291 808.50Q302 829 318.50 846Q335 863 357 874Q379 885 406 885Q428 885 443 879.50Q458 874 470.50 868Q483 862 494.50 856.50Q506 851 520 851Q532 851 538.50 855.50Q545 860 549.50 865.50Q554 871 559 875.50Q564 880 573 880L629 880Q638 880 642 874.50Q646 869 644 861Q640 842 629 821.50Q618 801 601.50 784Q585 767 563 756Q541 745 514 745Z"  horiz-adv-x="709" vert-adv-y="1000"  />

      
      <glyph glyph-name="uni4f" unicode="&#x4f;" d="M84 439Q99 495 125 544.50Q151 594 192 630.50Q233 667 290.50 688.50Q348 710 425 710Q491 710 541 689Q591 668 623.50 631Q656 594 668.50 545Q681 496 672 439Q669 420 664.50 397Q660 374 654.50 349.50Q649 325 643.50 302Q638 279 634 260Q619 204 594.50 154.50Q570 105 529.50 68.50Q489 32 431 11Q373-10 292-10Q226-10 176 11Q126 32 94 68.50Q62 105 49.50 154.50Q37 204 46 260Q49 279 53.50 302Q58 325 63 349.50Q68 374 73.50 397Q79 420 84 439M536 434Q547 506 513 545.50Q479 585 409 585Q339 585 288 545.50Q237 506 218 434Q207 396 197 349.50Q187 303 182 265Q170 193 204.50 154Q239 115 309 115Q379 115 429.50 154Q480 193 500 265Q510 303 520 349.50Q530 396 536 434Z"  horiz-adv-x="695" vert-adv-y="1000"  />

      
      <glyph glyph-name="unid3" unicode="&#xd3;" d="M84 439Q99 495 125 544.50Q151 594 192 630.50Q233 667 290.50 688.50Q348 710 425 710Q491 710 541 689Q591 668 623.50 631Q656 594 668.50 545Q681 496 672 439Q669 420 664.50 397Q660 374 654.50 349.50Q649 325 643.50 302Q638 279 634 260Q619 204 594.50 154.50Q570 105 529.50 68.50Q489 32 431 11Q373-10 292-10Q226-10 176 11Q126 32 94 68.50Q62 105 49.50 154.50Q37 204 46 260Q49 279 53.50 302Q58 325 63 349.50Q68 374 73.50 397Q79 420 84 439M536 434Q547 506 513 545.50Q479 585 409 585Q339 585 288 545.50Q237 506 218 434Q207 396 197 349.50Q187 303 182 265Q170 193 204.50 154Q239 115 309 115Q379 115 429.50 154Q480 193 500 265Q510 303 520 349.50Q530 396 536 434M492 881Q506 894 514 897Q522 900 533 900L633 900Q647 900 648.50 887.50Q650 875 640 868L496 767Q486 760 476 755Q466 750 450 750L390 750Q377 750 376.50 760.50Q376 771 385 779L492 881Z"  horiz-adv-x="695" vert-adv-y="1000"  />

      
      <glyph glyph-name="uni014E" unicode="&#x014E;" d="M84 439Q99 495 125 544.50Q151 594 192 630.50Q233 667 290.50 688.50Q348 710 425 710Q491 710 541 689Q591 668 623.50 631Q656 594 668.50 545Q681 496 672 439Q669 420 664.50 397Q660 374 654.50 349.50Q649 325 643.50 302Q638 279 634 260Q619 204 594.50 154.50Q570 105 529.50 68.50Q489 32 431 11Q373-10 292-10Q226-10 176 11Q126 32 94 68.50Q62 105 49.50 154.50Q37 204 46 260Q49 279 53.50 302Q58 325 63 349.50Q68 374 73.50 397Q79 420 84 439M536 434Q547 506 513 545.50Q479 585 409 585Q339 585 288 545.50Q237 506 218 434Q207 396 197 349.50Q187 303 182 265Q170 193 204.50 154Q239 115 309 115Q379 115 429.50 154Q480 193 500 265Q510 303 520 349.50Q530 396 536 434M441 745Q402 745 375.50 757.50Q349 770 333 789.50Q317 809 311.50 833Q306 857 311 881Q313 889 319 894.50Q325 900 334 900L391 900Q400 900 403.50 894.50Q407 889 406 881Q403 859 412.50 845Q422 831 449 831Q476 831 492.50 845Q509 859 514 881Q516 889 522 894.50Q528 900 537 900L594 900Q603 900 607 894.50Q611 889 609 881Q604 857 594.50 833Q585 809 566 789.50Q547 770 517 757.50Q487 745 441 745Z"  horiz-adv-x="695" vert-adv-y="1000"  />

      
      <glyph glyph-name="unid4" unicode="&#xd4;" d="M84 439Q99 495 125 544.50Q151 594 192 630.50Q233 667 290.50 688.50Q348 710 425 710Q491 710 541 689Q591 668 623.50 631Q656 594 668.50 545Q681 496 672 439Q669 420 664.50 397Q660 374 654.50 349.50Q649 325 643.50 302Q638 279 634 260Q619 204 594.50 154.50Q570 105 529.50 68.50Q489 32 431 11Q373-10 292-10Q226-10 176 11Q126 32 94 68.50Q62 105 49.50 154.50Q37 204 46 260Q49 279 53.50 302Q58 325 63 349.50Q68 374 73.50 397Q79 420 84 439M536 434Q547 506 513 545.50Q479 585 409 585Q339 585 288 545.50Q237 506 218 434Q207 396 197 349.50Q187 303 182 265Q170 193 204.50 154Q239 115 309 115Q379 115 429.50 154Q480 193 500 265Q510 303 520 349.50Q530 396 536 434M493 900Q504 900 511 896Q518 892 526 881L596 779Q603 769 597 759.50Q591 750 579 750L544 750Q534 750 528.50 752.50Q523 755 515 761L445 808L358 761Q348 756 341.50 753Q335 750 325 750L277 750Q263 750 261.50 761Q260 772 271 781L383 881Q395 892 404 896Q413 900 424 900L493 900Z"  horiz-adv-x="695" vert-adv-y="1000"  />

      
      <glyph glyph-name="unid6" unicode="&#xd6;" d="M84 439Q99 495 125 544.50Q151 594 192 630.50Q233 667 290.50 688.50Q348 710 425 710Q491 710 541 689Q591 668 623.50 631Q656 594 668.50 545Q681 496 672 439Q669 420 664.50 397Q660 374 654.50 349.50Q649 325 643.50 302Q638 279 634 260Q619 204 594.50 154.50Q570 105 529.50 68.50Q489 32 431 11Q373-10 292-10Q226-10 176 11Q126 32 94 68.50Q62 105 49.50 154.50Q37 204 46 260Q49 279 53.50 302Q58 325 63 349.50Q68 374 73.50 397Q79 420 84 439M536 434Q547 506 513 545.50Q479 585 409 585Q339 585 288 545.50Q237 506 218 434Q207 396 197 349.50Q187 303 182 265Q170 193 204.50 154Q239 115 309 115Q379 115 429.50 154Q480 193 500 265Q510 303 520 349.50Q530 396 536 434M382 892Q393 892 399 884Q405 876 403 865L385 777Q383 766 373 758Q363 750 352 750L269 750Q258 750 252 758Q246 766 248 777L266 865Q268 876 278 884Q288 892 299 892L382 892M619 892Q630 892 636 884Q642 876 640 865L622 777Q620 766 610 758Q600 750 589 750L506 750Q495 750 489 758Q483 766 485 777L503 865Q505 876 515 884Q525 892 536 892L619 892Z"  horiz-adv-x="695" vert-adv-y="1000"  />

      
      <glyph glyph-name="unid2" unicode="&#xd2;" d="M84 439Q99 495 125 544.50Q151 594 192 630.50Q233 667 290.50 688.50Q348 710 425 710Q491 710 541 689Q591 668 623.50 631Q656 594 668.50 545Q681 496 672 439Q669 420 664.50 397Q660 374 654.50 349.50Q649 325 643.50 302Q638 279 634 260Q619 204 594.50 154.50Q570 105 529.50 68.50Q489 32 431 11Q373-10 292-10Q226-10 176 11Q126 32 94 68.50Q62 105 49.50 154.50Q37 204 46 260Q49 279 53.50 302Q58 325 63 349.50Q68 374 73.50 397Q79 420 84 439M536 434Q547 506 513 545.50Q479 585 409 585Q339 585 288 545.50Q237 506 218 434Q207 396 197 349.50Q187 303 182 265Q170 193 204.50 154Q239 115 309 115Q379 115 429.50 154Q480 193 500 265Q510 303 520 349.50Q530 396 536 434M476 779Q482 769 476 759.50Q470 750 459 750L399 750Q383 750 375.50 755Q368 760 361 767L263 864Q254 873 259 886.50Q264 900 280 900L380 900Q391 900 398 897.50Q405 895 413 881L476 779Z"  horiz-adv-x="695" vert-adv-y="1000"  />

      
      <glyph glyph-name="uni0150" unicode="&#x0150;" d="M84 439Q99 495 125 544.50Q151 594 192 630.50Q233 667 290.50 688.50Q348 710 425 710Q491 710 541 689Q591 668 623.50 631Q656 594 668.50 545Q681 496 672 439Q669 420 664.50 397Q660 374 654.50 349.50Q649 325 643.50 302Q638 279 634 260Q619 204 594.50 154.50Q570 105 529.50 68.50Q489 32 431 11Q373-10 292-10Q226-10 176 11Q126 32 94 68.50Q62 105 49.50 154.50Q37 204 46 260Q49 279 53.50 302Q58 325 63 349.50Q68 374 73.50 397Q79 420 84 439M536 434Q547 506 513 545.50Q479 585 409 585Q339 585 288 545.50Q237 506 218 434Q207 396 197 349.50Q187 303 182 265Q170 193 204.50 154Q239 115 309 115Q379 115 429.50 154Q480 193 500 265Q510 303 520 349.50Q530 396 536 434M357 881Q364 891 373 895.50Q382 900 398 900L496 900Q511 900 513 889Q515 878 505 870L385 764Q369 750 348 750L295 750Q284 750 282 757.50Q280 765 286 774L357 881M563 881Q570 891 579 895.50Q588 900 604 900L702 900Q717 900 719 889Q721 878 711 870L591 764Q575 750 554 750L501 750Q490 750 488 757.50Q486 765 492 774L563 881Z"  horiz-adv-x="695" vert-adv-y="1000"  />

      
      <glyph glyph-name="uni014C" unicode="&#x014C;" d="M84 439Q99 495 125 544.50Q151 594 192 630.50Q233 667 290.50 688.50Q348 710 425 710Q491 710 541 689Q591 668 623.50 631Q656 594 668.50 545Q681 496 672 439Q669 420 664.50 397Q660 374 654.50 349.50Q649 325 643.50 302Q638 279 634 260Q619 204 594.50 154.50Q570 105 529.50 68.50Q489 32 431 11Q373-10 292-10Q226-10 176 11Q126 32 94 68.50Q62 105 49.50 154.50Q37 204 46 260Q49 279 53.50 302Q58 325 63 349.50Q68 374 73.50 397Q79 420 84 439M536 434Q547 506 513 545.50Q479 585 409 585Q339 585 288 545.50Q237 506 218 434Q207 396 197 349.50Q187 303 182 265Q170 193 204.50 154Q239 115 309 115Q379 115 429.50 154Q480 193 500 265Q510 303 520 349.50Q530 396 536 434M294 750Q283 750 276.50 758Q270 766 273 777L287 843Q289 854 298.50 862Q308 870 319 870L598 870Q609 870 615.50 862Q622 854 620 843L606 777Q604 766 594 758Q584 750 573 750L294 750Z"  horiz-adv-x="695" vert-adv-y="1000"  />

      
      <glyph glyph-name="unid8" unicode="&#xd8;" d="M101 439Q116 495 142 544.50Q168 594 209 630.50Q250 667 307.50 688.50Q365 710 442 710Q497 710 541 695Q585 680 616.50 654Q648 628 667 591.50Q686 555 691 512L731 527Q738 530 742 530Q751 530 756 524Q761 518 759 509L748 461Q744 436 719 428L685 416Q678 379 668.50 335.50Q659 292 651 260Q636 204 611.50 154.50Q587 105 546.50 68.50Q506 32 448 11Q390-10 309-10Q253-10 209 5Q165 20 133 46.50Q101 73 82.50 109.50Q64 146 60 189L22 176Q13 173 10 173Q1 173-3.50 179Q-8 185-6 194L4 242Q9 267 33 275L67 287Q74 324 83 365.50Q92 407 101 439M517 265Q522 287 528.50 312Q535 337 540 363L196 239Q193 179 228 147Q263 115 326 115Q396 115 446.50 154Q497 193 517 265M235 434Q223 392 212 340L555 463Q557 522 523 553.50Q489 585 426 585Q356 585 305 545.50Q254 506 235 434Z"  horiz-adv-x="729" vert-adv-y="1000"  />

      
      <glyph glyph-name="uni01FE" unicode="&#x01FE;" d="M508 881Q522 894 530 897Q538 900 549 900L649 900Q663 900 664.50 887.50Q666 875 656 868L512 767Q502 760 492 755Q482 750 466 750L406 750Q393 750 392.50 760.50Q392 771 401 779L508 881M101 439Q116 495 142 544.50Q168 594 209 630.50Q250 667 307.50 688.50Q365 710 442 710Q497 710 541 695Q585 680 616.50 654Q648 628 667 591.50Q686 555 691 512L731 527Q738 530 742 530Q751 530 756 524Q761 518 759 509L748 461Q744 436 719 428L685 416Q678 379 668.50 335.50Q659 292 651 260Q636 204 611.50 154.50Q587 105 546.50 68.50Q506 32 448 11Q390-10 309-10Q253-10 209 5Q165 20 133 46.50Q101 73 82.50 109.50Q64 146 60 189L22 176Q13 173 10 173Q1 173-3.50 179Q-8 185-6 194L4 242Q9 267 33 275L67 287Q74 324 83 365.50Q92 407 101 439M517 265Q522 287 528.50 312Q535 337 540 363L196 239Q193 179 228 147Q263 115 326 115Q396 115 446.50 154Q497 193 517 265M235 434Q223 392 212 340L555 463Q557 522 523 553.50Q489 585 426 585Q356 585 305 545.50Q254 506 235 434Z"  horiz-adv-x="729" vert-adv-y="1000"  />

      
      <glyph glyph-name="unid5" unicode="&#xd5;" d="M84 439Q99 495 125 544.50Q151 594 192 630.50Q233 667 290.50 688.50Q348 710 425 710Q491 710 541 689Q591 668 623.50 631Q656 594 668.50 545Q681 496 672 439Q669 420 664.50 397Q660 374 654.50 349.50Q649 325 643.50 302Q638 279 634 260Q619 204 594.50 154.50Q570 105 529.50 68.50Q489 32 431 11Q373-10 292-10Q226-10 176 11Q126 32 94 68.50Q62 105 49.50 154.50Q37 204 46 260Q49 279 53.50 302Q58 325 63 349.50Q68 374 73.50 397Q79 420 84 439M536 434Q547 506 513 545.50Q479 585 409 585Q339 585 288 545.50Q237 506 218 434Q207 396 197 349.50Q187 303 182 265Q170 193 204.50 154Q239 115 309 115Q379 115 429.50 154Q480 193 500 265Q510 303 520 349.50Q530 396 536 434M512 745Q490 745 474.50 750.50Q459 756 446.50 762Q434 768 422.50 773.50Q411 779 397 779Q385 779 379 774.50Q373 770 368 764.50Q363 759 358.50 754.50Q354 750 345 750L289 750Q280 750 276 755.50Q272 761 274 769Q278 788 289 808.50Q300 829 316.50 846Q333 863 355 874Q377 885 404 885Q426 885 441 879.50Q456 874 468.50 868Q481 862 492.50 856.50Q504 851 518 851Q530 851 536.50 855.50Q543 860 547.50 865.50Q552 871 557 875.50Q562 880 571 880L627 880Q636 880 640 874.50Q644 869 642 861Q638 842 627 821.50Q616 801 599.50 784Q583 767 561 756Q539 745 512 745Z"  horiz-adv-x="695" vert-adv-y="1000"  />

      
      <glyph glyph-name="uni0152" unicode="&#x0152;" d="M983 700Q994 700 1000.50 692Q1007 684 1005 673L989 602Q987 591 977.50 583Q968 575 957 575L634 575L600 416L901 416Q912 416 918 408Q924 400 922 389L907 318Q905 307 895 299Q885 291 874 291L573 291L538 125L869 125Q880 125 886.50 117Q893 109 890 98L875 27Q873 16 863.50 8Q854 0 843 0L294 0Q229 0 179 19.50Q129 39 96.50 75Q64 111 51 162Q38 213 48 276Q54 314 61.50 350Q69 386 80 424Q97 487 124.50 538Q152 589 193 625Q234 661 291.50 680.50Q349 700 427 700L983 700M215 424Q204 386 196.50 350Q189 314 183 276Q178 244 182.50 216Q187 188 203 168Q219 148 246.50 136.50Q274 125 315 125L403 125L499 575L416 575Q373 575 339.50 563.50Q306 552 281 531.50Q256 511 240 483.50Q224 456 215 424Z"  horiz-adv-x="978" vert-adv-y="1000"  />

      
      <glyph glyph-name="uni50" unicode="&#x50;" d="M449 700Q505 700 550.50 685.50Q596 671 626 642.50Q656 614 667.50 572.50Q679 531 667 476Q655 421 633.50 379Q612 337 576.50 308.50Q541 280 491 265Q441 250 374 250L204 250L156 27Q154 16 144.50 8Q135 0 124 0L43 0Q32 0 25.50 8Q19 16 21 27L159 673Q161 684 170.50 692Q180 700 191 700L449 700M230 375L385 375Q442 375 481 397Q520 419 532 476Q544 532 514.50 553.50Q485 575 428 575L273 575L230 375Z"  horiz-adv-x="660" vert-adv-y="1000"  />

      
      <glyph glyph-name="uni51" unicode="&#x51;" d="M84 439Q99 495 125 544.50Q151 594 192 630.50Q233 667 290.50 688.50Q348 710 425 710Q491 710 541 689Q591 668 623.50 631Q656 594 668.50 545Q681 496 672 439Q669 420 664.50 397Q660 374 654.50 349.50Q649 325 643.50 302Q638 279 634 260Q619 203 593.50 153Q568 103 526 66L575-34Q578-39 576-43Q575-53 567.50-59Q560-65 551-65L456-65Q438-64 431-55Q424-46 421-40L401 2Q353-10 292-10Q226-10 176 11Q126 32 94 68.50Q62 105 49.50 154.50Q37 204 46 260Q49 279 53.50 302Q58 325 63 349.50Q68 374 73.50 397Q79 420 84 439M536 434Q547 506 513 545.50Q479 585 409 585Q339 585 288 545.50Q237 506 218 434Q207 396 197 349.50Q187 303 182 265Q170 193 204.50 154Q239 115 309 115Q379 115 429.50 154Q480 193 500 265Q510 303 520 349.50Q530 396 536 434Z"  horiz-adv-x="695" vert-adv-y="1000"  />

      
      <glyph glyph-name="uni52" unicode="&#x52;" d="M439 700Q497 700 542.50 685Q588 670 617.50 641.50Q647 613 658 572.50Q669 532 658 481Q650 445 637 414.50Q624 384 603.50 359Q583 334 553.50 314.50Q524 295 483 280L569 33Q572 21 563.50 10.50Q555 0 543 0L471 0Q451 0 443 9.50Q435 19 433 27L352 260L206 260L156 27Q154 16 144.50 8Q135 0 124 0L43 0Q32 0 25.50 8Q19 16 21 27L159 673Q161 684 170.50 692Q180 700 191 700L439 700M232 385L377 385Q434 385 472.50 405Q511 425 523 481Q529 509 524 527.50Q519 546 505 556.50Q491 567 468.50 571Q446 575 418 575L273 575L232 385Z"  horiz-adv-x="669" vert-adv-y="1000"  />

      
      <glyph glyph-name="uni0154" unicode="&#x0154;" d="M439 700Q497 700 542.50 685Q588 670 617.50 641.50Q647 613 658 572.50Q669 532 658 481Q650 445 637 414.50Q624 384 603.50 359Q583 334 553.50 314.50Q524 295 483 280L569 33Q572 21 563.50 10.50Q555 0 543 0L471 0Q451 0 443 9.50Q435 19 433 27L352 260L206 260L156 27Q154 16 144.50 8Q135 0 124 0L43 0Q32 0 25.50 8Q19 16 21 27L159 673Q161 684 170.50 692Q180 700 191 700L439 700M232 385L377 385Q434 385 472.50 405Q511 425 523 481Q529 509 524 527.50Q519 546 505 556.50Q491 567 468.50 571Q446 575 418 575L273 575L232 385M461 881Q475 894 483 897Q491 900 502 900L602 900Q616 900 617.50 887.50Q619 875 609 868L465 767Q455 760 445 755Q435 750 419 750L359 750Q346 750 345.50 760.50Q345 771 354 779L461 881Z"  horiz-adv-x="669" vert-adv-y="1000"  />

      
      <glyph glyph-name="uni0158" unicode="&#x0158;" d="M439 700Q497 700 542.50 685Q588 670 617.50 641.50Q647 613 658 572.50Q669 532 658 481Q650 445 637 414.50Q624 384 603.50 359Q583 334 553.50 314.50Q524 295 483 280L569 33Q572 21 563.50 10.50Q555 0 543 0L471 0Q451 0 443 9.50Q435 19 433 27L352 260L206 260L156 27Q154 16 144.50 8Q135 0 124 0L43 0Q32 0 25.50 8Q19 16 21 27L159 673Q161 684 170.50 692Q180 700 191 700L439 700M232 385L377 385Q434 385 472.50 405Q511 425 523 481Q529 509 524 527.50Q519 546 505 556.50Q491 567 468.50 571Q446 575 418 575L273 575L232 385M364 750Q353 750 346 754Q339 758 331 769L261 871Q254 881 260 890.50Q266 900 278 900L313 900Q323 900 328.50 897.50Q334 895 342 889L412 842L499 889Q509 894 515.50 897Q522 900 532 900L580 900Q594 900 595.50 889Q597 878 586 869L474 769Q462 758 453 754Q444 750 433 750L364 750Z"  horiz-adv-x="669" vert-adv-y="1000"  />

      
      <glyph glyph-name="uni0156" unicode="&#x0156;" d="M439 700Q497 700 542.50 685Q588 670 617.50 641.50Q647 613 658 572.50Q669 532 658 481Q650 445 637 414.50Q624 384 603.50 359Q583 334 553.50 314.50Q524 295 483 280L569 33Q572 21 563.50 10.50Q555 0 543 0L471 0Q451 0 443 9.50Q435 19 433 27L352 260L206 260L156 27Q154 16 144.50 8Q135 0 124 0L43 0Q32 0 25.50 8Q19 16 21 27L159 673Q161 684 170.50 692Q180 700 191 700L439 700M232 385L377 385Q434 385 472.50 405Q511 425 523 481Q529 509 524 527.50Q519 546 505 556.50Q491 567 468.50 571Q446 575 418 575L273 575L232 385M184-89Q189-75 202-62.50Q215-50 235-50L322-50Q335-50 338.50-60Q342-70 336-81L252-218Q246-228 234-239Q222-250 202-250L150-250Q138-250 134-242Q130-234 133-226L184-89Z"  horiz-adv-x="669" vert-adv-y="1000"  />

      
      <glyph glyph-name="uni53" unicode="&#x53;" d="M394 710Q458 710 506 692Q554 674 585 647Q616 620 629.50 587.50Q643 555 639 526Q637 514 627.50 506.50Q618 499 607 499L537 499Q520 499 512.50 505.50Q505 512 501 523Q491 548 464.50 566.50Q438 585 378 585Q325 585 283 563.50Q241 542 233 504Q228 481 234.50 466.50Q241 452 261 440.50Q281 429 316 420Q351 411 404 399Q519 373 561.50 319.50Q604 266 588 189Q579 144 557 107.50Q535 71 497.50 44.50Q460 18 405.50 4Q351-10 276-10Q223-10 172.50 3.50Q122 17 83.50 42.50Q45 68 24 104Q3 140 10 184Q12 196 21.50 203.50Q31 211 42 211L112 211Q129 211 137 205Q145 199 148 187Q152 174 159.50 161Q167 148 182 138Q197 128 221 121.50Q245 115 283 115Q313 115 342 119.50Q371 124 394.50 134.50Q418 145 434 160.50Q450 176 455 199Q460 221 448.50 235Q437 249 411 259.50Q385 270 345 279.50Q305 289 252 303Q156 328 120 380Q84 432 100 514Q117 605 191.50 657.50Q266 710 394 710Z"  horiz-adv-x="647" vert-adv-y="1000"  />

      
      <glyph glyph-name="uni015A" unicode="&#x015A;" d="M394 710Q458 710 506 692Q554 674 585 647Q616 620 629.50 587.50Q643 555 639 526Q637 514 627.50 506.50Q618 499 607 499L537 499Q520 499 512.50 505.50Q505 512 501 523Q491 548 464.50 566.50Q438 585 378 585Q325 585 283 563.50Q241 542 233 504Q228 481 234.50 466.50Q241 452 261 440.50Q281 429 316 420Q351 411 404 399Q519 373 561.50 319.50Q604 266 588 189Q579 144 557 107.50Q535 71 497.50 44.50Q460 18 405.50 4Q351-10 276-10Q223-10 172.50 3.50Q122 17 83.50 42.50Q45 68 24 104Q3 140 10 184Q12 196 21.50 203.50Q31 211 42 211L112 211Q129 211 137 205Q145 199 148 187Q152 174 159.50 161Q167 148 182 138Q197 128 221 121.50Q245 115 283 115Q313 115 342 119.50Q371 124 394.50 134.50Q418 145 434 160.50Q450 176 455 199Q460 221 448.50 235Q437 249 411 259.50Q385 270 345 279.50Q305 289 252 303Q156 328 120 380Q84 432 100 514Q117 605 191.50 657.50Q266 710 394 710M472 881Q486 894 494 897Q502 900 513 900L613 900Q627 900 628.50 887.50Q630 875 620 868L476 767Q466 760 456 755Q446 750 430 750L370 750Q357 750 356.50 760.50Q356 771 365 779L472 881Z"  horiz-adv-x="647" vert-adv-y="1000"  />

      
      <glyph glyph-name="uni0160" unicode="&#x0160;" d="M394 710Q458 710 506 692Q554 674 585 647Q616 620 629.50 587.50Q643 555 639 526Q637 514 627.50 506.50Q618 499 607 499L537 499Q520 499 512.50 505.50Q505 512 501 523Q491 548 464.50 566.50Q438 585 378 585Q325 585 283 563.50Q241 542 233 504Q228 481 234.50 466.50Q241 452 261 440.50Q281 429 316 420Q351 411 404 399Q519 373 561.50 319.50Q604 266 588 189Q579 144 557 107.50Q535 71 497.50 44.50Q460 18 405.50 4Q351-10 276-10Q223-10 172.50 3.50Q122 17 83.50 42.50Q45 68 24 104Q3 140 10 184Q12 196 21.50 203.50Q31 211 42 211L112 211Q129 211 137 205Q145 199 148 187Q152 174 159.50 161Q167 148 182 138Q197 128 221 121.50Q245 115 283 115Q313 115 342 119.50Q371 124 394.50 134.50Q418 145 434 160.50Q450 176 455 199Q460 221 448.50 235Q437 249 411 259.50Q385 270 345 279.50Q305 289 252 303Q156 328 120 380Q84 432 100 514Q117 605 191.50 657.50Q266 710 394 710M378 750Q367 750 360 754Q353 758 345 769L275 871Q268 881 274 890.50Q280 900 292 900L327 900Q337 900 342.50 897.50Q348 895 356 889L426 842L513 889Q523 894 529.50 897Q536 900 546 900L594 900Q608 900 609.50 889Q611 878 600 869L488 769Q476 758 467 754Q458 750 447 750L378 750Z"  horiz-adv-x="647" vert-adv-y="1000"  />

      
      <glyph glyph-name="uni015E" unicode="&#x015E;" d="M394 710Q458 710 506 692Q554 674 585 647Q616 620 629.50 587.50Q643 555 639 526Q637 514 627.50 506.50Q618 499 607 499L537 499Q520 499 512.50 505.50Q505 512 501 523Q491 548 464.50 566.50Q438 585 378 585Q325 585 283 563.50Q241 542 233 504Q228 481 234.50 466.50Q241 452 261 440.50Q281 429 316 420Q351 411 404 399Q519 373 561.50 319.50Q604 266 588 189Q579 144 557 107.50Q535 71 497.50 44.50Q460 18 405.50 4Q351-10 276-10L265-10L234-56Q241-52 250.50-49Q260-46 271-46Q304-46 320-72.50Q336-99 328-135Q320-171 295-195.50Q270-220 221-220Q203-220 185-215Q167-210 155-202.50Q143-195 139-186Q135-177 145-169L161-156Q171-149 176-149Q181-149 186.50-152.50Q192-156 200-160Q208-164 223-164Q261-164 267-132Q273-102 236-102Q228-102 220-105Q212-108 205-110Q198-112 192-112Q186-112 181-106L169-88Q164-80 164-74.50Q164-69 174-55L208-4Q165 3 126.50 19.50Q88 36 60 60Q32 84 18 115.50Q4 147 10 184Q12 196 21.50 203.50Q31 211 42 211L112 211Q129 211 137 205Q145 199 148 187Q152 174 159.50 161Q167 148 182 138Q197 128 221 121.50Q245 115 283 115Q313 115 342 119.50Q371 124 394.50 134.50Q418 145 434 160.50Q450 176 455 199Q460 221 448.50 235Q437 249 411 259.50Q385 270 345 279.50Q305 289 252 303Q156 328 120 380Q84 432 100 514Q117 605 191.50 657.50Q266 710 394 710Z"  horiz-adv-x="647" vert-adv-y="1000"  />

      
      <glyph glyph-name="uni015C" unicode="&#x015C;" d="M394 710Q458 710 506 692Q554 674 585 647Q616 620 629.50 587.50Q643 555 639 526Q637 514 627.50 506.50Q618 499 607 499L537 499Q520 499 512.50 505.50Q505 512 501 523Q491 548 464.50 566.50Q438 585 378 585Q325 585 283 563.50Q241 542 233 504Q228 481 234.50 466.50Q241 452 261 440.50Q281 429 316 420Q351 411 404 399Q519 373 561.50 319.50Q604 266 588 189Q579 144 557 107.50Q535 71 497.50 44.50Q460 18 405.50 4Q351-10 276-10Q223-10 172.50 3.50Q122 17 83.50 42.50Q45 68 24 104Q3 140 10 184Q12 196 21.50 203.50Q31 211 42 211L112 211Q129 211 137 205Q145 199 148 187Q152 174 159.50 161Q167 148 182 138Q197 128 221 121.50Q245 115 283 115Q313 115 342 119.50Q371 124 394.50 134.50Q418 145 434 160.50Q450 176 455 199Q460 221 448.50 235Q437 249 411 259.50Q385 270 345 279.50Q305 289 252 303Q156 328 120 380Q84 432 100 514Q117 605 191.50 657.50Q266 710 394 710M470 900Q481 900 488 896Q495 892 503 881L573 779Q580 769 574 759.50Q568 750 556 750L521 750Q511 750 505.50 752.50Q500 755 492 761L422 808L335 761Q325 756 318.50 753Q312 750 302 750L254 750Q240 750 238.50 761Q237 772 248 781L360 881Q372 892 381 896Q390 900 401 900L470 900Z"  horiz-adv-x="647" vert-adv-y="1000"  />

      
      <glyph glyph-name="uni0218" unicode="&#x0218;" d="M394 710Q458 710 506 692Q554 674 585 647Q616 620 629.50 587.50Q643 555 639 526Q637 514 627.50 506.50Q618 499 607 499L537 499Q520 499 512.50 505.50Q505 512 501 523Q491 548 464.50 566.50Q438 585 378 585Q325 585 283 563.50Q241 542 233 504Q228 481 234.50 466.50Q241 452 261 440.50Q281 429 316 420Q351 411 404 399Q519 373 561.50 319.50Q604 266 588 189Q579 144 557 107.50Q535 71 497.50 44.50Q460 18 405.50 4Q351-10 276-10Q223-10 172.50 3.50Q122 17 83.50 42.50Q45 68 24 104Q3 140 10 184Q12 196 21.50 203.50Q31 211 42 211L112 211Q129 211 137 205Q145 199 148 187Q152 174 159.50 161Q167 148 182 138Q197 128 221 121.50Q245 115 283 115Q313 115 342 119.50Q371 124 394.50 134.50Q418 145 434 160.50Q450 176 455 199Q460 221 448.50 235Q437 249 411 259.50Q385 270 345 279.50Q305 289 252 303Q156 328 120 380Q84 432 100 514Q117 605 191.50 657.50Q266 710 394 710M155-89Q160-75 173-62.50Q186-50 206-50L293-50Q306-50 309.50-60Q313-70 307-81L223-218Q217-228 205-239Q193-250 173-250L121-250Q109-250 105-242Q101-234 104-226L155-89Z"  horiz-adv-x="647" vert-adv-y="1000"  />

      
      <glyph glyph-name="uni54" unicode="&#x54;" d="M628 700Q639 700 645.50 692Q652 684 650 673L634 602Q632 591 622.50 583Q613 575 602 575L422 575L305 27Q303 16 293.50 8Q284 0 273 0L192 0Q181 0 174.50 8Q168 16 170 27L287 575L107 575Q96 575 89.50 583Q83 591 85 602L101 673Q103 684 112.50 692Q122 700 133 700L628 700Z"  horiz-adv-x="590" vert-adv-y="1000"  />

      
      <glyph glyph-name="uni0166" unicode="&#x0166;" d="M633 700Q644 700 650.50 692Q657 684 655 673L639 602Q637 591 627.50 583Q618 575 607 575L427 575L393 418L497 418Q508 418 514.50 410Q521 402 519 391L505 328Q503 317 493 309Q483 301 472 301L368 301L310 27Q308 16 298.50 8Q289 0 278 0L197 0Q186 0 179.50 8Q173 16 175 27L233 301L127 301Q116 301 110 309Q104 317 106 328L120 391Q122 402 131.50 410Q141 418 152 418L258 418L292 575L112 575Q101 575 94.50 583Q88 591 90 602L106 673Q108 684 117.50 692Q127 700 138 700L633 700Z"  horiz-adv-x="601" vert-adv-y="1000"  />

      
      <glyph glyph-name="uni0164" unicode="&#x0164;" d="M628 700Q639 700 645.50 692Q652 684 650 673L634 602Q632 591 622.50 583Q613 575 602 575L422 575L305 27Q303 16 293.50 8Q284 0 273 0L192 0Q181 0 174.50 8Q168 16 170 27L287 575L107 575Q96 575 89.50 583Q83 591 85 602L101 673Q103 684 112.50 692Q122 700 133 700L628 700M351 750Q340 750 333 754Q326 758 318 769L248 871Q241 881 247 890.50Q253 900 265 900L300 900Q310 900 315.50 897.50Q321 895 329 889L399 842L486 889Q496 894 502.50 897Q509 900 519 900L567 900Q581 900 582.50 889Q584 878 573 869L461 769Q449 758 440 754Q431 750 420 750L351 750Z"  horiz-adv-x="590" vert-adv-y="1000"  />

      
      <glyph glyph-name="uni0162" unicode="&#x0162;" d="M628 700Q639 700 645.50 692Q652 684 650 673L634 602Q632 591 622.50 583Q613 575 602 575L422 575L305 27Q303 16 293.50 8Q284 0 273 0L192 0Q181 0 174.50 8Q168 16 170 27L287 575L107 575Q96 575 89.50 583Q83 591 85 602L101 673Q103 684 112.50 692Q122 700 133 700L628 700M129-89Q134-75 147-62.50Q160-50 180-50L267-50Q280-50 283.50-60Q287-70 281-81L197-218Q191-228 179-239Q167-250 147-250L95-250Q83-250 79-242Q75-234 78-226L129-89Z"  horiz-adv-x="590" vert-adv-y="1000"  />

      
      <glyph glyph-name="uni55" unicode="&#x55;" d="M704 700Q715 700 721.50 692Q728 684 726 673L638 263Q625 201 600.50 151Q576 101 536.50 65Q497 29 439.50 9.50Q382-10 303-10Q238-10 188 9.50Q138 29 106.50 65Q75 101 63.50 151Q52 201 65 263L153 673Q155 684 164.50 692Q174 700 185 700L266 700Q277 700 283.50 692Q290 684 288 673L201 268Q192 227 197 198Q202 169 218.50 150.50Q235 132 261 123.50Q287 115 320 115Q353 115 383 123.50Q413 132 437 150.50Q461 169 478.50 198Q496 227 505 268L592 673Q594 684 603.50 692Q613 700 624 700L704 700Z"  horiz-adv-x="719" vert-adv-y="1000"  />

      
      <glyph glyph-name="unida" unicode="&#xda;" d="M704 700Q715 700 721.50 692Q728 684 726 673L638 263Q625 201 600.50 151Q576 101 536.50 65Q497 29 439.50 9.50Q382-10 303-10Q238-10 188 9.50Q138 29 106.50 65Q75 101 63.50 151Q52 201 65 263L153 673Q155 684 164.50 692Q174 700 185 700L266 700Q277 700 283.50 692Q290 684 288 673L201 268Q192 227 197 198Q202 169 218.50 150.50Q235 132 261 123.50Q287 115 320 115Q353 115 383 123.50Q413 132 437 150.50Q461 169 478.50 198Q496 227 505 268L592 673Q594 684 603.50 692Q613 700 624 700L704 700M500 881Q514 894 522 897Q530 900 541 900L641 900Q655 900 656.50 887.50Q658 875 648 868L504 767Q494 760 484 755Q474 750 458 750L398 750Q385 750 384.50 760.50Q384 771 393 779L500 881Z"  horiz-adv-x="719" vert-adv-y="1000"  />

      
      <glyph glyph-name="uni016C" unicode="&#x016C;" d="M704 700Q715 700 721.50 692Q728 684 726 673L638 263Q625 201 600.50 151Q576 101 536.50 65Q497 29 439.50 9.50Q382-10 303-10Q238-10 188 9.50Q138 29 106.50 65Q75 101 63.50 151Q52 201 65 263L153 673Q155 684 164.50 692Q174 700 185 700L266 700Q277 700 283.50 692Q290 684 288 673L201 268Q192 227 197 198Q202 169 218.50 150.50Q235 132 261 123.50Q287 115 320 115Q353 115 383 123.50Q413 132 437 150.50Q461 169 478.50 198Q496 227 505 268L592 673Q594 684 603.50 692Q613 700 624 700L704 700M447 745Q408 745 381.50 757.50Q355 770 339 789.50Q323 809 317.50 833Q312 857 317 881Q319 889 325 894.50Q331 900 340 900L397 900Q406 900 409.50 894.50Q413 889 412 881Q409 859 418.50 845Q428 831 455 831Q482 831 498.50 845Q515 859 520 881Q522 889 528 894.50Q534 900 543 900L600 900Q609 900 613 894.50Q617 889 615 881Q610 857 600.50 833Q591 809 572 789.50Q553 770 523 757.50Q493 745 447 745Z"  horiz-adv-x="719" vert-adv-y="1000"  />

      
      <glyph glyph-name="unidb" unicode="&#xdb;" d="M704 700Q715 700 721.50 692Q728 684 726 673L638 263Q625 201 600.50 151Q576 101 536.50 65Q497 29 439.50 9.50Q382-10 303-10Q238-10 188 9.50Q138 29 106.50 65Q75 101 63.50 151Q52 201 65 263L153 673Q155 684 164.50 692Q174 700 185 700L266 700Q277 700 283.50 692Q290 684 288 673L201 268Q192 227 197 198Q202 169 218.50 150.50Q235 132 261 123.50Q287 115 320 115Q353 115 383 123.50Q413 132 437 150.50Q461 169 478.50 198Q496 227 505 268L592 673Q594 684 603.50 692Q613 700 624 700L704 700M503 900Q514 900 521 896Q528 892 536 881L606 779Q613 769 607 759.50Q601 750 589 750L554 750Q544 750 538.50 752.50Q533 755 525 761L455 808L368 761Q358 756 351.50 753Q345 750 335 750L287 750Q273 750 271.50 761Q270 772 281 781L393 881Q405 892 414 896Q423 900 434 900L503 900Z"  horiz-adv-x="719" vert-adv-y="1000"  />

      
      <glyph glyph-name="unidc" unicode="&#xdc;" d="M704 700Q715 700 721.50 692Q728 684 726 673L638 263Q625 201 600.50 151Q576 101 536.50 65Q497 29 439.50 9.50Q382-10 303-10Q238-10 188 9.50Q138 29 106.50 65Q75 101 63.50 151Q52 201 65 263L153 673Q155 684 164.50 692Q174 700 185 700L266 700Q277 700 283.50 692Q290 684 288 673L201 268Q192 227 197 198Q202 169 218.50 150.50Q235 132 261 123.50Q287 115 320 115Q353 115 383 123.50Q413 132 437 150.50Q461 169 478.50 198Q496 227 505 268L592 673Q594 684 603.50 692Q613 700 624 700L704 700M393 892Q404 892 410 884Q416 876 414 865L396 777Q394 766 384 758Q374 750 363 750L280 750Q269 750 263 758Q257 766 259 777L277 865Q279 876 289 884Q299 892 310 892L393 892M630 892Q641 892 647 884Q653 876 651 865L633 777Q631 766 621 758Q611 750 600 750L517 750Q506 750 500 758Q494 766 496 777L514 865Q516 876 526 884Q536 892 547 892L630 892Z"  horiz-adv-x="719" vert-adv-y="1000"  />

      
      <glyph glyph-name="unid9" unicode="&#xd9;" d="M704 700Q715 700 721.50 692Q728 684 726 673L638 263Q625 201 600.50 151Q576 101 536.50 65Q497 29 439.50 9.50Q382-10 303-10Q238-10 188 9.50Q138 29 106.50 65Q75 101 63.50 151Q52 201 65 263L153 673Q155 684 164.50 692Q174 700 185 700L266 700Q277 700 283.50 692Q290 684 288 673L201 268Q192 227 197 198Q202 169 218.50 150.50Q235 132 261 123.50Q287 115 320 115Q353 115 383 123.50Q413 132 437 150.50Q461 169 478.50 198Q496 227 505 268L592 673Q594 684 603.50 692Q613 700 624 700L704 700M510 779Q516 769 510 759.50Q504 750 493 750L433 750Q417 750 409.50 755Q402 760 395 767L297 864Q288 873 293 886.50Q298 900 314 900L414 900Q425 900 432 897.50Q439 895 447 881L510 779Z"  horiz-adv-x="719" vert-adv-y="1000"  />

      
      <glyph glyph-name="uni0170" unicode="&#x0170;" d="M704 700Q715 700 721.50 692Q728 684 726 673L638 263Q625 201 600.50 151Q576 101 536.50 65Q497 29 439.50 9.50Q382-10 303-10Q238-10 188 9.50Q138 29 106.50 65Q75 101 63.50 151Q52 201 65 263L153 673Q155 684 164.50 692Q174 700 185 700L266 700Q277 700 283.50 692Q290 684 288 673L201 268Q192 227 197 198Q202 169 218.50 150.50Q235 132 261 123.50Q287 115 320 115Q353 115 383 123.50Q413 132 437 150.50Q461 169 478.50 198Q496 227 505 268L592 673Q594 684 603.50 692Q613 700 624 700L704 700M361 881Q368 891 377 895.50Q386 900 402 900L500 900Q515 900 517 889Q519 878 509 870L389 764Q373 750 352 750L299 750Q288 750 286 757.50Q284 765 290 774L361 881M567 881Q574 891 583 895.50Q592 900 608 900L706 900Q721 900 723 889Q725 878 715 870L595 764Q579 750 558 750L505 750Q494 750 492 757.50Q490 765 496 774L567 881Z"  horiz-adv-x="719" vert-adv-y="1000"  />

      
      <glyph glyph-name="uni016A" unicode="&#x016A;" d="M704 700Q715 700 721.50 692Q728 684 726 673L638 263Q625 201 600.50 151Q576 101 536.50 65Q497 29 439.50 9.50Q382-10 303-10Q238-10 188 9.50Q138 29 106.50 65Q75 101 63.50 151Q52 201 65 263L153 673Q155 684 164.50 692Q174 700 185 700L266 700Q277 700 283.50 692Q290 684 288 673L201 268Q192 227 197 198Q202 169 218.50 150.50Q235 132 261 123.50Q287 115 320 115Q353 115 383 123.50Q413 132 437 150.50Q461 169 478.50 198Q496 227 505 268L592 673Q594 684 603.50 692Q613 700 624 700L704 700M301 750Q290 750 283.50 758Q277 766 280 777L294 843Q296 854 305.50 862Q315 870 326 870L605 870Q616 870 622.50 862Q629 854 627 843L613 777Q611 766 601 758Q591 750 580 750L301 750Z"  horiz-adv-x="719" vert-adv-y="1000"  />

      
      <glyph glyph-name="uni0172" unicode="&#x0172;" d="M704 700Q715 700 721.50 692Q728 684 726 673L638 263Q626 207 605 160Q584 113 550 78Q516 43 468 21Q420-1 356-7Q330-9 310.50-21Q291-33 284-64Q277-95 289.50-111.50Q302-128 328-128L343-128Q364-128 361-150L350-198Q348-208 341-214Q334-220 324-220L305-220Q278-220 253.50-207.50Q229-195 211.50-172.50Q194-150 186-120Q178-90 186-54Q192-22 206 3Q122 29 83.50 97Q45 165 65 263L153 673Q155 684 164.50 692Q174 700 185 700L266 700Q277 700 283.50 692Q290 684 288 673L201 268Q192 227 197 198Q202 169 218.50 150.50Q235 132 261 123.50Q287 115 320 115Q353 115 383 123.50Q413 132 437 150.50Q461 169 478.50 198Q496 227 505 268L592 673Q594 684 603.50 692Q613 700 624 700L704 700Z"  horiz-adv-x="719" vert-adv-y="1000"  />

      
      <glyph glyph-name="uni016E" unicode="&#x016E;" d="M704 700Q715 700 721.50 692Q728 684 726 673L638 263Q625 201 600.50 151Q576 101 536.50 65Q497 29 439.50 9.50Q382-10 303-10Q238-10 188 9.50Q138 29 106.50 65Q75 101 63.50 151Q52 201 65 263L153 673Q155 684 164.50 692Q174 700 185 700L266 700Q277 700 283.50 692Q290 684 288 673L201 268Q192 227 197 198Q202 169 218.50 150.50Q235 132 261 123.50Q287 115 320 115Q353 115 383 123.50Q413 132 437 150.50Q461 169 478.50 198Q496 227 505 268L592 673Q594 684 603.50 692Q613 700 624 700L704 700M432 825Q429 812 435 803.50Q441 795 454 795Q467 795 478 803.50Q489 812 492 825Q495 838 489 846.50Q483 855 470 855Q457 855 446 846.50Q435 838 432 825M372 825Q381 863 409.50 886.50Q438 910 480 910Q497 910 512 903.50Q527 897 537.50 886Q548 875 552 859.50Q556 844 552 825Q543 787 514.50 763.50Q486 740 444 740Q427 740 412 746Q397 752 386.50 763.50Q376 775 371.50 790.50Q367 806 372 825Z"  horiz-adv-x="719" vert-adv-y="1000"  />

      
      <glyph glyph-name="uni0168" unicode="&#x0168;" d="M704 700Q715 700 721.50 692Q728 684 726 673L638 263Q625 201 600.50 151Q576 101 536.50 65Q497 29 439.50 9.50Q382-10 303-10Q238-10 188 9.50Q138 29 106.50 65Q75 101 63.50 151Q52 201 65 263L153 673Q155 684 164.50 692Q174 700 185 700L266 700Q277 700 283.50 692Q290 684 288 673L201 268Q192 227 197 198Q202 169 218.50 150.50Q235 132 261 123.50Q287 115 320 115Q353 115 383 123.50Q413 132 437 150.50Q461 169 478.50 198Q496 227 505 268L592 673Q594 684 603.50 692Q613 700 624 700L704 700M523 745Q501 745 485.50 750.50Q470 756 457.50 762Q445 768 433.50 773.50Q422 779 408 779Q396 779 390 774.50Q384 770 379 764.50Q374 759 369.50 754.50Q365 750 356 750L300 750Q291 750 287 755.50Q283 761 285 769Q289 788 300 808.50Q311 829 327.50 846Q344 863 366 874Q388 885 415 885Q437 885 452 879.50Q467 874 479.50 868Q492 862 503.50 856.50Q515 851 529 851Q541 851 547.50 855.50Q554 860 558.50 865.50Q563 871 568 875.50Q573 880 582 880L638 880Q647 880 651 874.50Q655 869 653 861Q649 842 638 821.50Q627 801 610.50 784Q594 767 572 756Q550 745 523 745Z"  horiz-adv-x="719" vert-adv-y="1000"  />

      
      <glyph glyph-name="uni56" unicode="&#x56;" d="M303 198L572 675Q577 683 586 691.50Q595 700 610 700L696 700Q713 700 717 688Q721 676 713 663L358 34Q348 17 338.50 8.50Q329 0 313 0L227 0Q211 0 204.50 8.50Q198 17 196 34L106 663Q104 677 114.50 688.50Q125 700 139 700L208 700Q223 700 228.50 691.50Q234 683 236 675L303 198Z"  horiz-adv-x="664" vert-adv-y="1000"  />

      
      <glyph glyph-name="uni57" unicode="&#x57;" d="M408 317L257 34Q249 19 239.50 9.50Q230 0 215 0L135 0Q120 0 113 9.50Q106 19 107 34L113 665Q113 672 114 673Q116 684 125.50 692Q135 700 146 700L220 700Q230 700 238 694Q246 688 246 673L242 268L374 516Q377 523 387 534Q397 545 415 545L486 545Q504 545 509.50 534Q515 523 515 516L543 264L711 673Q717 688 727 694Q737 700 747 700L827 700Q838 700 844.50 692Q851 684 849 673Q849 673 846 665L586 34Q579 19 569 9.50Q559 0 544 0L466 0Q451 0 445 9.50Q439 19 438 34L408 317Z"  horiz-adv-x="803" vert-adv-y="1000"  />

      
      <glyph glyph-name="uni1E82" unicode="&#x1E82;" d="M408 317L257 34Q249 19 239.50 9.50Q230 0 215 0L135 0Q120 0 113 9.50Q106 19 107 34L113 665Q113 672 114 673Q116 684 125.50 692Q135 700 146 700L220 700Q230 700 238 694Q246 688 246 673L242 268L374 516Q377 523 387 534Q397 545 415 545L486 545Q504 545 509.50 534Q515 523 515 516L543 264L711 673Q717 688 727 694Q737 700 747 700L827 700Q838 700 844.50 692Q851 684 849 673Q849 673 846 665L586 34Q579 19 569 9.50Q559 0 544 0L466 0Q451 0 445 9.50Q439 19 438 34L408 317M552 881Q566 894 574 897Q582 900 593 900L693 900Q707 900 708.50 887.50Q710 875 700 868L556 767Q546 760 536 755Q526 750 510 750L450 750Q437 750 436.50 760.50Q436 771 445 779L552 881Z"  horiz-adv-x="803" vert-adv-y="1000"  />

      
      <glyph glyph-name="uni0174" unicode="&#x0174;" d="M408 317L257 34Q249 19 239.50 9.50Q230 0 215 0L135 0Q120 0 113 9.50Q106 19 107 34L113 665Q113 672 114 673Q116 684 125.50 692Q135 700 146 700L220 700Q230 700 238 694Q246 688 246 673L242 268L374 516Q377 523 387 534Q397 545 415 545L486 545Q504 545 509.50 534Q515 523 515 516L543 264L711 673Q717 688 727 694Q737 700 747 700L827 700Q838 700 844.50 692Q851 684 849 673Q849 673 846 665L586 34Q579 19 569 9.50Q559 0 544 0L466 0Q451 0 445 9.50Q439 19 438 34L408 317M544 900Q555 900 562 896Q569 892 577 881L647 779Q654 769 648 759.50Q642 750 630 750L595 750Q585 750 579.50 752.50Q574 755 566 761L496 808L409 761Q399 756 392.50 753Q386 750 376 750L328 750Q314 750 312.50 761Q311 772 322 781L434 881Q446 892 455 896Q464 900 475 900L544 900Z"  horiz-adv-x="803" vert-adv-y="1000"  />

      
      <glyph glyph-name="uni1E84" unicode="&#x1E84;" d="M408 317L257 34Q249 19 239.50 9.50Q230 0 215 0L135 0Q120 0 113 9.50Q106 19 107 34L113 665Q113 672 114 673Q116 684 125.50 692Q135 700 146 700L220 700Q230 700 238 694Q246 688 246 673L242 268L374 516Q377 523 387 534Q397 545 415 545L486 545Q504 545 509.50 534Q515 523 515 516L543 264L711 673Q717 688 727 694Q737 700 747 700L827 700Q838 700 844.50 692Q851 684 849 673Q849 673 846 665L586 34Q579 19 569 9.50Q559 0 544 0L466 0Q451 0 445 9.50Q439 19 438 34L408 317M441 892Q452 892 458 884Q464 876 462 865L444 777Q442 766 432 758Q422 750 411 750L328 750Q317 750 311 758Q305 766 307 777L325 865Q327 876 337 884Q347 892 358 892L441 892M678 892Q689 892 695 884Q701 876 699 865L681 777Q679 766 669 758Q659 750 648 750L565 750Q554 750 548 758Q542 766 544 777L562 865Q564 876 574 884Q584 892 595 892L678 892Z"  horiz-adv-x="803" vert-adv-y="1000"  />

      
      <glyph glyph-name="uni1E80" unicode="&#x1E80;" d="M408 317L257 34Q249 19 239.50 9.50Q230 0 215 0L135 0Q120 0 113 9.50Q106 19 107 34L113 665Q113 672 114 673Q116 684 125.50 692Q135 700 146 700L220 700Q230 700 238 694Q246 688 246 673L242 268L374 516Q377 523 387 534Q397 545 415 545L486 545Q504 545 509.50 534Q515 523 515 516L543 264L711 673Q717 688 727 694Q737 700 747 700L827 700Q838 700 844.50 692Q851 684 849 673Q849 673 846 665L586 34Q579 19 569 9.50Q559 0 544 0L466 0Q451 0 445 9.50Q439 19 438 34L408 317M536 779Q542 769 536 759.50Q530 750 519 750L459 750Q443 750 435.50 755Q428 760 421 767L323 864Q314 873 319 886.50Q324 900 340 900L440 900Q451 900 458 897.50Q465 895 473 881L536 779Z"  horiz-adv-x="803" vert-adv-y="1000"  />

      
      <glyph glyph-name="uni58" unicode="&#x58;" d="M478 0Q459 0 451.50 10Q444 20 441 25L329 244L126 25Q121 20 110 10Q99 0 79 0L-22 0Q-39 0-43.50 13.50Q-48 27-38 38L268 367L121 660Q114 674 124 687Q134 700 152 700L223 700Q243 700 250 690Q257 680 260 675L366 466L559 675Q564 680 575 690Q586 700 606 700L706 700Q722 700 727 686.50Q732 673 722 662L426 343L579 42Q583 34 581.50 26.50Q580 19 575 13Q570 7 563 3.50Q556 0 549 0L478 0Z"  horiz-adv-x="667" vert-adv-y="1000"  />

      
      <glyph glyph-name="uni59" unicode="&#x59;" d="M694 700Q708 700 714 687.50Q720 675 712 664L385 247L338 27Q336 16 326.50 8Q317 0 306 0L227 0Q216 0 209.50 8Q203 16 205 27L252 247L105 661Q100 677 111 688.50Q122 700 136 700L204 700Q224 700 231.50 690Q239 680 241 675L340 396L558 675Q566 685 575.50 692.50Q585 700 605 700L694 700Z"  horiz-adv-x="659" vert-adv-y="1000"  />

      
      <glyph glyph-name="unidd" unicode="&#xdd;" d="M694 700Q708 700 714 687.50Q720 675 712 664L385 247L338 27Q336 16 326.50 8Q317 0 306 0L227 0Q216 0 209.50 8Q203 16 205 27L252 247L105 661Q100 677 111 688.50Q122 700 136 700L204 700Q224 700 231.50 690Q239 680 241 675L340 396L558 675Q566 685 575.50 692.50Q585 700 605 700L694 700M458 881Q472 894 480 897Q488 900 499 900L599 900Q613 900 614.50 887.50Q616 875 606 868L462 767Q452 760 442 755Q432 750 416 750L356 750Q343 750 342.50 760.50Q342 771 351 779L458 881Z"  horiz-adv-x="659" vert-adv-y="1000"  />

      
      <glyph glyph-name="uni0176" unicode="&#x0176;" d="M694 700Q708 700 714 687.50Q720 675 712 664L385 247L338 27Q336 16 326.50 8Q317 0 306 0L227 0Q216 0 209.50 8Q203 16 205 27L252 247L105 661Q100 677 111 688.50Q122 700 136 700L204 700Q224 700 231.50 690Q239 680 241 675L340 396L558 675Q566 685 575.50 692.50Q585 700 605 700L694 700M460 900Q471 900 478 896Q485 892 493 881L563 779Q570 769 564 759.50Q558 750 546 750L511 750Q501 750 495.50 752.50Q490 755 482 761L412 808L325 761Q315 756 308.50 753Q302 750 292 750L244 750Q230 750 228.50 761Q227 772 238 781L350 881Q362 892 371 896Q380 900 391 900L460 900Z"  horiz-adv-x="659" vert-adv-y="1000"  />

      
      <glyph glyph-name="uni0178" unicode="&#x0178;" d="M694 700Q708 700 714 687.50Q720 675 712 664L385 247L338 27Q336 16 326.50 8Q317 0 306 0L227 0Q216 0 209.50 8Q203 16 205 27L252 247L105 661Q100 677 111 688.50Q122 700 136 700L204 700Q224 700 231.50 690Q239 680 241 675L340 396L558 675Q566 685 575.50 692.50Q585 700 605 700L694 700M352 892Q363 892 369 884Q375 876 373 865L355 777Q353 766 343 758Q333 750 322 750L239 750Q228 750 222 758Q216 766 218 777L236 865Q238 876 248 884Q258 892 269 892L352 892M589 892Q600 892 606 884Q612 876 610 865L592 777Q590 766 580 758Q570 750 559 750L476 750Q465 750 459 758Q453 766 455 777L473 865Q475 876 485 884Q495 892 506 892L589 892Z"  horiz-adv-x="659" vert-adv-y="1000"  />

      
      <glyph glyph-name="uni1EF2" unicode="&#x1EF2;" d="M694 700Q708 700 714 687.50Q720 675 712 664L385 247L338 27Q336 16 326.50 8Q317 0 306 0L227 0Q216 0 209.50 8Q203 16 205 27L252 247L105 661Q100 677 111 688.50Q122 700 136 700L204 700Q224 700 231.50 690Q239 680 241 675L340 396L558 675Q566 685 575.50 692.50Q585 700 605 700L694 700M463 779Q469 769 463 759.50Q457 750 446 750L386 750Q370 750 362.50 755Q355 760 348 767L250 864Q241 873 246 886.50Q251 900 267 900L367 900Q378 900 385 897.50Q392 895 400 881L463 779Z"  horiz-adv-x="659" vert-adv-y="1000"  />

      
      <glyph glyph-name="uni5a" unicode="&#x5a;" d="M531 125Q542 125 548.50 117Q555 109 552 98L537 27Q535 16 525.50 8Q516 0 505 0L4 0Q-7 0-13.50 8Q-20 16-18 27L-3 98Q0 111 7.50 119.50Q15 128 20 133L457 575L136 575Q125 575 118.50 583Q112 591 114 602L130 673Q132 684 141.50 692Q151 700 162 700L643 700Q654 700 660.50 692Q667 684 665 673L649 602Q647 591 641.50 583.50Q636 576 629 569L189 125L531 125Z"  horiz-adv-x="633" vert-adv-y="1000"  />

      
      <glyph glyph-name="uni0179" unicode="&#x0179;" d="M531 125Q542 125 548.50 117Q555 109 552 98L537 27Q535 16 525.50 8Q516 0 505 0L4 0Q-7 0-13.50 8Q-20 16-18 27L-3 98Q0 111 7.50 119.50Q15 128 20 133L457 575L136 575Q125 575 118.50 583Q112 591 114 602L130 673Q132 684 141.50 692Q151 700 162 700L643 700Q654 700 660.50 692Q667 684 665 673L649 602Q647 591 641.50 583.50Q636 576 629 569L189 125L531 125M474 881Q488 894 496 897Q504 900 515 900L615 900Q629 900 630.50 887.50Q632 875 622 868L478 767Q468 760 458 755Q448 750 432 750L372 750Q359 750 358.50 760.50Q358 771 367 779L474 881Z"  horiz-adv-x="633" vert-adv-y="1000"  />

      
      <glyph glyph-name="uni017D" unicode="&#x017D;" d="M531 125Q542 125 548.50 117Q555 109 552 98L537 27Q535 16 525.50 8Q516 0 505 0L4 0Q-7 0-13.50 8Q-20 16-18 27L-3 98Q0 111 7.50 119.50Q15 128 20 133L457 575L136 575Q125 575 118.50 583Q112 591 114 602L130 673Q132 684 141.50 692Q151 700 162 700L643 700Q654 700 660.50 692Q667 684 665 673L649 602Q647 591 641.50 583.50Q636 576 629 569L189 125L531 125M371 750Q360 750 353 754Q346 758 338 769L268 871Q261 881 267 890.50Q273 900 285 900L320 900Q330 900 335.50 897.50Q341 895 349 889L419 842L506 889Q516 894 522.50 897Q529 900 539 900L587 900Q601 900 602.50 889Q604 878 593 869L481 769Q469 758 460 754Q451 750 440 750L371 750Z"  horiz-adv-x="633" vert-adv-y="1000"  />

      
      <glyph glyph-name="uni017B" unicode="&#x017B;" d="M531 125Q542 125 548.50 117Q555 109 552 98L537 27Q535 16 525.50 8Q516 0 505 0L4 0Q-7 0-13.50 8Q-20 16-18 27L-3 98Q0 111 7.50 119.50Q15 128 20 133L457 575L136 575Q125 575 118.50 583Q112 591 114 602L130 673Q132 684 141.50 692Q151 700 162 700L643 700Q654 700 660.50 692Q667 684 665 673L649 602Q647 591 641.50 583.50Q636 576 629 569L189 125L531 125M488 897Q499 897 505 889Q511 881 509 870L490 777Q488 766 478 758Q468 750 457 750L369 750Q358 750 351.50 758Q345 766 348 777L367 870Q369 881 379 889Q389 897 400 897L488 897Z"  horiz-adv-x="633" vert-adv-y="1000"  />

      
      <glyph glyph-name="uni61" unicode="&#x61;" d="M307 530Q338 530 363 524Q388 518 406.50 509Q425 500 437 489.50Q449 479 455 470L460 493Q462 504 471.50 512Q481 520 492 520L568 520Q579 520 585.50 512Q592 504 590 493L491 27Q489 16 479.50 8Q470 0 459 0L383 0Q372 0 365.50 8Q359 16 361 27L366 50Q356 38 344 27Q332 16 314 8Q296 0 271.50-5Q247-10 212-10Q165-10 128 10Q91 30 67 63.50Q43 97 32.50 140.50Q22 184 30 230Q33 245 37 265Q41 285 45 300Q57 346 79 388Q101 430 134 461.50Q167 493 210 511.50Q253 530 307 530M173 288Q168 273 165.50 260Q163 247 161 232Q157 200 162.50 177Q168 154 181 139Q194 124 214 117Q234 110 258 110Q307 110 346.50 139Q386 168 403 222Q408 237 412.50 260Q417 283 419 298Q425 350 398 380Q371 410 322 410Q273 410 233 381.50Q193 353 173 288Z"  horiz-adv-x="617" vert-adv-y="1000"  />

      
      <glyph glyph-name="unie1" unicode="&#xe1;" d="M307 530Q338 530 363 524Q388 518 406.50 509Q425 500 437 489.50Q449 479 455 470L460 493Q462 504 471.50 512Q481 520 492 520L568 520Q579 520 585.50 512Q592 504 590 493L491 27Q489 16 479.50 8Q470 0 459 0L383 0Q372 0 365.50 8Q359 16 361 27L366 50Q356 38 344 27Q332 16 314 8Q296 0 271.50-5Q247-10 212-10Q165-10 128 10Q91 30 67 63.50Q43 97 32.50 140.50Q22 184 30 230Q33 245 37 265Q41 285 45 300Q57 346 79 388Q101 430 134 461.50Q167 493 210 511.50Q253 530 307 530M173 288Q168 273 165.50 260Q163 247 161 232Q157 200 162.50 177Q168 154 181 139Q194 124 214 117Q234 110 258 110Q307 110 346.50 139Q386 168 403 222Q408 237 412.50 260Q417 283 419 298Q425 350 398 380Q371 410 322 410Q273 410 233 381.50Q193 353 173 288M432 726Q446 739 454 742Q462 745 473 745L568 745Q582 745 583.50 732.50Q585 720 575 713L431 612Q421 605 411 600Q401 595 385 595L330 595Q317 595 316.50 605.50Q316 616 325 624L432 726Z"  horiz-adv-x="617" vert-adv-y="1000"  />

      
      </font>
</defs>
</svg>
